<svg xmlns="http://www.w3.org/2000/svg" width="166" height="166" viewBox="0 0 166 166">
    <defs>
        <linearGradient id="b" x1="99.998%" x2=".016%" y1="49.989%" y2="49.989%">
            <stop offset="0%" stop-color="#A25300"/>
            <stop offset="28%" stop-color="#F19629"/>
            <stop offset="53%" stop-color="#F1B624"/>
            <stop offset="72%" stop-color="#F1B624"/>
            <stop offset="100%" stop-color="#FFE579"/>
        </linearGradient>
        <linearGradient id="a" x1="-.909%" x2="100.923%" y1="49.989%" y2="49.989%">
            <stop offset="0%" stop-color="#FFE579"/>
            <stop offset="10%" stop-color="#FAD45A"/>
            <stop offset="26%" stop-color="#F1B624"/>
            <stop offset="62%" stop-color="#F1B624"/>
            <stop offset="100%" stop-color="#F19629"/>
        </linearGradient>
        <linearGradient id="d" x1="-17.256%" x2="121.009%" y1="88.464%" y2="7.484%">
            <stop offset="0%" stop-color="#F1B624"/>
            <stop offset="33%" stop-color="#F19629"/>
            <stop offset="55%" stop-color="#A25300"/>
            <stop offset="79%" stop-color="#FFE579"/>
            <stop offset="87%" stop-color="#FAD45A"/>
            <stop offset="100%" stop-color="#F1B624"/>
        </linearGradient>
        <linearGradient id="c" x1="-2.057%" x2="102.147%" y1="50%" y2="50%">
            <stop offset="0%" stop-color="#F1AB26"/>
            <stop offset="33%" stop-color="#F19629"/>
            <stop offset="55%" stop-color="#A25300"/>
            <stop offset="100%" stop-color="#F1B624"/>
        </linearGradient>
    </defs>
    <g fill="none" fill-rule="nonzero">
        <path fill="url(#b)" stroke="url(#a)" stroke-width="3" d="M135.9 139.52l-8.13-.23a6.08 6.08 0 0 0-6 4.4l-2.27 7.83a6.08 6.08 0 0 1-8.2 3.92l-7.5-3.15a6.08 6.08 0 0 0-7.2 1.93l-4.92 6.48a6.08 6.08 0 0 1-9.06.7l-5.86-5.65a6.08 6.08 0 0 0-7.41-.8l-6.93 4.26a6.08 6.08 0 0 1-8.7-2.62l-3.42-7.38a6.08 6.08 0 0 0-6.62-3.43l-8 1.47a6.08 6.08 0 0 1-7.17-5.59l-.53-8.14a6.08 6.08 0 0 0-4.93-5.58l-8-1.52a6.08 6.08 0 0 1-4.66-7.8l2.44-7.76a6.08 6.08 0 0 0-2.58-7l-6.89-4.34a6.08 6.08 0 0 1-1.53-9l5.08-6.35a6.08 6.08 0 0 0 .12-7.45l-4.87-6.44a6.08 6.08 0 0 1 1.81-8.91l7-4.09a6.08 6.08 0 0 0 2.8-6.9l-2.18-7.86a6.08 6.08 0 0 1 4.91-7.65l8-1.27a6.08 6.08 0 0 0 5.11-5.43l.78-8.1a6.08 6.08 0 0 1 7.34-5.36l8 1.72a6.08 6.08 0 0 0 6.72-3.22l3.65-7.27a6.08 6.08 0 0 1 8.78-2.35l6.79 4.47a6.08 6.08 0 0 0 7.42-.54l6-5.46a6.08 6.08 0 0 1 9 1l4.72 6.63a6.08 6.08 0 0 0 7.13 2.15l7.6-2.91a6.08 6.08 0 0 1 8.07 4.18l2 7.88a6.08 6.08 0 0 0 5.94 4.53h8.13a6.08 6.08 0 0 1 6 6.81l-1 8.08a6.08 6.08 0 0 0 3.82 6.4l7.58 3a6.08 6.08 0 0 1 3.15 8.53l-3.78 7.18a6.08 6.08 0 0 0 1.25 7.34l6 5.5a6.08 6.08 0 0 1-.14 9.09l-6.16 5.31a6.08 6.08 0 0 0-1.48 7.3l3.6 7.29a6.08 6.08 0 0 1-3.42 8.42l-7.67 2.75a6.08 6.08 0 0 0-4 6.27l.72 8.1a6.08 6.08 0 0 1-6.25 6.63z" transform="translate(1 1)"/>
        <path fill="url(#d)" stroke="url(#c)" stroke-width="3" d="M91.07 139.34h-15v-12.53a80.4 80.4 0 0 1-27.91-6.57l-.35-.15V96.52l.84.43a96.17 96.17 0 0 0 16.79 6.57 58 58 0 0 0 15.82 2.62c3.68 0 6.39-.44 8.06-1.3a4.18 4.18 0 0 0 2.33-4.06 4.07 4.07 0 0 0-1.69-3.26 29.08 29.08 0 0 0-6.22-3.4c-2.94-1.28-7-2.85-12-4.67a55.15 55.15 0 0 1-13.86-7.14 25.3 25.3 0 0 1-7.76-9 28 28 0 0 1-2.43-12.33c.02-7.46 2.47-13.46 7.31-17.68 4.84-4.22 11.79-6.78 21.07-7.78V26.3h15v9.06a79.68 79.68 0 0 1 26.47 6.57l.53.23-8.41 20.14-.54-.24c-9.2-4.14-17.6-6.23-25-6.23-3.44 0-5.88.41-7.23 1.22A3.64 3.64 0 0 0 75 60.4a4.13 4.13 0 0 0 1.38 3.22 21.64 21.64 0 0 0 5.3 3.11c2.56 1.17 6.16 2.54 10.71 4.09 9.37 3.32 16.19 7.16 20.29 11.41 4.1 4.25 6.25 9.92 6.25 16.69 0 7.62-2.45 13.9-7.29 18.67-4.84 4.77-11.66 7.62-20.59 8.79l.02 12.96zm-13.84-1.16h12.68v-12.84l.51-.06c8.92-1.09 15.79-4 20.43-8.53 4.64-4.53 6.95-10.55 6.95-17.84 0-6.45-2-11.8-5.92-15.88s-10.65-7.87-19.84-11.12c-4.58-1.56-8.22-2.95-10.81-4.13a22.39 22.39 0 0 1-5.6-3.31 5.3 5.3 0 0 1-1.76-4.07 4.78 4.78 0 0 1 2.46-4.34c1.56-.93 4.11-1.39 7.82-1.39 7.39 0 15.76 2.05 24.9 6.09l7.51-18a78 78 0 0 0-26.1-6.24h-.55v-9H77.23v9.1l-.52.05c-9.29 1-16.33 3.5-20.94 7.55-4.61 4.05-6.89 9.67-6.89 16.82a26.91 26.91 0 0 0 2.28 11.77 24.17 24.17 0 0 0 7.42 8.55 54 54 0 0 0 13.56 7c5 1.82 9.07 3.4 12 4.69a29.8 29.8 0 0 1 6.49 3.56 5.23 5.23 0 0 1 2.12 4.2 5.32 5.32 0 0 1-3 5.1c-1.86 1-4.67 1.44-8.59 1.44a59.12 59.12 0 0 1-16-2.7 98 98 0 0 1-16.11-6.2v20.87a79.23 79.23 0 0 0 27.67 6.35h.55l-.04 12.51z" transform="translate(1 1)"/>
        <path fill="#7A3E08" d="M112.74 83.63c-4-4.133-10.56-7.817-19.68-11.05-4.507-1.533-8.027-2.867-10.56-4a21.65 21.65 0 0 1-5.34-3.19 4.63 4.63 0 0 1-1.54-3.57 4.14 4.14 0 0 1 2.13-3.77c1.42-.853 3.88-1.28 7.38-1.28 6.847 0 14.473 1.787 22.88 5.36a2 2 0 0 0 2.63-1.05l6.26-15a2 2 0 0 0-1.09-2.56 76.86 76.86 0 0 0-22.65-5.58 2 2 0 0 1-1.85-2v-5a2 2 0 0 0-2-2h-9.55a2 2 0 0 0-2 2v5.23a2 2 0 0 1-1.71 2c-8.413 1.067-14.79 3.517-19.13 7.35-4.667 4.067-7 9.707-7 16.92a26.83 26.83 0 0 0 2.33 11.84 24.13 24.13 0 0 0 7.44 8.59 53.28 53.28 0 0 0 13.47 6.89c4.94 1.793 8.863 3.323 11.77 4.59a28.91 28.91 0 0 1 6.23 3.41 4.57 4.57 0 0 1 1.87 3.67 4.67 4.67 0 0 1-2.59 4.49c-1.727.893-4.447 1.343-8.16 1.35a57.2 57.2 0 0 1-15.68-2.59 96.74 96.74 0 0 1-13.72-5.1 2 2 0 0 0-2.81 1.8v17.28a2 2 0 0 0 1.25 1.86 77.83 77.83 0 0 0 24.59 5.8 2 2 0 0 1 1.87 2v8.41a2 2 0 0 0 2 2h9.6a2 2 0 0 0 2-2v-8.94a2 2 0 0 1 1.66-2c8.107-1.233 14.34-4 18.7-8.3 4.667-4.593 7-10.563 7-17.91-.027-6.5-2.027-11.817-6-15.95z"/>
    </g>
</svg>
