<svg xmlns="http://www.w3.org/2000/svg" width="32" height="285" viewBox="0 0 32 285">
    <defs>
        <radialGradient id="a" r="63.009%" fx="50%" fy="50%" gradientTransform="matrix(0 1 -1.0128 0 1.006 0)">
            <stop offset="0%" stop-color="#DD3535"/>
            <stop offset="100%" stop-color="#6F0606"/>
        </radialGradient>
        <radialGradient id="b" r="63.009%" fx="50%" fy="50%" gradientTransform="matrix(0 1 -1.0128 0 1.006 0)">
            <stop offset="0%" stop-color="#515151"/>
            <stop offset="100%"/>
        </radialGradient>
    </defs>
    <g fill="none" fill-rule="evenodd">
        <g>
            <rect width="32" height="32" fill="#FFF" rx="5"/>
            <circle cx="16" cy="16" r="3.478" fill="url(#a)"/>
        </g>
        <g transform="translate(0 113)">
            <rect width="32" height="32" fill="#FFF" rx="5"/>
            <circle cx="9.043" cy="9.043" r="3.478" fill="url(#a)"/>
            <circle cx="22.957" cy="9.043" r="3.478" fill="url(#a)"/>
            <circle cx="9.043" cy="22.957" r="3.478" fill="url(#a)"/>
            <circle cx="22.957" cy="22.957" r="3.478" fill="url(#a)"/>
        </g>
        <g transform="translate(0 76)">
            <rect width="32" height="32" fill="#FFF" rx="5"/>
            <circle cx="7.652" cy="7.652" r="3.478" fill="url(#b)"/>
            <circle cx="16" cy="16" r="3.478" fill="url(#b)"/>
            <circle cx="24.348" cy="24.348" r="3.478" fill="url(#b)"/>
        </g>
        <g transform="translate(0 152)">
            <rect width="32" height="32" fill="#FFF" rx="5"/>
            <circle cx="7.652" cy="7.652" r="3.478" fill="url(#b)"/>
            <circle cx="16" cy="16" r="3.478" fill="url(#b)"/>
            <circle cx="24.348" cy="24.348" r="3.478" fill="url(#b)"/>
            <circle cx="24.348" cy="7.652" r="3.478" fill="url(#b)" transform="rotate(90 24.348 7.652)"/>
            <circle cx="7.652" cy="24.348" r="3.478" fill="url(#b)" transform="rotate(90 7.652 24.348)"/>
        </g>
        <g transform="translate(1 193)">
            <rect width="32" height="32" y=".413" fill="#FFF" rx="5"/>
            <circle cx="7.652" cy="8.065" r="3.478" fill="url(#b)" transform="rotate(90 7.652 8.065)"/>
            <circle cx="7.652" cy="16.413" r="3.478" fill="url(#b)" transform="rotate(90 7.652 16.413)"/>
            <circle cx="7.652" cy="24.761" r="3.478" fill="url(#b)" transform="rotate(90 7.652 24.76)"/>
            <circle cx="24.348" cy="8.065" r="3.478" fill="url(#b)" transform="rotate(90 24.348 8.065)"/>
            <circle cx="24.348" cy="16.413" r="3.478" fill="url(#b)" transform="rotate(90 24.348 16.413)"/>
            <circle cx="24.348" cy="24.761" r="3.478" fill="url(#b)" transform="rotate(90 24.348 24.76)"/>
        </g>
        <g transform="translate(0 38)">
            <rect width="32" height="32" fill="#FFF" rx="5"/>
            <circle cx="9.043" cy="9.043" r="3.478" fill="url(#b)"/>
            <circle cx="22.957" cy="22.957" r="3.478" fill="url(#b)"/>
        </g>
    </g>
</svg>
