<svg xmlns="http://www.w3.org/2000/svg" width="166" height="166" viewBox="0 0 166 166">
    <defs>
        <radialGradient id="a" r="69.129%" fx="50%" fy="50%" gradientTransform="matrix(1 0 0 .9993 0 0)">
            <stop offset="0%" stop-color="#F50D00"/>
            <stop offset="11%" stop-color="#F00D00"/>
            <stop offset="24%" stop-color="#E00C00"/>
            <stop offset="39%" stop-color="#C60B00"/>
            <stop offset="55%" stop-color="#A20900"/>
            <stop offset="72%" stop-color="#740700"/>
            <stop offset="89%" stop-color="#3C0500"/>
            <stop offset="100%" stop-color="#170300"/>
        </radialGradient>
        <linearGradient id="b" x1="85.358%" x2="-49.386%" y1="85.355%" y2="-49.389%">
            <stop offset="0%" stop-color="#541513"/>
            <stop offset="22%" stop-color="#8D5027"/>
            <stop offset="25%" stop-color="#92562D"/>
            <stop offset="69%" stop-color="#D7B189"/>
            <stop offset="100%" stop-color="#FFF2DB"/>
        </linearGradient>
        <linearGradient id="c" x1="0%" x2="100.001%" y1="50%" y2="50%">
            <stop offset="1%" stop-color="#EBC17D"/>
            <stop offset="19%" stop-color="#EDD089"/>
            <stop offset="41%" stop-color="#F4E8D9"/>
            <stop offset="73%" stop-color="#C08329"/>
            <stop offset="95%" stop-color="#EABE81"/>
        </linearGradient>
        <linearGradient id="d" x1="50.001%" x2="50.001%" y1="-6.666%" y2="153.696%">
            <stop offset="0%" stop-color="#FFF"/>
            <stop offset="1%" stop-color="#FFF" stop-opacity=".96"/>
            <stop offset="5%" stop-color="#FFF" stop-opacity=".78"/>
            <stop offset="9%" stop-color="#FFF" stop-opacity=".61"/>
            <stop offset="14%" stop-color="#FFF" stop-opacity=".47"/>
            <stop offset="20%" stop-color="#FFF" stop-opacity=".34"/>
            <stop offset="25%" stop-color="#FFF" stop-opacity=".23"/>
            <stop offset="32%" stop-color="#FFF" stop-opacity=".15"/>
            <stop offset="40%" stop-color="#FFF" stop-opacity=".08"/>
            <stop offset="49%" stop-color="#FFF" stop-opacity=".03"/>
            <stop offset="63%" stop-color="#FFF" stop-opacity=".01"/>
            <stop offset="100%" stop-color="#FFF" stop-opacity="0"/>
        </linearGradient>
    </defs>
    <g fill="none" fill-rule="evenodd">
        <path fill="url(#a)" d="M82.7 154.42c39.507 0 71.728-32.245 71.728-71.78 0-39.536-32.221-71.78-71.729-71.78S10.97 43.105 10.97 82.64c0 39.534 32.222 71.78 71.73 71.78z"/>
        <path fill="gray" d="M82.698 10.86c1.416 0 2.82.046 4.217.127L82.92 80.99l14.24-68.67a71.14 71.14 0 0 1 8.15 2.184L83.335 81.102l31.518-62.637a71.698 71.698 0 0 1 7.301 4.228L83.71 81.32l46.636-52.33a72.171 72.171 0 0 1 5.964 5.968L84.018 81.626l58.585-38.47a71.672 71.672 0 0 1 4.225 7.307l-62.591 31.54 66.55-21.989a71.347 71.347 0 0 1 2.182 8.155L84.35 82.427l69.95-4.003c.08 1.401.127 2.802.127 4.22 0 1.419-.045 2.824-.127 4.22l-69.954-4.006 68.62 14.254a71.216 71.216 0 0 1-2.182 8.155l-66.55-21.99 62.593 31.54a71.668 71.668 0 0 1-4.225 7.307l-58.585-38.47 52.292 46.667a72.18 72.18 0 0 1-5.964 5.967L83.712 83.961l38.442 58.626a71.563 71.563 0 0 1-7.301 4.228L83.335 84.178l21.974 66.597a71.2 71.2 0 0 1-8.15 2.184L82.92 84.295l4 70c-1.4.081-2.8.127-4.216.127-1.418 0-2.822-.046-4.217-.126l3.995-70.001-14.244 68.665a71.085 71.085 0 0 1-8.15-2.184l21.974-66.598-31.517 62.637a71.648 71.648 0 0 1-7.301-4.228l38.442-58.626-46.633 52.328a72.18 72.18 0 0 1-5.965-5.967L81.38 83.654l-58.585 38.47a71.623 71.623 0 0 1-4.225-7.307L81.16 83.278l-66.55 21.99a71.33 71.33 0 0 1-2.182-8.156l68.618-14.254-69.95 4.005c-.08-1.4-.126-2.802-.126-4.22 0-1.418.045-2.824.126-4.22l69.957 4.004-68.625-14.259a71.227 71.227 0 0 1 2.183-8.154l66.55 21.99L18.57 50.462a71.627 71.627 0 0 1 4.225-7.306l58.585 38.47L29.087 34.96a72.18 72.18 0 0 1 5.965-5.968L81.685 81.32 43.243 22.693a71.612 71.612 0 0 1 7.301-4.228l31.517 62.636-21.974-66.597a71.256 71.256 0 0 1 8.15-2.184L82.48 80.988l-3.994-70.002a74 74 0 0 1 4.21-.125z" style="mix-blend-mode:multiply"/>
        <path fill="url(#b)" d="M165.276 82.64c0 45.644-36.979 82.642-82.582 82.642-45.602 0-82.582-37.005-82.582-82.641S37.091 0 82.694 0c45.604 0 82.582 37 82.582 82.64zm-14.506 0c0-37.625-30.478-68.124-68.077-68.124s-68.07 30.499-68.07 68.125c0 37.626 30.477 68.125 68.076 68.125 37.6 0 68.076-30.5 68.076-68.125h-.005z"/>
        <path fill="url(#c)" d="M82.698 3.655c43.592 0 78.929 35.362 78.929 78.985 0 43.622-35.337 78.985-78.93 78.985-43.59 0-78.928-35.362-78.928-78.984 0-43.623 35.337-78.986 78.929-78.986zm0 7.206c-39.615 0-71.73 32.137-71.73 71.78s32.115 71.78 71.73 71.78 71.73-32.137 71.73-71.78-32.115-71.78-71.73-71.78z"/>
        <path fill="url(#d)" d="M82.7 104.428c30.607 0 55.57-19.69 55.57-43.834 0-24.143-24.963-43.833-55.57-43.833-30.61 0-55.574 19.69-55.574 43.837 0 24.146 24.965 43.83 55.573 43.83z"/>
    </g>
</svg>
