<?xml version="1.0" encoding="UTF-8"?>
<svg width="15px" height="12px" viewBox="0 0 15 12" version="1.1" xmlns="http://www.w3.org/2000/svg" xmlns:xlink="http://www.w3.org/1999/xlink">
    <!-- Generator: Sketch 49.1 (51147) - http://www.bohemiancoding.com/sketch -->
    <title>邮箱找回</title>
    <desc>Created with Sketch.</desc>
    <defs></defs>
    <g id="Page-1" stroke="none" stroke-width="1" fill="none" fill-rule="evenodd">
        <g id="Group-2" fill-rule="nonzero">
            <g id="邮箱-2" transform="translate(1.000000, 0.000000)" fill="#A3CCFF">
                <path d="M12.6318481,9.69620253 L9.94886076,7.01316456 C9.78078481,6.84511392 9.78078481,6.57260759 9.94886076,6.40455696 C10.116962,6.2364557 10.389443,6.2364557 10.557519,6.40455696 L13.1392405,8.98625316 L13.1392405,1.44017722 L7.81443038,6.71949367 C7.33987342,7.1383038 6.65660759,7.1383038 6.20065823,6.73688608 C5.89852538,6.43993214 5.59650004,6.14286883 5.29458228,5.8456962 L1.44410127,9.69620253 L12.6318481,9.69620253 Z M0.860759494,9.06222785 L4.68101266,5.24202532 C3.79498734,4.37027848 2.52159494,3.11726582 0.860759494,1.48298734 L0.860759494,6.60579747 C0.860759494,6.84351899 0.668075949,7.03617722 0.430379747,7.03617722 C0.192683544,7.03617722 0,6.84351899 0,6.60579747 L0,1.29617722 C0,0.580303797 0.580253165,0 1.2961519,0 L12.7038481,0 C13.4197468,0 14,0.580253165 14,1.29617722 L14,9.26075949 C14,9.97670886 13.4197468,10.556962 12.7038481,10.556962 L1.2961519,10.556962 C0.580253165,10.556962 0,9.97670886 0,9.26078481 L0,8.59164557 C0,8.35394937 0.192683544,8.16126582 0.430379747,8.16126582 C0.668075949,8.16126582 0.860759494,8.35394937 0.860759494,8.59164557 L0.860759494,9.06227848 L0.860759494,9.06222785 Z M12.5011139,0.860759494 L1.45564557,0.860759494 L6.77670886,6.09708861 C6.90486624,6.20376106 7.09085056,6.20394195 7.21921519,6.09751899 L12.5011139,0.860759494 Z" id="Shape"></path>
            </g>
            <g id="邮箱-2" fill="#737BF8">
                <path d="M13.2115753,10.4059233 L10.5285879,7.61028777 C10.360512,7.43518465 10.360512,7.15124221 10.5285879,6.97613909 C10.6966892,6.80098321 10.9691702,6.80098321 11.1372461,6.97613909 L13.7189677,9.66617986 L13.7189677,1.80342206 L8.39415754,7.30429257 C7.91960057,7.74067866 7.23633475,7.74067866 6.78038538,7.32241487 C6.47825253,7.01299883 6.1762272,6.70346884 5.87430943,6.39382494 L2.02382842,10.4059233 L13.2115753,10.4059233 Z M5.26073981,5.76482014 C4.3747145,4.85648921 3.10132209,3.55089209 1.44048665,1.84802878 L1.44048665,7.18582494 C1.44048665,7.43352278 1.2478031,7.63426619 1.0101069,7.63426619 C0.7724107,7.63426619 0.579727155,7.43352278 0.579727155,7.18582494 L0.579727155,1.6533789 C0.579727155,0.90746283 1.15998032,0.302805755 1.87587905,0.302805755 L13.2835753,0.302805755 C13.999474,0.302805755 14.5797272,0.907410072 14.5797272,1.6533789 L14.5797272,9.95220624 C14.5797272,10.6982014 13.999474,11.3028058 13.2835753,11.3028058 L1.87587905,11.3028058 C1.15998032,11.3028058 0.579727155,10.6982014 0.579727155,9.95223261 L0.579727155,9.25501199 C0.579727155,9.00734053 0.7724107,8.80657074 1.0101069,8.80657074 C1.2478031,8.80657074 1.44048665,9.00734053 1.44048665,9.25501199 L1.44048665,9.74539568 L5.26073981,5.76482014 Z M13.0808411,1.19968825 L2.03537273,1.19968825 L7.35643602,6.65576739 C7.48459339,6.7669165 7.67057771,6.76710498 7.79894235,6.65621583 L13.0808411,1.19968825 Z" id="Shape"></path>
            </g>
        </g>
    </g>
</svg>