<?xml version="1.0" encoding="UTF-8"?>
<svg width="14px" height="14px" viewBox="0 0 14 14" version="1.1" xmlns="http://www.w3.org/2000/svg" xmlns:xlink="http://www.w3.org/1999/xlink">
    <!-- Generator: Sketch 49.1 (51147) - http://www.bohemiancoding.com/sketch -->
    <title>密保问题-dis</title>
    <desc>Created with Sketch.</desc>
    <defs></defs>
    <g id="Page-1" stroke="none" stroke-width="1" fill="none" fill-rule="evenodd">
        <g id="问题反馈-2" fill-rule="nonzero">
            <path d="M8.56345,5.6 L8.56835,5.6 C8.56835,5.6 8.54105,6.31855 8.3195,6.47745 C7.7056,6.91845 7.48545,7.74795 7.51835,8.87285 C7.52745,9.41255 7.51835,9.8 7.51835,9.8 L6.46835,9.8 L6.46835,8.862 C6.4575,8.06505 6.7746,6.95555 7.54285,6.412 C7.75105558,6.19381515 7.86756895,5.90403512 7.86835,5.60245 L7.8638,5.60245 C7.8638,5.57725 7.8715,5.5531 7.8715,5.5272 C7.8715,4.75400135 7.24469865,4.1272 6.4715,4.1272 C5.69830135,4.1272 5.0715,4.75400135 5.0715,5.5272 C5.0715,5.5167 4.3715,5.53105 4.3715,5.5272 C4.37150002,4.36740204 5.31170204,3.42720004 6.4715,3.42720004 C7.63129796,3.42720004 8.57149998,4.36740204 8.5715,5.5272 C8.57115,5.5503 8.56485,5.57375 8.56345,5.6 Z M7.532,11.55 L6.482,11.55 L6.482,10.85 L7.532,10.85 L7.532,11.55 Z M6.59645,14 C4.83252375,13.9987231 3.14390384,13.2849818 1.9138,12.02075 C1.88867647,12.0029724 1.86627489,11.981632 1.8473,11.9574 L1.84345,11.9539 C1.79891011,11.8975272 1.77429517,11.82799 1.77345,11.75615 C1.7728689,11.573231 1.92058171,11.4244217 2.1035,11.42365 C2.21191925,11.4253251 2.31230095,11.4811657 2.3709,11.5724 L2.38245,11.564 C3.49163247,12.6977592 5.01105573,13.3364671 6.59715,13.3357 C9.21090831,13.3612227 11.5398985,11.6902627 12.3530368,9.20607466 C13.166175,6.72188664 12.2759897,3.99720813 10.153025,2.47228033 C8.03006029,0.947352536 5.16377247,0.973752406 3.06925616,2.53752521 C0.974739861,4.101298 0.134892483,6.84191094 0.99365,9.3107 C1.04284323,9.39825701 1.05251343,9.50259335 1.02025,9.5977 C0.997988485,9.68259307 0.942832413,9.75512409 0.866974291,9.79925972 C0.791116169,9.84339535 0.700803386,9.85550077 0.616,9.8329 C0.5449821,9.81213194 0.483220912,9.76766388 0.441,9.7069 L0.4375,9.70935 C0.4375,9.70585 0.4354,9.70235 0.434,9.69885 C0.398862554,9.64795448 0.378952129,9.5881018 0.3766,9.5263 C0.129558896,8.82721085 0.0022386407,8.09145123 0,7.35 C0,3.67745 3.3033,0.35 6.94645,0.35 C8.70339313,0.356577614 10.385736,1.06095531 11.6232571,2.30812563 C12.8607783,3.55529594 13.5520684,5.24305878 13.545,7 C13.545,10.67255 10.23995,14 6.59645,14 Z M1.3755,10.38625 C1.51391263,10.4335936 1.60982726,10.5600957 1.61805,10.70615 C1.61424041,10.8793979 1.47968062,11.0215257 1.3069,11.0348 C1.8627,11.0019 0.8134,11.21575 0.9716,10.6211 C0.993691908,10.5361947 1.04878028,10.4636297 1.12462352,10.4195302 C1.20046676,10.3754307 1.29078214,10.3634499 1.3755,10.38625 Z" id="Shape" fill="#9B9B9B"></path>
            <path d="M7,13.9999999 C5.13099575,14.0002299 3.34024623,13.2496284 2.03,11.9168 C2.00355621,11.8980195 1.97997726,11.8755016 1.96,11.84995 L1.9558,11.84645 C1.90771958,11.7869085 1.88097923,11.7129721 1.87985,11.63645 C1.87985,11.4431503 2.03655034,11.28645 2.22985,11.28645 C2.344643,11.287976 2.45111148,11.3466584 2.5137,11.4429 L2.52595,11.4338 C4.79901229,13.742631 8.44462363,13.9730703 10.9903152,11.968833 C13.5360068,9.96459563 14.1675629,6.36671833 12.4566595,3.61529642 C10.7457561,0.863874508 7.2396098,-0.161075324 4.31610356,1.23557217 C1.39259731,2.63221966 -0.0132125796,6.00375977 1.0521,9.06359997 C1.10447281,9.15554496 1.11479918,9.26556537 1.08045,9.36564996 C1.05641788,9.45532577 0.997741305,9.53177931 0.917332162,9.57818688 C0.836923018,9.62459444 0.741370103,9.63715334 0.6517,9.61309996 C0.576406212,9.59143175 0.510812313,9.54461426 0.46585,9.48044996 L0.462,9.48324996 C0.462,9.47974996 0.4599,9.47589996 0.4585,9.47204996 C0.421252903,9.41856652 0.400118144,9.35552664 0.3976,9.29039996 C0.136168585,8.55499742 0.00171815804,7.78048722 0,6.99999997 C-4.73447626e-16,3.13400674 3.13400675,-3.40350342e-13 7,-3.41060513e-13 C10.8659932,-3.41770685e-13 14,3.13400674 14,6.99999997 C14,10.8659932 10.8659932,13.9999999 7,13.9999999 Z M1.4595,10.19585 C1.6060236,10.2452149 1.70793345,10.3785561 1.7171,10.5329 C1.71186244,10.7158071 1.56917903,10.865141 1.3867,10.8787 C1.9768,10.8437 0.8617,11.0691 1.03075,10.4433 C1.05478212,10.3536242 1.11345869,10.2771706 1.19386784,10.2307631 C1.27427698,10.1843555 1.3698299,10.1717966 1.4595,10.19585 Z M9.09265,5.11 L9.0972,5.11 C9.0972,5.11 9.0699,5.82855 8.84835,5.98745 C8.08919187,6.54399604 7.6574586,7.44237928 7.6972,8.38285 C7.70665,8.92255 7.6972,9.31 7.6972,9.31 L6.9972,9.31 L6.9972,8.372 C6.98635,7.57505 7.3038,6.46555 8.0717,5.922 C8.27990558,5.70381515 8.39641895,5.41403512 8.3972,5.11245 L8.393,5.11245 C8.393,5.08725 8.40035,5.0631 8.40035,5.0372 C8.40035,4.26400135 7.77354865,3.6372 7.00035,3.6372 C6.22715135,3.6372 5.60035,4.26400135 5.60035,5.0372 C5.60035,5.0267 4.90035,5.04105 4.90035,5.0372 C4.90035,3.87740203 5.84055203,2.9372 7.00035,2.9372 C8.16014797,2.9372 9.10035,3.87740203 9.10035,5.0372 C9.1,5.06205 9.0937,5.0855 9.09265,5.11 Z M7.71085,11.06245 L7.01085,11.06245 L7.01085,10.36245 L7.71085,10.36245 L7.71085,11.06245 Z" id="Shape" fill-opacity="0.285835598" fill="#000000"></path>
        </g>
    </g>
</svg>