<?xml version="1.0" encoding="UTF-8"?>
<svg width="36px" height="36px" viewBox="0 0 36 36" version="1.1" xmlns="http://www.w3.org/2000/svg" xmlns:xlink="http://www.w3.org/1999/xlink">
    <!-- Generator: Sketch 49.1 (51147) - http://www.bohemiancoding.com/sketch -->
    <title>Group 36</title>
    <desc>Created with Sketch.</desc>
    <defs></defs>
    <g id="Page-1" stroke="none" stroke-width="1" fill="none" fill-rule="evenodd">
        <g id="Group-36">
            <rect id="Rectangle-23" fill-opacity="0" fill="#FFFFFF" x="0" y="0" width="36" height="36"></rect>
            <g id="check-circle" fill="#36C626">
                <path d="M18.0001099,0 C8.05777839,0 0,8.05777839 0,18.0001099 C0,27.9422216 8.05777839,36 18.0001099,36 C27.9422216,36 36,27.9422216 36,18.0001099 C36,8.05777839 27.9422216,0 18.0001099,0 Z M27.151205,12.5297467 L14.5124298,25.2105776 L14.4985431,25.2246402 C14.4140801,25.3159586 14.3121268,25.3969939 14.1996707,25.4601434 C14.0027954,25.5727754 13.7847825,25.6254659 13.5738007,25.6254659 C13.1343471,25.6254659 12.7055282,25.3969939 12.4734527,24.9855334 L8.64488848,18.2917313 C8.29692907,17.6835274 8.50791078,16.9102208 9.1160707,16.5656892 C9.72427457,16.217554 10.4976251,16.4285357 10.8421568,17.0367395 L13.8445042,22.2926493 L25.3581901,10.7437631 C25.8503343,10.2480154 26.6519857,10.2480154 27.1477773,10.7401596 C27.6433492,11.2359512 27.6433492,12.0376026 27.151205,12.5297467 Z" id="Fill-1"></path>
            </g>
        </g>
    </g>
</svg>