<?xml version="1.0" encoding="UTF-8"?>
<svg width="14px" height="15px" viewBox="0 0 14 15" version="1.1" xmlns="http://www.w3.org/2000/svg" xmlns:xlink="http://www.w3.org/1999/xlink">
    <!-- Generator: Sketch 49.1 (51147) - http://www.bohemiancoding.com/sketch -->
    <title>人工服务-dis</title>
    <desc>Created with Sketch.</desc>
    <defs></defs>
    <g id="Page-1" stroke="none" stroke-width="1" fill="none" fill-rule="evenodd" fill-opacity="0.285835598">
        <g id="客服-2" fill="#000000" fill-rule="nonzero">
            <path d="M11.886711,7.28120023 C11.6708389,7.2897246 11.4574602,7.23259832 11.274787,7.11737436 C11.36444,6.6934765 11.3914182,6.25874118 11.3548616,5.82702738 C11.354239,5.49514542 11.3177789,5.16429891 11.246114,4.8402298 C11.2467554,4.83935029 11.2475935,4.83863261 11.2485617,4.83813396 L11.2454147,4.83813396 C10.8406287,2.74623209 9.00736262,1.23513352 6.87452898,1.2353622 C5.9902683,1.20562839 5.11770319,1.44394108 4.37158502,1.91895968 C4.32522525,1.89490442 4.27185095,1.88797666 4.22087687,1.89939838 C4.13763153,1.89971641 4.05809555,1.86502246 4.00174487,1.803812 C3.94539419,1.74260155 3.9174321,1.66052663 3.92470567,1.5776849 C3.92562624,1.47247556 3.97782254,1.37431775 4.06457401,1.31465532 L4.05932894,1.30766914 C5.51494102,0.331923052 7.36086245,0.142808977 8.98443294,0.803093778 C10.6080034,1.46337858 11.7968171,2.88667956 12.1563072,4.60060391 C12.6552517,4.82342838 12.9602164,5.33541757 12.91824,5.87977301 C12.9178904,6.60738341 12.4328969,7.28120022 11.886711,7.28120023 Z M6.92138488,2.15369525 C8.25494751,2.15355396 9.45727762,2.95593238 9.96770795,4.18666764 C10.4781383,5.4174029 10.1961433,6.83411063 9.25322212,7.77615561 C8.31030094,8.71820059 6.89215504,9.00005392 5.66009027,8.49028252 C4.42802551,7.98051113 3.62468808,6.77951078 3.62468808,5.44732864 C3.62449493,3.62863445 5.10010673,2.15408105 6.92068555,2.15369525 L6.92138488,2.15369525 Z M6.54234168,8.00706407 C7.22316614,8.02000706 7.87952223,7.75349744 8.35824142,7.26972844 C8.83696061,6.78595943 9.09616182,6.12725389 9.07535735,5.44732864 C9.1052839,4.77893502 8.85407688,4.12848822 8.38251849,3.65337076 C7.91096009,3.17825329 7.26201207,2.92175116 6.59269429,2.94592777 C5.1359655,2.94592777 4.28486665,3.99385439 4.28486665,5.44732864 C4.28486665,6.90080288 5.08491357,8.00706409 6.54164234,8.00706407 L6.54234168,8.00706407 Z M3.48027401,2.70036364 C2.98999162,3.27412478 2.64858226,3.95959562 2.48615977,4.69631455 L2.46517953,4.69631455 C2.47147361,4.70015694 2.47601933,4.70714313 2.48231339,4.71133483 C2.31743458,5.46570112 2.34666836,6.24950909 2.56728341,6.98952732 C2.42161638,7.11998824 2.23383607,7.19375798 2.03823141,7.1973661 C1.49204553,7.1973661 1.04901256,6.60738341 1.04901256,5.87977301 C1.00392558,5.32578637 1.32075243,4.80571317 1.83402363,4.59117258 C2.01611167,3.73433646 2.40990966,2.93662828 2.97954534,2.27071371 C3.04012318,2.19162774 3.1337277,2.14474513 3.23340639,2.14356529 C3.41551654,2.14356529 3.563146,2.29104191 3.56314601,2.47296355 C3.56261805,2.55551334 3.53075067,2.6347872 3.47397993,2.6947747 L3.48027401,2.70036364 Z M2.58581596,8.93098604 C2.60504785,8.90199341 3.08934199,8.62603939 3.08934199,8.62603941 C3.94177861,9.92417927 5.3913855,10.7061211 6.94551217,10.7061211 C8.49963883,10.7061211 9.94924572,9.92417927 10.8016823,8.62603941 C10.8016823,8.62603941 11.3097541,9.03228562 11.3076561,9.04136765 C12.6741698,10.2482298 13.5882094,11.5979593 13.5882094,13.5631711 C13.5882094,13.5631711 3.63342984,13.5890199 6.84830367,13.5890199 C6.66677287,13.5919137 6.51726479,13.4472521 6.51436803,13.2659092 C6.51147126,13.0845663 6.65628275,12.935213 6.83781355,12.9323192 L6.83781355,12.9159017 L12.3895377,12.9127579 C12.2262414,11.4219077 11.9590929,10.9702513 10.8985412,10.0201311 C9.93205093,11.1197555 8.41937482,11.401997 6.83921223,11.401997 C5.25904964,11.401997 3.90442476,10.3778234 2.93758485,9.27819907 C1.8797064,10.2103141 1.22012929,11.5123493 1.09481944,12.9159017 L1.91759496,12.9159017 L1.91759496,12.9323192 C1.49204553,12.9462916 2.2578247,12.8037736 2.2578247,13.2596216 C2.2578247,13.4415433 2.11019525,13.5890199 1.92808509,13.5890199 C2.53686205,13.5890199 0.400023465,13.5631711 0.400023451,13.5631711 C0.399324104,11.5979593 1.21860291,10.1381975 2.58511663,8.93098604 L2.58581596,8.93098604 Z M3.23655343,12.9323192 L3.23655343,12.9159017 L5.51885509,12.9159017 L5.51885509,12.9323192 C5.52270146,12.9323192 5.52549883,12.9302234 5.52934522,12.9302234 C5.71145538,12.9302234 5.85908484,13.0777 5.85908484,13.2596216 C5.85908484,13.4415433 5.71145538,13.5890199 5.52934522,13.5890199 L3.24704355,13.5890199 C3.06551274,13.5921066 2.91584809,13.4476014 2.91275821,13.2662585 C2.90966832,13.0849156 3.05432327,12.9354059 3.23585408,12.9323192 L3.23655343,12.9323192 Z" id="Shape"></path>
            <path d="M12.2276401,7.20924259 C12.0270476,7.20489221 11.8342584,7.13077177 11.6825032,6.99965728 C11.9209,6.20670316 11.9518398,5.36593861 11.7723686,4.55763893 L11.7748163,4.55554307 L11.7716693,4.55554307 C11.4271212,2.98033299 10.3265317,1.67649922 8.83051654,1.07125181 C7.33450137,0.466004406 5.63585881,0.637344363 4.29116072,1.52913097 C4.23641778,1.58094507 4.16151829,1.60588572 4.08660326,1.5972462 C3.99386479,1.5972462 3.90492464,1.56044412 3.83934863,1.494936 C3.77377263,1.42942788 3.73693241,1.34057979 3.73693242,1.24793732 C3.73834784,1.13601541 3.79417362,1.03177619 3.88659155,0.968490217 L3.88134648,0.961154739 C5.42520779,-0.0736349888 7.38299432,-0.274082651 9.10488385,0.426343698 C10.8267734,1.12677005 12.0874835,2.63643054 12.4685633,4.45424349 C12.9976189,4.69072485 13.3209992,5.23365381 13.2766527,5.81095917 C13.2766527,6.58258248 12.8070447,7.20924261 12.2276401,7.20924259 Z M6.91648949,1.85992648 C8.84766829,1.85992648 10.413198,3.42383558 10.413198,5.35301523 C10.413198,7.28219488 8.84766829,8.84610399 6.91648949,8.84610399 C4.98531069,8.84610399 3.41978096,7.28219488 3.41978096,5.35301523 C3.41978096,3.42383558 4.98531069,1.85992648 6.91648949,1.85992648 Z M6.91648949,8.14748625 C8.46143253,8.14748624 9.71385631,6.89635895 9.7138563,5.35301524 C9.7138563,3.80967153 8.46143252,2.55854425 6.91648948,2.55854425 C5.37154645,2.55854424 4.11912266,3.80967152 4.11912265,5.35301523 C4.11912265,6.09415503 4.41384438,6.80493967 4.93845243,7.32900464 C5.46306047,7.85306961 6.17458168,8.14748625 6.91648949,8.14748625 Z M3.26697479,2.4397792 C2.74689836,3.04825332 2.3847127,3.77523376 2.2123675,4.556591 L2.18998856,4.556591 C2.19663231,4.56078271 2.20187738,4.56811819 2.20852111,4.5726592 C2.03334548,5.37267154 2.06426566,6.20400796 2.29838653,6.9888287 C2.14440127,7.12696498 1.945834,7.20519388 1.73891316,7.20924259 C1.15950855,7.20924259 0.689900603,6.58363039 0.689900589,5.8120071 C0.689900589,5.1392382 1.04691453,4.57824814 1.52211723,4.44516146 C1.71549115,3.53651461 2.13318936,2.69057573 2.73722345,1.98428043 C2.80143443,1.90035796 2.90073809,1.8506287 3.00647,1.8494472 C3.14535129,1.84855533 3.27140468,1.93042129 3.3269483,2.05758333 C3.38249193,2.18474538 3.35683957,2.33273838 3.26172972,2.43384096 L3.26697479,2.4397792 Z M2.36832069,8.73013345 C2.37706247,8.71720901 2.47636899,8.63442281 2.58651531,8.54465043 C2.58651531,8.54709559 2.59036168,8.54919145 2.59245971,8.55163661 C2.66008123,8.50132771 2.74057933,8.47117217 2.82464116,8.4646587 C2.93719241,8.47610598 3.04368563,8.52114225 3.13025349,8.59390299 C4.05309652,9.79479025 5.48312482,10.497875 6.9986299,10.4958209 C8.51413499,10.4937668 9.94224817,9.78680817 10.8618257,8.58342372 L10.8716165,8.58726612 C10.9961644,8.43357713 11.2213342,8.40865339 11.3765412,8.5313767 C11.3773376,8.5306651 11.3785422,8.5306651 11.3793386,8.5313767 C11.4216488,8.54919145 11.6192128,8.74096201 11.6185135,8.73048275 C13.1241453,10.0525282 13.9870538,11.9581761 13.9868342,13.9606846 C13.9868342,13.9606846 8.68512467,13.9743076 6.8108889,13.9823417 C6.62515722,13.9708038 6.48178775,13.8146463 6.48630226,13.6288032 C6.49081678,13.4429601 6.64159981,13.2939334 6.8276731,13.2914088 L6.8276731,13.2742926 L13.2500777,13.2742926 C13.0796875,11.7356802 12.3457489,10.3143609 11.1894673,9.28378801 C10.1335233,10.4972828 8.60296384,11.1940873 6.99341708,11.1940873 C5.38387031,11.1940873 3.85331081,10.4972828 2.79736682,9.28378801 C1.64095565,10.3143046 0.906888926,11.7356309 0.736406819,13.2742926 L1.61058395,13.2742926 L1.61058395,13.2893129 C1.47071561,13.2683544 1.39064098,13.3001415 1.61058395,13.292806 L1.61058395,13.2893129 C1.80428342,13.2924121 1.96224414,13.4453164 1.97144427,13.6386218 C1.96955901,13.8221507 1.82581332,13.9729198 1.64240399,13.9837389 C1.28049467,13.9760541 0.00104899896,13.9606846 0.00104901347,13.9606846 C0.000463668303,11.9582196 0.862986718,10.0524515 2.36832069,8.73013345 Z M6.80914054,13.9823417 C6.81893133,13.9823417 6.82697375,14.0209054 6.83676454,14.0209053 C5.84614701,14.0209053 6.04126335,14.0040337 6.8108889,13.9823417 L6.80914054,13.9823417 Z M1.62072441,14.0126616 C1.6280675,14.0126616 1.6340119,13.9861491 1.64135499,13.9837389 C1.7612921,14.0126617 1.78087367,14.0126617 1.62072441,14.0126616 Z M3.00821836,13.2914088 L3.00821836,13.2742926 L5.42898968,13.2742926 L5.42898968,13.2914088 C5.43283605,13.2914088 5.43598309,13.2893129 5.43982948,13.2893129 C5.63294735,13.2893129 5.7895003,13.4457038 5.7895003,13.6386218 C5.7895003,13.8315397 5.63294735,13.9879306 5.43982948,13.9879306 L3.01940783,13.9879306 C2.83682356,13.9773548 2.6932415,13.8280113 2.69003177,13.6453378 C2.68682205,13.4626644 2.82506909,13.3083791 3.00716935,13.2914088 L3.00821836,13.2914088 Z" id="Shape"></path>
        </g>
    </g>
</svg>