<?xml version="1.0" encoding="UTF-8"?>
<svg width="14px" height="13px" viewBox="0 0 14 13" version="1.1" xmlns="http://www.w3.org/2000/svg" xmlns:xlink="http://www.w3.org/1999/xlink">
    <!-- Generator: Sketch 43.1 (39012) - http://www.bohemiancoding.com/sketch -->
    <title>top_icon_fhsy</title>
    <desc>Created with Sketch.</desc>
    <defs></defs>
    <g id="Page-1" stroke="none" stroke-width="1" fill="none" fill-rule="evenodd">
        <g id="代理中心" transform="translate(-222.000000, -10.000000)" fill-rule="nonzero" fill="#FFF25D">
            <g id="top" transform="translate(-1.000000, -2.000000)">
                <g id="0" transform="translate(223.000000, 12.000000)">
                    <path d="M12.0550113,4.19428961 L12.0550113,4.19428961 L13.8087812,5.87399464 C14.060345,6.11448868 14.0639974,6.5126502 13.8179442,6.75798352 L13.2561707,7.31684706 C13.0100534,7.5622123 12.5948386,7.57620307 12.3328624,7.34666526 L7.45271085,3.0716913 C7.19075067,2.84156256 6.76265652,2.84277636 6.50194584,3.07351201 L1.66209831,7.34486051 C1.40073086,7.57556421 0.985500036,7.56219634 0.73941478,7.31683109 L0.178250044,6.75796753 C-0.067210467,6.51261826 -0.0586722798,6.12054174 0.200836965,5.88736251 L6.52880986,0.173736563 C6.78769436,-0.0594267142 7.20843574,-0.0576059981 7.46549408,0.177409928 L9.00310242,1.58435914 C9.25897533,1.81873622 9.46961034,1.7329071 9.46961034,1.39195434 C9.46961034,1.05164041 9.75475014,0.773406482 10.1028289,0.773406482 L10.9638069,0.773406482 C11.3124784,0.773406466 11.598259,1.05772542 11.598259,1.40535414 L11.598259,3.12521072 C11.598259,3.47285542 11.8028228,3.95381156 12.0550113,4.19428961 Z M2.19088846,7.80751367 L6.49766874,4.0913873 C6.76083036,3.86429308 7.19073466,3.86489997 7.45391229,4.09381491 L11.808878,7.89394969 C12.0708382,8.12288061 12.2857823,8.59411029 12.2857823,8.94170706 L12.2857823,12.3680683 C12.2857823,12.715681 12.0006585,13 11.651939,13 L9.22406974,13 C8.87600695,13 8.59025843,12.715729 8.59025843,12.3680683 L8.59025843,9.88418239 C8.59025844,9.53656965 8.30572737,9.25226666 7.95703985,9.25226666 L6.03966696,9.25226666 C5.69101148,9.25226666 5.40643235,9.5365377 5.40643235,9.88418239 L5.40643235,12.3680683 C5.40643235,12.715681 5.12068383,13 4.77201232,13 L2.34536055,13 C1.99670505,13 1.71094052,12.715729 1.71094052,12.3680683 L1.71094052,8.85223651 C1.71094052,8.50521468 1.92649338,8.03462385 2.19088846,7.80751367 Z" id="top_icon_fhsy"></path>
                </g>
            </g>
        </g>
    </g>
</svg>