<?xml version="1.0" encoding="UTF-8"?>
<svg width="10px" height="6px" viewBox="0 0 10 6" version="1.1" xmlns="http://www.w3.org/2000/svg" xmlns:xlink="http://www.w3.org/1999/xlink">
    <!-- Generator: Sketch 43.1 (39012) - http://www.bohemiancoding.com/sketch -->
    <title>top_icon_xl</title>
    <desc>Created with Sketch.</desc>
    <defs></defs>
    <g id="index" stroke="none" stroke-width="1" fill="none" fill-rule="evenodd">
        <g id="新首页（2018尊享版)-" transform="translate(-846.000000, -14.000000)" fill-rule="nonzero" fill="#E8E8E8">
            <g id="top" transform="translate(0.000000, -2.000000)">
                <g id="1" transform="translate(784.000000, 8.000000)">
                    <path d="M62.9655396,8.18758162 L66.9464408,12.6949307 C66.9641487,12.7149803 66.985351,12.7191814 66.9999865,12.7191814 C67.0146024,12.7191814 67.0358243,12.7149692 67.0535322,12.6949307 L71.0344334,8.18758162 C71.2552908,7.93750614 71.6134529,7.93750614 71.8343201,8.18758162 C72.0552266,8.43764599 72.0552266,8.84317259 71.8343201,9.09324808 L67.8534189,13.6005972 C67.6259554,13.8581413 67.3228703,14 66.9999865,14 C66.6771028,14 66.373998,13.8581413 66.1465541,13.6005972 L62.1656431,9.09324808 C61.9447856,8.84318371 61.9447856,8.4376571 62.1656431,8.18758162 C62.2760816,8.06253832 62.4208561,8 62.5656404,8 C62.7103266,8 62.8550913,8.06254943 62.9655396,8.18758162 Z" id="top_icon_xl"></path>
                </g>
            </g>
        </g>
    </g>
</svg>