<?xml version="1.0" encoding="UTF-8"?>
<svg width="18px" height="18px" viewBox="0 0 18 18" version="1.1" xmlns="http://www.w3.org/2000/svg" xmlns:xlink="http://www.w3.org/1999/xlink">
    <!-- Generator: Sketch 43.1 (39012) - http://www.bohemiancoding.com/sketch -->
    <title>top_icon_xz</title>
    <desc>Created with Sketch.</desc>
    <defs></defs>
    <g id="index" stroke="none" stroke-width="1" fill="none" fill-rule="evenodd">
        <g id="新首页（2018尊享版)-" transform="translate(-1399.000000, -8.000000)">
            <g id="top" transform="translate(0.000000, -2.000000)">
                <g id="Group-19" transform="translate(1399.000000, 10.000000)">
                    <g id="top_icon_xz">
                        <circle id="Oval-4" stroke="#FFFFFF" cx="9" cy="9" r="8.5"></circle>
                        <path d="M13.755388,10.6498641 L9.37028921,13.8746055 C9.3688637,13.875647 9.36732853,13.8763761 9.36579336,13.8773134 C9.31330847,13.9153265 9.25483819,13.9452376 9.19253864,13.9659435 C9.18892003,13.9671933 9.18530142,13.9685472 9.18157316,13.9696929 C9.14706849,13.9803302 9.11166626,13.9881352 9.07575619,13.9930221 C9.04552855,13.9974603 9.01499959,13.9997925 8.98441368,14 L8.98408471,14 C8.95361299,13.9997754 8.92319732,13.9974783 8.89307116,13.9931262 L8.87475879,13.9905225 C8.84541571,13.9856979 8.81646793,13.9789114 8.78813144,13.9702136 L8.7748632,13.9656311 C8.74730163,13.9564806 8.72044434,13.9455185 8.69448617,13.9328244 C8.69185445,13.9314705 8.68922273,13.9305331 8.68648136,13.9291792 C8.65921291,13.9151001 8.63308009,13.8991217 8.60829743,13.8813752 C8.6054464,13.8792922 8.60226641,13.8780424 8.59952504,13.8759595 L4.24633585,10.6972515 C3.97015171,10.4955125 3.91841027,10.1193395 4.13075961,9.85698366 C4.34370939,9.59525917 4.74000214,9.54589291 5.01556486,9.74710728 L8.35324017,12.184384 L8.35324017,4.59916473 C8.35336121,4.26830282 8.63572904,4.00011496 8.98408471,4 C9.33245815,4.00011492 9.61485736,4.26828597 9.61503891,4.59916473 L9.61503891,12.1789683 L12.98265,9.70253184 C13.25909,9.50027599 13.6549441,9.54818418 13.8678939,9.80949207 C13.9703522,9.93508613 14.0160622,10.0942037 13.9949615,10.2518173 C13.9738608,10.409431 13.887679,10.5526202 13.755388,10.6498641 L13.755388,10.6498641 Z" id="Shape" fill="#FFFFFF" fill-rule="nonzero"></path>
                    </g>
                </g>
            </g>
        </g>
    </g>
</svg>