<?xml version="1.0" standalone="no"?>
<!DOCTYPE svg PUBLIC "-//W3C//DTD SVG 1.1//EN" "http://www.w3.org/Graphics/SVG/1.1/DTD/svg11.dtd" >
<svg>
<metadata>
Created by FontForge 20090622 at Thu Nov 12 03:41:02 2015
 By deploy user
Typeface ?(your company). 2015. All Rights Reserved
</metadata>
<defs>
<font id="sobet" horiz-adv-x="924" >
  <font-face 
    font-family="sobet"
    font-weight="400"
    font-stretch="normal"
    units-per-em="2048"
    panose-1="2 0 5 0 0 0 0 0 0 0"
    ascent="1638"
    descent="-410"
    bbox="-320 -418 2592 1946"
    underline-thickness="150"
    underline-position="-142"
    unicode-range="U+0020-U+55D7"
  />
<missing-glyph horiz-adv-x="1024" 
d="M100 0v1434h824v-1434h-824zM150 50h724v1334h-724v-1334zM325 1148q31 28 58 43q53 30 112 30q92 0 148 -47.5t56 -127.5q0 -49 -23 -98.5t-87 -129.5q-63 -80 -99 -132t-36 -99q0 -38 24 -133h-32q-35 97 -35 148q0 76 81.5 218t81.5 217q0 57 -33 90t-91 33
q-38 0 -69 -17q-26 -15 -56 -40v45zM389 334l57 58q11 10 20 10q10 0 22 -11l56 -60q9 -11 9 -20q0 -11 -10 -22l-56 -62q-14 -14 -21 -14q-11 0 -20 10l-61 71q-7 9 -7 18q0 10 11 22z" />
    <glyph glyph-name=".notdef" horiz-adv-x="1024" 
d="M100 0v1434h824v-1434h-824zM150 50h724v1334h-724v-1334zM325 1148q31 28 58 43q53 30 112 30q92 0 148 -47.5t56 -127.5q0 -49 -23 -98.5t-87 -129.5q-63 -80 -99 -132t-36 -99q0 -38 24 -133h-32q-35 97 -35 148q0 76 81.5 218t81.5 217q0 57 -33 90t-91 33
q-38 0 -69 -17q-26 -15 -56 -40v45zM389 334l57 58q11 10 20 10q10 0 22 -11l56 -60q9 -11 9 -20q0 -11 -10 -22l-56 -62q-14 -14 -21 -14q-11 0 -20 10l-61 71q-7 9 -7 18q0 10 11 22z" />
    <glyph glyph-name=".null" horiz-adv-x="0" 
 />
    <glyph glyph-name="nonmarkingreturn" horiz-adv-x="508" 
 />
    <glyph glyph-name="space" unicode=" " horiz-adv-x="508" 
 />
    <glyph glyph-name="space" unicode="&#xa0;" horiz-adv-x="508" 
 />
    <glyph glyph-name="exclam" unicode="!" horiz-adv-x="672" 
d="M313 328l-49 1036q0 46 21 69t62 23q42 0 62.5 -23t20.5 -69l-80 -1036h-37zM223 167l82 84q15 14 29 14q13 0 31 -16l80 -86q12 -16 12 -29q0 -15 -14 -31l-80 -88q-20 -20 -29 -20q-16 0 -29 14l-88 101q-10 13 -10 26q0 15 16 31z" />
    <glyph glyph-name="quotedbl" unicode="&#x22;" horiz-adv-x="672" 
d="M197 1108h-30l-62 359q-4 23 -4 33q0 37 20.5 57t59.5 20t60.5 -19.5t21.5 -56.5q0 -8 -4 -34zM509 1108h-30l-62 359q-4 23 -4 33q0 37 20.5 57t59.5 20t60.5 -19.5t21.5 -56.5q0 -8 -4 -34z" />
    <glyph glyph-name="numbersign" unicode="#" horiz-adv-x="1336" 
d="M596 859l-85 -290h242l86 290h-243zM673 1434h93l-141 -477h242l142 477h92l-141 -477h259l-29 -97h-259l-83 -290h279l-30 -98h-280l-140 -472h-92l139 472h-240l-142 -472h-92l140 472h-273l30 98h271l86 290h-295l29 97h295z" />
    <glyph glyph-name="dollar" unicode="$" horiz-adv-x="1014" 
d="M577 1552v-102q68 -8 141 -35q10 -6 19 -6q25 0 41 45h50l103 -282h-49q-60 134 -168 179q-74 30 -137 39v-540q241 -93 322.5 -183t81.5 -264q0 -197 -119.5 -300t-284.5 -120v-239h-73v237q-188 3 -266 38q-10 6 -19 6q-25 0 -41 -45h-50v331h49q50 -183 152.5 -226
t174.5 -43v635q-214 67 -299 153q-92 91 -92 249q0 166 125 271q105 88 266 102v100h73zM577 655v-610q125 17 211.5 96t86.5 219q0 116 -69 183q-62 59 -229 112zM504 873v520q-119 -5 -199 -72q-86 -73 -86 -182q0 -98 55 -153q52 -54 230 -113z" />
    <glyph glyph-name="percent" unicode="%" horiz-adv-x="1610" 
d="M449 1459q98 0 190.5 -49t144.5 -139.5t52 -190.5q0 -99 -50.5 -188.5t-143 -140t-193.5 -50.5q-100 0 -192.5 50.5t-143.5 140t-51 188.5q0 100 52 190.5t144.5 139.5t190.5 49zM206 1066q13 -92 55.5 -173.5t106.5 -124.5q57 -40 114 -40q7 0 13 1q63 3 115 53t73 136
q13 54 13 111q0 32 -4 65q-12 93 -56 175.5t-107 124.5q-58 38 -115 38h-11q-61 -3 -113 -52t-73 -135q-15 -58 -15 -117q0 -31 4 -62zM297 -29l940 1461h84l-938 -1461h-86zM1161 738q97 0 190 -49.5t145 -140t52 -189.5q0 -100 -50.5 -189.5t-143 -139.5t-193.5 -50
t-193 50t-143 139.5t-51 189.5q0 99 52 189.5t144.5 140t190.5 49.5zM918 344q13 -92 55.5 -173.5t106.5 -124.5q59 -39 116 -39h11q63 3 115 53t73 136q13 54 13 111q0 32 -4 65q-12 93 -56 175.5t-107 124.5q-58 38 -115 38h-11q-61 -3 -113 -52t-73 -135
q-15 -58 -15 -117q0 -31 4 -62z" />
    <glyph glyph-name="ampersand" unicode="&#x26;" horiz-adv-x="1683" 
d="M1051 196l-554 683q-118 0 -179.5 -86t-61.5 -204q0 -91 35.5 -181.5t101.5 -164.5q72 -83 165 -127t194 -44q88 0 169 33.5t130 90.5zM1394 0q-56 0 -139 25t-167 132q-67 -74 -175 -123.5t-241 -49.5q-229 0 -374.5 150.5t-145.5 385.5q0 161 76 266.5t225 151.5
q-42 61 -62.5 116t-20.5 111q0 105 77 197t182 92q68 0 142 -39q9 -6 18 -6q23 0 38 45h46l96 -281h-46q-55 133 -155 178q-85 37 -141 37q-65 0 -106 -45.5t-41 -117.5q0 -131 102 -267l531 -670q98 146 121 244q17 78 17 130q0 97 -62 97h-90v50h443v-50h-90
q-95 0 -145 -227q-31 -132 -155 -292q109 -136 248 -136h16q143 17 192 128l49 -1l-103 -231h-160z" />
    <glyph glyph-name="quotesingle" unicode="'" horiz-adv-x="346" 
d="M197 1108h-30l-62 359q-4 23 -4 33q0 37 20.5 57t59.5 20t60.5 -19.5t21.5 -56.5q0 -8 -4 -34z" />
    <glyph glyph-name="parenleft" unicode="(" horiz-adv-x="758" 
d="M252 601q2 277 99.5 530t268.5 442h80q-172 -242 -230 -438q-57 -193 -57 -523v-22q0 -330 57 -522q58 -196 230 -438h-80q-171 189 -268.5 441.5t-99.5 529.5z" />
    <glyph glyph-name="parenright" unicode=")" horiz-adv-x="758" 
d="M138 -370h-80q172 242 230 438q57 192 57 522v22q0 330 -57 523q-58 196 -230 438h80q171 -189 268.5 -442t99.5 -530q-2 -277 -99.5 -529.5t-268.5 -441.5z" />
    <glyph glyph-name="asterisk" unicode="*" horiz-adv-x="1024" 
d="M498 1294q-4 71 -37 130q-37 66 -37 84q0 32 23.5 51.5t62.5 19.5q37 0 61.5 -18t24.5 -47q0 -21 -36 -89q-33 -61 -37 -130q66 25 113 75q51 55 69 61q11 3 21 3q18 0 35 -10q26 -17 38 -53q6 -19 6 -36q0 -15 -4 -28q-10 -30 -38 -38q-6 -2 -19 -2q-25 0 -76 9
q-28 5 -55 5q-41 0 -81 -11q44 -55 105 -83q68 -32 79 -47q13 -18 13 -38q0 -9 -2 -17q-8 -30 -39 -53q-29 -22 -59 -22q-1 0 -1 1q-31 0 -48 23q-12 17 -22 94q-10 67 -47 125q-38 -58 -46 -124q-9 -75 -20 -90q-19 -25 -49 -27h-5q-28 0 -57 21q-30 21 -39 51q-4 10 -4 20
q0 17 11 32q13 17 83 51q61 29 105 82q-41 11 -80 11q-27 0 -53 -5q-54 -11 -78 -11q-9 0 -14 2q-30 9 -41 38q-6 13 -6 29q0 17 6 36q11 35 36 53q17 12 34 12q9 0 18 -3q20 -6 74 -62q47 -49 112 -75z" />
    <glyph glyph-name="plus" unicode="+" horiz-adv-x="1014" 
d="M437 647h-350v140h350v369l1 1h139v-370h349l1 -1v-139h-350v-370h-140v370z" />
    <glyph glyph-name="comma" unicode="," horiz-adv-x="557" 
d="M238 258q44 0 88.5 -65.5t44.5 -151.5q0 -109 -71 -226.5t-139 -117.5v43q73 43 87 190q0 119 -129 161v42z" />
    <glyph glyph-name="hyphen" unicode="-" horiz-adv-x="670" 
d="M156 409q-40 0 -40 28v83q0 29 41 29h356q41 0 41 -29v-83q0 -28 -40 -28h-358z" />
    <glyph glyph-name="hyphen" unicode="&#xad;" horiz-adv-x="670" 
d="M156 409q-40 0 -40 28v83q0 29 41 29h356q41 0 41 -29v-83q0 -28 -40 -28h-358z" />
    <glyph glyph-name="period" unicode="." horiz-adv-x="557" 
d="M145 167l82 84q15 14 29 14q13 0 31 -16l80 -86q12 -16 12 -29q0 -15 -14 -31l-80 -88q-20 -20 -29 -20q-16 0 -29 14l-88 101q-10 13 -10 26q0 15 16 31z" />
    <glyph glyph-name="slash" unicode="/" horiz-adv-x="569" 
d="M93 -50h-80l541 1484h80z" />
    <glyph glyph-name="zero" unicode="0" horiz-adv-x="1014" 
d="M507 1459q108 0 211 -96t161 -274t58 -372t-56.5 -370t-159 -274t-214.5 -98t-214.5 98t-159 274t-56.5 370t57.5 372t160.5 274t212 96zM237 689q14 -180 61.5 -340t118.5 -244q65 -78 129 -78q6 0 12 1q70 7 127.5 104.5t81.5 265.5q15 107 15 220q0 62 -5 126
q-14 181 -62.5 343t-119.5 244q-65 76 -128 76q-6 0 -11 -1q-68 -7 -126 -102.5t-82 -264.5q-16 -110 -16 -225q0 -62 5 -125z" />
    <glyph glyph-name="one" unicode="1" horiz-adv-x="1014" 
d="M234 0v50h96q103 0 103 235v794q0 129 -117 129h-98v50q292 63 327 176h50v-1149q0 -235 103 -235h96v-50h-560z" />
    <glyph glyph-name="two" unicode="2" horiz-adv-x="1014" 
d="M722 1036q0 148 -86 245t-186 97q-170 0 -275 -131h-22v49q39 50 115 104t185 54q183 0 306.5 -121t123.5 -297q0 -262 -627 -916h422q130 0 209 112h49l-103 -232h-719l1 50q607 675 607 986z" />
    <glyph glyph-name="three" unicode="3" horiz-adv-x="1014" 
d="M435 22q151 0 218 116.5t67 280.5q0 104 -44.5 205.5t-176.5 148.5v19q81 45 144 120.5t63 209.5q0 110 -55 189.5t-166 92.5q-68 0 -123.5 -45t-55.5 -111h-42v159q0 20 73.5 33.5t155.5 13.5q155 0 257 -84t102 -249q0 -87 -61 -166t-193 -139q93 -14 195 -134.5
t102 -278.5q0 -163 -144 -294t-325 -131q-152 0 -247.5 39t-95.5 88v100h49q0 -83 86 -133t217 -50z" />
    <glyph glyph-name="four" unicode="4" horiz-adv-x="1014" 
d="M600 438v686l-424 -686h424zM737 338v-171q0 -117 72 -117h76v-50h-442v50h76q81 0 81 120v168h-557v35l660 1061h34v-996h19q133 0 193 132h49l-103 -232h-158z" />
    <glyph glyph-name="five" unicode="5" horiz-adv-x="1014" 
d="M229 852l144 582h396q103 0 112 52h50l-63 -172h-429l-104 -415q226 0 388 -124.5t162 -300.5q0 -234 -143.5 -365t-324.5 -131q-152 0 -248 39q-92 37 -92 82v106h46q0 -88 86 -135.5t217 -47.5q151 0 217.5 116.5t66.5 347.5q0 159 -110 265t-285 106q-40 0 -86 -5z
" />
    <glyph glyph-name="six" unicode="6" horiz-adv-x="1014" 
d="M558 11q101 0 163 98.5t62 247.5q0 203 -100 333.5t-216 130.5q-91 0 -163 -101.5t-72 -250.5q0 -153 95.5 -305.5t230.5 -152.5zM801 1459v-48q-177 -12 -326.5 -179.5t-233.5 -467.5q96 93 266 93q108 0 211 -57t161 -162.5t58 -221.5t-56.5 -220.5t-144 -162.5
t-169.5 -58q-243 0 -366.5 162.5t-123.5 372.5q0 320 209 634.5t515 314.5z" />
    <glyph glyph-name="seven" unicode="7" horiz-adv-x="1014" 
d="M737 1314h-399q-133 0 -192 -112h-50l103 232h719l-1 -50q-370 -866 -370 -1205q0 -129 67 -129h117v-50h-411v50h67q72 0 72 131q19 296 278 1133z" />
    <glyph glyph-name="eight" unicode="8" horiz-adv-x="1014" 
d="M552 830q121 25 156 124q27 75 27 140q0 20 -3 39q-12 81 -52.5 154t-99.5 110q-55 33 -106 33h-9q-57 -3 -105.5 -46t-68.5 -119q-13 -49 -13 -100q0 -28 4 -57q12 -80 51.5 -152t218.5 -126zM472 785q-114 -21 -181 -157q-56 -115 -56 -206q0 -18 2 -35
q14 -104 61.5 -196.5t118.5 -140.5q64 -44 128 -44h13q70 4 127.5 60t81.5 153q15 62 15 127q0 36 -5 73q-11 112 -73.5 212.5t-231.5 153.5zM636 811q42 -14 82 -35q103 -56 161 -158.5t58 -214.5t-56.5 -213.5t-159 -158t-214.5 -56.5t-214.5 56.5t-159 158t-56.5 213.5
t57.5 214.5t160.5 158.5q41 21 82 35q-24 9 -48 21q-86 44 -133 123t-47 166t48 167t133.5 123t176.5 43q90 0 176 -43t134 -123t48 -167t-47 -166t-132 -123q-25 -13 -50 -21z" />
    <glyph glyph-name="nine" unicode="9" horiz-adv-x="1014" 
d="M456 1423q-101 0 -162.5 -98.5t-61.5 -247.5q0 -203 100 -333.5t215 -130.5q91 0 163.5 101.5t72.5 250.5q0 153 -96 305.5t-231 152.5zM213 -25v48q177 12 326.5 179.5t233.5 467.5q-95 -93 -266 -93q-108 0 -211 57t-161 162.5t-58 221.5t56.5 220.5t144 162.5
t169.5 58q243 0 366.5 -162.5t123.5 -372.5q0 -320 -209 -634.5t-515 -314.5z" />
    <glyph glyph-name="colon" unicode=":" horiz-adv-x="557" 
d="M145 167l82 84q15 14 29 14q13 0 31 -16l80 -86q12 -16 12 -29q0 -15 -14 -31l-80 -88q-20 -20 -29 -20q-16 0 -29 14l-88 101q-10 13 -10 26q0 15 16 31zM145 860l82 84q15 14 29 14q13 0 31 -16l80 -86q12 -16 12 -29q0 -15 -14 -31l-80 -88q-20 -20 -29 -20
q-16 0 -29 14l-88 101q-10 13 -10 26q0 15 16 31z" />
    <glyph glyph-name="semicolon" unicode=";" horiz-adv-x="557" 
d="M145 859l82 84q15 14 29 14q13 0 31 -16l80 -86q12 -16 12 -29q0 -15 -14 -31l-80 -88q-20 -20 -29 -20q-16 0 -29 14l-88 101q-10 13 -10 26q0 15 16 31zM238 258q44 0 88.5 -65.5t44.5 -151.5q0 -109 -71 -226.5t-139 -117.5v43q73 43 87 190q0 119 -129 161v42z" />
    <glyph glyph-name="semicolon" unicode="&#x37e;" horiz-adv-x="557" 
d="M145 859l82 84q15 14 29 14q13 0 31 -16l80 -86q12 -16 12 -29q0 -15 -14 -31l-80 -88q-20 -20 -29 -20q-16 0 -29 14l-88 101q-10 13 -10 26q0 15 16 31zM238 258q44 0 88.5 -65.5t44.5 -151.5q0 -109 -71 -226.5t-139 -117.5v43q73 43 87 190q0 119 -129 161v42z" />
    <glyph glyph-name="less" unicode="&#x3c;" horiz-adv-x="1014" 
d="M927 1074l-625 -359l625 -355v-167l-840 481v83l840 484v-167z" />
    <glyph glyph-name="equal" unicode="=" horiz-adv-x="1014" 
d="M87 631h840v-140h-840v140zM87 943h840v-140h-840v140z" />
    <glyph glyph-name="greater" unicode="&#x3e;" horiz-adv-x="1014" 
d="M87 1241l840 -484v-83l-840 -481v167l625 355l-625 359v167z" />
    <glyph glyph-name="question" unicode="?" horiz-adv-x="748" 
d="M132 1330q128 104 242 104q132 0 212 -68t80 -182q0 -69 -32.5 -140t-124.5 -186q-90 -113 -141.5 -187.5t-51.5 -142.5q0 -63 35 -189h-47q-50 138 -50 211q0 109 116.5 312t116.5 309q0 82 -47 129t-130 47q-84 0 -178 -81v64zM223 167l82 84q15 14 29 14q13 0 31 -16
l80 -86q12 -16 12 -29q0 -15 -14 -31l-80 -88q-20 -20 -29 -20q-16 0 -29 14l-88 101q-10 13 -10 26q0 15 16 31z" />
    <glyph glyph-name="at" unicode="@" horiz-adv-x="2019" 
d="M972 622q-83 -10 -151 -80t-68 -199q0 -107 64 -194t183 -87q97 5 126 167v476q-54 -63 -154 -83zM1360 29q-63 1 -100.5 18t-61.5 54q-29 -37 -82 -64.5t-133 -27.5q-144 0 -256.5 100.5t-112.5 233.5q1 87 53 166.5t132.5 115t173.5 49.5q67 16 110 42.5t43 74.5
q-2 69 -41 125t-129 56q-72 0 -121.5 -59t-50.5 -125h-45v159q0 20 72 40q73 20 178 20q109 -2 193.5 -64.5t84.5 -157.5v-589q0 -117 94 -117q185 35 267 191.5t82 382.5q-20 335 -232 540q-197 188 -480 188q-205 0 -392.5 -137.5t-269.5 -355.5q-67 -178 -67 -361
q0 -313 129.5 -511.5t305 -290.5t318.5 -92q274 0 575 208v-75q-263 -184 -571 -184q-240 0 -461 122.5t-343 342t-122 461.5t124 464.5t345.5 342t456.5 119.5q362 0 609 -230t247 -566q0 -270 -176 -439q-175 -168 -346 -170z" />
    <glyph glyph-name="uni55A1" unicode="&#x55a1;" 
d="M1134 1403l-1088 -1088l169 -169l919 919l919 -919l169 169z" />
    <glyph glyph-name="uni55A2" unicode="&#x55a2;" 
d="M2069 1389l-920 -920l-920 920l-169 -169l1089 -1090l1090 1090z" />
    <glyph glyph-name="uni55A3" unicode="&#x55a3;" 
d="M1062 1299l-984 -984l42 -42l942 941l941 -941l42 42z" />
    <glyph glyph-name="uni55A4" unicode="&#x55a4;" 
d="M1476 322q-149 -148 -358 -148q-210 0 -359 148q-148 149 -148 358q0 210 148 359q149 148 359 148q209 0 358 -148q148 -149 148 -359q0 -209 -148 -358z" />
    <glyph glyph-name="uni55A5" unicode="&#x55a5;" 
d="M1952 -36q-300 -300 -724 -300t-724 300t-300 724t300 724t724 300t724 -300t300 -724t-300 -724z" />
    <glyph glyph-name="uni55A6" unicode="&#x55a6;" 
d="M1656 405q-27 27 -27 64q0 38 27 64q26 27 64 27q37 0 64 -27q26 -26 26 -64q0 -37 -26 -64q-27 -27 -64 -27q-38 0 -64 27zM1656 132q-27 27 -27 64q0 38 27 64q26 27 64 27q37 0 64 -27q26 -26 26 -64q0 -37 -26 -64q-27 -26 -64 -26q-38 0 -64 26zM1505 140
q4 -29 -19 -50q-22 -21 -55 -21h-914q-34 0 -57 21q-24 21 -24 50v814q0 29 24 50q23 21 57 21h914q33 0 55 -21q23 -21 19 -50v-814zM1309 1167l268 268q64 -24 112 24q31 31 31 75q0 43 -31 74t-75 31q-43 0 -74 -31q-48 -48 -24 -111l-330 -330l-22 -22l-22 22l-330 330
q24 63 -24 111q-31 31 -74 31q-44 0 -75 -31t-31 -74q0 -44 31 -75q48 -48 112 -24l268 -268h-582q-52 0 -89 -27t-37 -66v-1054q0 -39 37 -66t89 -27h1366q52 0 84 27q31 26 31 66v1054q0 37 -49 66q-47 27 -102 27h-458z" />
    <glyph glyph-name="uni55A7" unicode="&#x55a7;" 
d="M536 1092h1049v84h-1049v-84zM536 830h1049v84h-1049v-84zM536 568h1049v85h-1049v-85zM536 307h1049v84h-1049v-84z" />
    <glyph glyph-name="uni55A8" unicode="&#x55a8;" 
d="M709 40h86v692h-86v-692zM1467 40h86v692h-86v-692zM1718 735v254q0 207 -144 356q-142 149 -347 158v1h-184v-1q-206 -9 -348 -158q-143 -149 -143 -356v-254h-23q-136 0 -208 -101q-65 -92 -65 -245t65 -245q72 -101 208 -101h114v905q0 193 136 329t329 136h54
q193 0 329 -136q135 -136 135 -329v-905h114q136 0 203 101q59 90 59 245q0 156 -59 245q-67 101 -203 101h-22z" />
    <glyph glyph-name="uni55A9" unicode="&#x55a9;" 
d="M1097 1584l-715 -294l715 -294l714 294zM1181 827v-784l630 271v784zM382 314l631 -271v784l-631 271v-784z" />
    <glyph glyph-name="uni55AA" unicode="&#x55aa;" 
d="M627 339l-206 -224q16 207 28 305q-177 125 -229 187q-133 157 -133 393q0 286 222 488q221 202 535 202q313 0 535 -202t222 -488t-222 -488t-535 -202q-59 0 -217 29zM270 1521q-238 -217 -238 -523q0 -256 125 -416q57 -74 227 -194q-12 -106 -38 -421l314 310
q121 -19 184 -19q336 0 574 217q237 216 237 523q0 306 -237 523q-238 217 -574 217t-574 -217zM605 959h-132v132h132v-132zM912 959h-132v132h132v-132zM1228 959h-132v132h132v-132zM1762 1173q150 -68 245 -249q79 -151 77 -274q-3 -195 -115 -338q-60 -76 -195 -173
q10 -86 37 -266l-183 199q-178 -17 -229 -15q-209 9 -367 106l-137 -3q61 -43 160 -86q198 -87 384 -88q56 -1 162 17l280 -276q-37 292 -48 385q149 130 172 158q129 159 136 367q13 419 -402 613q17 -31 23 -77z" />
    <glyph glyph-name="uni55AB" unicode="&#x55ab;" 
d="M2160 856q0 -34 -24 -59q-25 -25 -59 -25h-676q-35 0 -59 25q-25 25 -25 59v676q0 35 25 59q24 25 59 25h676q34 0 59 -25q24 -24 24 -59v-676zM1091 -157q0 -34 -24 -59q-25 -25 -59 -25h-676q-35 0 -59 25q-25 25 -25 59v676q0 35 25 59q24 25 59 25h676q34 0 59 -25
q24 -24 24 -59v-676zM1091 856q0 -34 -24 -59q-25 -25 -59 -25h-676q-35 0 -59 25q-25 25 -25 59v676q0 35 25 59q24 25 59 25h676q34 0 59 -25q24 -24 24 -59v-676zM1917 -124q0 -31 -19 -54q-20 -22 -49 -22h-548q-28 0 -48 22q-20 23 -20 54v617q0 32 20 55q20 22 48 22
h548q29 0 49 -22q19 -23 19 -55v-617zM1275 601q-31 0 -53 -24q-21 -25 -21 -59v-676q0 -35 21 -59q22 -25 53 -25h600q31 0 53 25q22 24 22 59v676q0 34 -22 59q-22 24 -53 24h-600zM1917 -124q0 -31 -19 -54q-20 -22 -49 -22h-548q-28 0 -48 22q-20 23 -20 54v617
q0 32 20 55q20 22 48 22h548q29 0 49 -22q19 -23 19 -55v-617zM1275 601q-31 0 -53 -24q-21 -25 -21 -59v-676q0 -35 21 -59q22 -25 53 -25h600q31 0 53 25q22 24 22 59v676q0 34 -22 59q-22 24 -53 24h-600z" />
    <glyph glyph-name="uni55AC" unicode="&#x55ac;" 
d="M2376 291q0 -61 -43 -104t-104 -43h-2412l304 260v656q0 61 43 104t104 43h1961q61 0 104 -43t43 -104v-769z" />
    <glyph glyph-name="uni55AD" unicode="&#x55ad;" 
d="M858 32q-122 38 -202 104q-81 67 -123 160q-35 77 -42 128q-2 20 20 44q27 32 73 32q60 -5 97 -63q12 -20 26 -51q18 -43 21 -48q25 -50 78 -94q68 -55 155 -75q59 -15 172 -15q90 0 163 18q58 15 125 59q37 25 73 74q48 67 47 128q-2 103 -114 167q-46 26 -169 60
q-92 25 -225 51q-129 29 -222 65q-94 36 -154 85t-89 113q-28 63 -28 145q0 90 39 166q40 76 112 131t172 85q100 31 223 31q129 0 235 -31q106 -30 183 -88t121 -140q49 -83 28 -137q-19 -51 -81 -51q-80 0 -99 71q-31 109 -111 157q-87 52 -271 61q-175 9 -284 -77
q-93 -74 -98 -172q-4 -87 96 -156q115 -80 350 -121q357 -65 453 -164q102 -101 102 -243q0 -91 -62 -196q-49 -85 -99 -124q-76 -59 -180 -93q-105 -33 -228 -33q-162 0 -283 37z" />
    <glyph glyph-name="uni55AE" unicode="&#x55ae;" 
d="M639 169h376q169 0 259 74q86 71 86 199q0 65 -18 112q-24 67 -58 91q-60 42 -118 55q-72 15 -180 15h-347v-546zM639 866h346q160 0 236 51q77 51 77 171q0 54 -18 95q-25 59 -56 81q-54 37 -102 48q-63 13 -155 13h-328v-459zM1423 126q-138 -110 -407 -110h-491
q-33 0 -49 31q-8 15 -9 30v1339q1 15 11 31q18 31 58 31h451q114 0 207 -26t158 -74q66 -48 101 -117q36 -69 36 -156q0 -108 -52 -184q-53 -76 -159 -127q72 -17 125 -52q52 -34 88 -81q35 -46 52 -102q18 -57 18 -117q0 -207 -138 -316z" />
    <glyph glyph-name="uni55AF" unicode="&#x55af;" 
d="M1372 669q-10 66 -32 115q-23 49 -56 82q-34 32 -77 49t-92 17q-50 0 -92 -16q-43 -16 -76 -49q-34 -32 -58 -82q-23 -50 -32 -116h515zM949 133q-82 32 -141 94q-59 61 -91 151q-32 89 -32 203q0 112 31 200q32 89 89 151q57 61 135 95q79 33 175 33q99 0 178 -33
q79 -32 135 -94t86 -151q24 -70 29 -157q1 -21 -13 -44q-20 -34 -63 -40h-612q6 -79 28 -138q23 -58 60 -97q36 -38 84 -57t104 -19q41 0 81 10q40 11 72 32t52 52q47 72 101 72q39 -1 61 -29q19 -26 11 -47q-10 -26 -25 -50q-34 -56 -86 -93q-53 -37 -121 -57
q-68 -19 -146 -19q-99 0 -182 32z" />
    <glyph glyph-name="uni55B0" unicode="&#x55b0;" 
d="M958 150q-40 17 -62 50q-21 34 -27 84t-6 117v497h-85q-14 1 -29 9q-29 17 -29 53t31 51q15 7 30 7h82v153q2 16 14 33q22 32 66 32q43 0 63 -34q10 -17 12 -34v-150h81q15 1 31 -6q30 -14 30 -52t-33 -54q-17 -8 -34 -8h-75v-504q0 -46 6 -73q5 -28 16 -42
q12 -15 27 -19q16 -5 35 -5q42 0 44 -1q34 -8 34 -48q0 -73 -111 -73q-70 0 -111 17z" />
    <glyph glyph-name="uni55B1" unicode="&#x55b1;" 
d="M1243 1696v-702l254 239q46 -46 91 -125q90 -159 89 -322q-2 -226 -141 -402q-137 -173 -351 -226v-229q308 55 511 295q206 243 206 562q0 248 -111 438q-55 96 -110 141l279 215zM896 -71v701l-253 -239q-46 47 -91 126q-90 158 -89 322q2 226 141 401q137 174 351 226
v230q-308 -55 -511 -296q-206 -243 -206 -561q0 -248 110 -439q56 -95 111 -141l-279 -214z" />
    <glyph glyph-name="uni55B2" unicode="&#x55b2;" 
d="M785 524q-129 129 -129 311q0 183 129 312q128 128 311 128q182 0 311 -128q129 -129 129 -312q0 -182 -129 -311t-311 -129q-183 0 -311 129zM351 1161q-190 -163 -308 -326q118 -163 308 -325q381 -326 745 -326q363 0 744 326q191 162 309 325q-118 163 -309 326
q-381 325 -744 325q-364 0 -745 -325zM964 967q-55 -54 -55 -132q0 -77 55 -132q55 -54 132 -54t132 54q54 55 54 132q0 78 -54 132q-55 55 -132 55t-132 -55z" />
    <glyph glyph-name="uni55B3" unicode="&#x55b3;" 
d="M1818 1303q-19 17 -43 16t-40 -19l-981 -1096l-391 392q-17 17 -41 16q-25 -1 -42 -18l-5 -5q-18 -18 -18 -42q-1 -25 16 -42l444 -444q17 -16 41 -16q25 1 42 18l1030 1152q16 18 14 43q-2 24 -21 41z" />
    <glyph glyph-name="uni55B4" unicode="&#x55b4;" 
d="M1758 294h-1155v769h1155v-769zM1663 1401v-61q0 -61 -43 -104q-43 -44 -105 -44h-4q-61 0 -104 44q-44 43 -44 104v61h-375v-61q0 -61 -43 -104q-43 -44 -105 -44h-4q-61 0 -104 44q-44 43 -44 104v61h-112q-32 0 -54 -20q-23 -21 -23 -49v-1077q0 -29 23 -49
q22 -20 54 -20h1209q32 0 54 20q23 20 23 49v1077q0 28 -23 49q-22 20 -54 20h-122zM840 1280q31 0 54 22q22 22 22 54v148q0 31 -22 54q-23 22 -54 22h-2q-32 0 -55 -22q-22 -23 -22 -54v-148q0 -32 22 -54q23 -22 55 -22h2zM1518 1280q32 0 54 22q23 22 23 54v148
q0 31 -23 54q-22 22 -54 22h-2q-32 0 -54 -22q-23 -23 -23 -54v-148q0 -32 23 -54q22 -22 54 -22h2z" />
    <glyph glyph-name="uni55B5" unicode="&#x55b5;" 
d="M1377 555q-196 -156 -472 -156q-37 0 -109 7l-358 -216q36 212 59 320q-121 75 -189 184q-71 112 -71 239q0 222 196 378q195 157 472 157q276 0 472 -157q195 -156 195 -378q0 -221 -195 -378zM1694 1090q86 -222 33 -397q-60 -194 -269 -308q-176 -96 -395 -108
q101 -77 340 -75q120 1 220 17l287 -183l-79 251q70 26 141 93q141 133 146 335q0 298 -260 460q-130 81 -261 103q54 -76 97 -188z" />
    <glyph glyph-name="uni55B6" unicode="&#x55b6;" 
d="M1092 701q-17 0 -33 7v0h-1q-40 18 -49 61q-2 8 -2 17v422q0 36 25 60q25 25 60 25t60 -25q25 -24 25 -60v-338h338q35 0 60 -25q24 -24 24 -59t-24 -60q-25 -25 -60 -25h-423zM560 1367q-222 -222 -222 -535q0 -314 222 -536t536 -222q313 0 535 222t222 536
q0 313 -222 535t-535 222q-314 0 -536 -222z" />
    <glyph glyph-name="uni55B7" unicode="&#x55b7;" 
d="M1595 464q20 -19 20 -45q1 -27 -17 -46t-45 -20q-26 -1 -46 17l-324 267l-76 -63q-19 -22 -48 -22q-28 0 -48 22l-76 63l-324 -267q-19 -18 -45 -17q-27 1 -45 20t-18 46q1 26 21 45l310 258l-310 257q-20 19 -21 45q0 27 18 46t45 20q26 1 45 -17l448 -369l448 369
q20 18 46 17q27 -1 45 -20t17 -46q0 -26 -20 -45l-310 -257zM386 1266q-34 0 -57 -24q-24 -23 -24 -57v-927q0 -34 24 -57q23 -24 57 -24h1347q34 0 57 24q24 23 24 57v927q0 34 -24 57q-23 24 -57 24h-1347z" />
    <glyph glyph-name="uni55B8" unicode="&#x55b8;" 
d="M228 1164q-36 37 -36 88q0 52 36 89q37 36 89 36q51 0 88 -36q36 -37 36 -89q0 -51 -36 -88q-37 -36 -88 -36q-52 0 -89 36zM160 1409q-65 -65 -65 -157q0 -91 65 -156t157 -65q91 0 156 65t65 156q0 92 -65 157t-156 65q-92 0 -157 -65zM1846 596q-37 37 -37 88
q0 52 37 89q36 36 88 36t88 -36q37 -37 37 -89q0 -51 -37 -88q-36 -36 -88 -36t-88 36zM1777 841q-65 -65 -65 -157q0 -91 65 -156t157 -65t157 65q64 65 64 156q0 92 -64 157q-65 65 -157 65t-157 -65zM583 2q-37 36 -37 88t37 88q36 37 88 37t88 -37q37 -36 37 -88
t-37 -88q-36 -37 -88 -37t-88 37zM514 247q-65 -65 -65 -157t65 -157t157 -65t157 65t65 157t-65 157q-65 64 -157 64t-157 -64zM622 1189l-39 -98l1028 -345l36 96zM1621 585l-680 -322l49 -121l683 327z" />
    <glyph glyph-name="uni55B9" unicode="&#x55b9;" 
d="M493 1583q39 39 97 39h936v-140h235v316h-1307q-68 0 -129 -50q-72 -59 -72 -151v-1662q0 -67 45 -121q52 -64 140 -64h1352q69 0 113 37q56 48 56 148v1387h-1369q-58 0 -97 42q-39 43 -39 111q0 67 39 108z" />
    <glyph glyph-name="uni55BA" unicode="&#x55ba;" horiz-adv-x="2048" 
d="M920 1612q52 12 134 10t130 -18q108 -36 194 -106t140 -166t66 -208q8 -60 28 -92q44 -68 28 -144q-4 -24 -2 -34t26 -38q80 -112 112 -236q16 -56 12 -120q-4 -68 -20 -108t-40 -32q-36 12 -84 84l-24 40l-20 -48q-20 -52 -52 -104l-40 -52l28 -12q56 -24 80 -64
q8 -20 8 -24q-4 -4 4 -28q24 -60 -44 -132q-96 -100 -388 -44q-104 24 -168 24t-164 -20q-168 -36 -248 -24q-128 20 -160 76q-8 12 -20 32q-16 20 -16 56q4 100 84 140q28 12 28 16l-4 6t-10 16t-14 22q-72 104 -72 140q0 20 -16 4l-4 -8q-8 -20 -42 -54t-50 -42
q-20 -8 -30 2t-18 50q-52 192 112 408l44 56l-4 52q0 48 8 64q12 16 12 36q0 8 4 18l8 20t10 18t10 8q8 0 12 56q16 188 132 326t300 178zM1212 1368q-28 20 -64 6t-56 -54q-16 -36 -16 -90t16 -86q32 -60 76 -64t76 44t24 128q-4 84 -56 116zM928 1360q-20 12 -50 12
t-46 -16q-48 -40 -48 -128q0 -116 76 -148q44 -20 84 28q44 44 38 132t-54 120zM1220 1032q-56 12 -152 16t-152 -8q-84 -16 -158 -50t-74 -54q0 -12 20 -28q20 -12 52 -26t36 -12t-12 28t-12 30q4 0 40 -24q112 -84 240 -82t240 86q36 28 40 24t-12 -24q-28 -36 -20 -36h12
q28 8 64 30t36 34q0 16 -60 48t-128 48zM780 792q-48 16 -44 8q20 -20 128 -40l86 -10t84 -6t38 4q0 8 -64 8q-128 0 -228 36zM1172 756q-20 -4 -60 -4h-36l40 4q40 8 60 8zM620 656l-14 8t-22 16l-32 16l-8 -20q-32 -76 -20 -180q16 -168 140 -292q160 -160 396 -148
q112 4 208 52t164 132t96 188q12 52 6 148t-26 116q-4 4 -40 -20q-228 -152 -552 -116l-56 4v-84q0 -100 -16 -122t-88 -22q-88 0 -128 48q-36 40 -12 184q12 88 4 92zM560 200q-20 28 -68 -4q-44 -36 -20 -44q12 0 -6 -34t-10 -54q36 -76 220 -76q60 0 78 4t18 20t-48 56
q-60 44 -76 64l-52 44q-24 12 -36 24zM1548 204q-20 8 -26 6t-22 -26q-20 -28 -40 -32q-24 -8 -28 -20q-12 -24 -96 -68q-72 -44 -48 -64q8 -8 92 -8q136 -4 188 44q24 20 22 54t-14 46q-16 16 -4 16q36 0 4 28zM1124 1272q24 24 60 0q12 -12 16 -48q0 -32 -8 -40t-12 4v8
l-8 36q-8 36 -32 8l-8 -20q-16 -48 -28 -24v8q-12 32 20 68zM892 1276q20 24 46 6t26 -58q0 -32 -16 -48q-24 -24 -52 -4q-20 16 -22 50t18 54zM940 1236q0 16 -8 20q-8 0 -16 -10t-4 -18q4 -16 16 -12t12 20z" />
    <glyph glyph-name="uni55BB" unicode="&#x55bb;" horiz-adv-x="2048" 
d="M956 1692q208 12 396 -60t318 -208t206 -308t70 -372t-98 -384q-116 -232 -330 -366t-444 -148t-458 94t-368 324q-140 212 -148 462t92 454t304 348t460 164zM1100 1568q-184 20 -350 -38t-282 -176t-186 -268t-68 -328t82 -342q120 -240 354 -362t492 -84t446 230
q172 176 218 408t-26 434t-254 352t-426 174zM484 820v416h504v-148h-356v-136h356v-404h-356v-172h356v-128h-500l-4 448h368v124h-368zM1052 1088v148h504v-416h-368v-124h368v-448h-504v128l356 4v168h-356v404h356v136h-356z" />
    <glyph glyph-name="uni55BC" unicode="&#x55bc;" horiz-adv-x="2048" 
d="M1072 1596q144 20 242 -6t196 -104t238 -250q104 -120 110 -150t-62 -86q-8 -4 -16 -16q-76 -72 -110 -54t-170 194l-24 36l-108 134t-90 104t-82 78t-76 56t-72 40q-64 12 24 24zM848 1540q144 28 238 -16t222 -204q156 -188 320 -412l-16 -16q-24 -24 -132 -100
t-120 -76l-328 396q-24 -16 -412 -328q0 -4 328 -404q4 0 320 236q96 80 124 80q52 0 222 -18t182 -30q8 -4 -2 -52t-32 -112t-42 -104q-128 -240 -362 -360t-490 -82t-444 230q-116 112 -176 254t-66 282t36 280t128 252t216 194t286 110z" />
    <glyph glyph-name="uni55BD" unicode="&#x55bd;" horiz-adv-x="2048" 
d="M168 1328l512 380q8 0 8 -320q-4 -308 12 -312q12 -4 68 52q152 156 326 212t322 22t262 -136t166 -246t16 -324t-172 -352q-68 -92 -200 -212q-28 -24 -28 -12q20 24 36 60q72 100 88 224v44h-140q-144 8 -168 2t-32 -46q-32 -112 -128 -168t-194 -42t-176 92t-74 198
q0 120 74 198t170 92t190 -38t130 -168l16 -32l168 -8h164v40q-32 228 -182 374t-334 178t-372 -56t-292 -288q-144 -264 -38 -514t418 -386q0 -8 -16 -8q-176 0 -318 88t-222 248q-52 112 -58 190t-2 486v488z" />
    <glyph glyph-name="uni55BE" unicode="&#x55be;" horiz-adv-x="2048" 
d="M868 1376q108 8 252 -16t144 -36h-112q-160 0 -288 -28q-144 -32 -260 -94t-188 -140t-102 -162t-4 -170t106 -158q184 -156 486 -188t550 66t284 278q20 80 -42 148t-170 102t-234 44t-254 -20t-212 -98q-12 -8 40 -40q20 -12 64 -36q12 -8 36 -20q52 -36 82 -28t150 76
q12 8 20 12t20 12t22 14t22 14q44 24 52 24t52 -24q52 -32 64 -40q44 -24 50 -60t-26 -60q-28 -20 -340 -196q-72 -40 -112 -32t-192 96q-168 96 -200 112q-64 36 -86 64t-22 68q0 80 116 174t272 138q60 16 100 24q244 40 458 2t360 -152t158 -258q4 -60 -20 -148
q-44 -152 -236 -282t-436 -174q-124 -24 -268 -24q-164 0 -316 34t-270 92t-204 138t-130 172t-40 194t64 202q84 144 278 250t410 126q12 4 30 4t22 4z" />
    <glyph glyph-name="uni55BF" unicode="&#x55bf;" horiz-adv-x="2048" 
d="M412 1376q16 4 760 2t752 -2q72 -24 68 -100q0 -12 -114 -504t-118 -508q-32 -88 -124 -104h-758h-758q-76 16 -72 96q0 16 112 502t120 510q12 40 50 72t82 36zM392 1066q0 2 -40 2h-40q-12 -36 -30 -134t-18 -110q12 -52 98 -52t122 52q12 20 44 140q16 68 24 96
q4 4 2 6t-20 2h-32h-18q0 -12 -22 -108t-30 -104q-16 -32 -48 -34t-38 28t42 202q4 12 4 14zM1440 1064q-12 4 -84 4h-76v-4v-4t-4 -22t-12 -46t-20 -84t-32 -132l8 -2t18 -2h22t20 2l8 2q0 4 4 32q12 56 16 64t24 8q116 0 148 80q32 88 -40 104zM808 964q-16 4 -32 -2
t-22 -18t2 -20q12 -16 42 -6t30 30q0 12 -20 16zM628 944q0 8 -12 4q-8 0 -32 -4l-8 -4q-20 0 -20 -12v-12l-4 -4q-4 -44 -20 -108q-8 -24 -6 -28t34 0h32v8q12 56 24 104q0 8 20 8q16 0 -4 -80q-8 -36 -8 -40h32h4q24 0 26 2t6 14v4q4 12 8 40q20 80 12 96q-20 32 -76 4
l-12 -4v4q4 4 4 8zM1112 944q0 8 -16 4q-4 -4 -28 -8q-20 0 -22 -2t-6 -22l-20 -108q-8 -28 -6 -32t30 0h32l4 12q12 68 20 96q4 12 20 12q8 0 10 -2t2 -12t-4 -24t-8 -46q-8 -32 -8 -36l14 -2t30 0t18 4t6 22q4 24 12 60q16 64 -2 82t-66 -6l-12 -4v4v8zM1736 948
q-4 0 -20 -4q-12 -4 -28 -4q-16 -4 -18 -6t2 -10q4 -32 12 -112l4 -40l-16 -28q-16 -28 -20 -40q-4 0 -8 -6t-4 -10q-12 -16 -20 -16h-8l-4 -12q0 -4 -2 -10t-2 -10l-4 -8l28 4q32 0 44 12t52 80q32 64 100 180q24 40 16 40l-12 -4q-20 -4 -28 -4q-16 -4 -20 -6t-20 -34
q-4 -8 -8 -18t-8 -14l-4 -4zM964 944q-56 12 -94 -22t-38 -94q0 -24 12 -38t34 -18t50 0q40 12 64 50t16 76t-44 46zM1552 940q-44 20 -86 -44t-14 -104q12 -20 42 -24t38 12l4 -4v-4h36q28 0 32 2t8 30q8 40 28 132q4 8 -4 8q-4 0 -24 -4q-40 -8 -40 -12l-8 4q-4 4 -12 8z
M816 912h-12q-8 -4 -32 -8q-20 -4 -22 -4t-6 -20q-8 -48 -20 -84q-4 -20 -2 -22t34 2h32l4 16q4 24 24 108q4 12 0 12zM996 698q0 2 -60 2l-12 -20q-16 -24 -32 -24h-8l-8 -36q0 -12 56 8l12 8l8 4h88l8 36l-60 4l4 8t4 10zM1132 698q0 2 -26 2h-28t-40 -124t-38 -136
q-8 -20 4 -26t60 -2h32l4 20q8 20 6 22t-18 -2q-24 0 -24 4t12 56l12 32l60 4h56l12 4q16 8 24 24q4 8 14 38t18 58t6 28h-42q-72 0 -100 -16l-12 -8l4 10t4 12zM1400 700h-28h-28l-4 -12q-4 -4 -68 -220q-4 -8 -8 -8t-12 -16l-4 -20h56q56 -8 56 -12h-4h32h28v4q0 8 12 8
q4 0 4 -2v-2q16 -8 24 -8q32 0 44 6t36 38l12 20l4 -24q0 -16 4 -22t8 -10t12 -6t20 -2h20l8 20l4 20h-8q-12 0 -14 4t-6 24l-4 28h-12h-12l4 4l4 8h36h32l8 16q4 16 2 18t-30 2h-28v4q0 4 8 24h32l28 4l8 16q4 16 4 18t-92 2h-92l-4 -20l-8 -16l32 -4h36l-12 -28h-32h-32
l-8 -16q-4 -16 -2 -18t30 -2h24l-12 -20q-32 -44 -40 -48t-16 -4q-12 0 -8 8t-8 8q-4 0 -4 4q56 184 56 188t12 4h8l4 8l4 12v-16q0 -20 10 -26t46 -6h16l8 20l4 20h-8q-16 0 -16 16v12h-28q-116 0 -140 -12q-8 4 -12 4zM1036 612h-38h-76h-42q-8 -16 -8 -36h16h16l-8 -32
h-16q-20 0 -20 -4l-12 -32q0 -4 18 -4h18l-12 -32q-12 -44 -4 -52t56 -8h44l4 20q8 16 6 18t-14 2q-28 -4 -32 0t4 28l8 24h60l4 16l8 16v6t-32 2l-28 4l8 28h60zM1236 536l-20 4h-24v-8q-4 -16 -16 -16h-12v24h-28l-24 -4v-56q-4 -64 8 -68q8 0 40 -2t36 2q12 20 12 40h-8
h-16l-20 -4v4q-4 4 -4 18t4 14l20 4q40 0 48 36zM1332 976q8 36 10 42l2 6q4 0 28 -4q56 -4 40 -48q-16 -48 -76 -44h-16zM924 904q28 12 20 -36l-8 -24q-16 -48 -36 -32q-12 8 -2 48t26 44zM1536 900q24 16 24 -20q0 -32 -16 -56t-28 -16t-4 46t24 46zM1120 656q0 4 44 4
t44 -2t-4 -18l-24 -4q-36 0 -60 -12l-12 -4l8 20zM1104 600h88l-4 -16h-88zM1380 636l8 24h24q20 0 20 -4q0 -20 -8 -32l-12 -2t-24 -6t-14 -4t6 24zM1364 584h24h24l-4 -12q-4 -12 -8 -16q0 -8 -12 -8l-24 -8l-12 -4l4 24q8 20 8 24zM1328 464l16 44l44 -4q-4 0 -12 -40
h-48z" />
    <glyph glyph-name="uni55C0" unicode="&#x55c0;" horiz-adv-x="2048" 
d="M1180 1588l4 8h380l380 -8q-24 -80 -40 -144l-4 -16h-652l-24 -108q-24 -108 -28 -120v-8l-212 -4q-208 0 -210 -6t-6 -38q-8 -28 -8 -40l-4 -8h520l4 8q0 8 20 104q12 68 20 120l4 16h576l-4 -20q-8 -20 -24 -84l-16 -56h-232q-228 0 -232 -4t-28 -124l-28 -116l-304 -4
h-300l-12 -48l-8 -48q4 -4 204 -4h200l-4 -8q-4 -16 -72 -340l-16 -68h-200l-200 -4l-4 -20q0 -16 -4 -36l-4 -20h496v8q20 76 36 144q16 80 20 104q4 20 12 48t14 60t10 48q16 68 16 76q4 8 288 8t284 -4t-22 -76t-22 -74t-232 -2t-234 -4t-18 -92q-36 -148 -48 -204
q0 -4 -36 -164l-8 -40h-588l-4 -28q-8 -32 -8 -36v-8h676l8 28q8 44 40 176q28 140 48 216l16 76h380v-8q-4 -8 -24 -76l-20 -72l-140 -4h-136l-4 -12q0 -8 -10 -52l-24 -110t-26 -106q-24 -112 -28 -132q0 -8 -4 -20t-6 -24t-2 -16l-8 -28h-444q-444 0 -444 2t24 122
l48 232q24 112 22 118t-204 6h-204t66 292q24 120 24 122t204 2t208 4q12 12 100 476l4 28h424l4 8q0 8 8 36q28 184 36 200zM570 662q-2 2 -150 2h-152q-4 -4 -18 -38t-14 -38h156h160l4 12q0 4 4 18t4 22q8 20 6 22zM980 662q0 2 -148 4t-152 -2q0 -4 -10 -36t-10 -40h144
h148l16 36q12 36 12 38z" />
    <glyph glyph-name="uni55C1" unicode="&#x55c1;" horiz-adv-x="2048" 
d="M948 1688q116 8 216 -8q124 -16 242 -72t218 -140t172 -192q36 -56 72 -136t40 -112l-192 -4q-204 4 -208 16q-20 60 -40 100q-4 16 -152 388q-24 56 -28 56t-26 -48t-30 -76l-20 -52l-20 -46t-22 -58t-36 -90l-46 -110q-52 -140 -58 -140t-18 32q-12 24 -192 468l-26 58
l-26 58l-10 -20l-18 -36q0 -4 -16 -44l-122 -298l-274 -670l-6 -18t-16 -42t-14 -40q-12 -20 8 -48q4 -4 6 -8t6 -10t10 -14t18 -26l26 -38l38 -54l52 -74q12 -20 20 -24q4 -4 546 -6t550 2t48 60q0 4 4 10l12 18l20 30l36 54l52 80q20 24 20 32t-8 28l-12 32q4 4 74 2
t70 -6q0 -12 -28 -72t-48 -88q-44 -68 -76 -108q-64 -76 -168 -156q-144 -124 -400 -168q-152 -28 -340 8q-96 24 -206 74t-166 102q-4 0 -28 24q-76 60 -128 128q-56 84 -72 112q-40 60 -56 104t-40 124q-4 12 -24 132q-16 96 8 252q0 40 40 156q24 60 44 104
q72 156 226 288t310 180q112 28 212 40zM1200 1028q4 4 16 -20l36 -88q4 -4 212 -520v-8h-520h-520q0 4 10 30t234 574q16 40 36 -12q16 -44 224 -548q12 -28 16 -26t16 30q0 4 28 68l192 468q12 36 20 52zM1552 936l-16 48h192h192l4 -20q4 -24 -8 -24q-16 -4 -176 -4h-188
zM1568 892q4 4 184 4t184 -4q4 0 4 -44h-176l-176 4zM1608 808h166t166 -2t6 -20t-2 -22t-164 -4h-156zM1644 716q0 4 144 4t148 -4q4 0 4 -18t-4 -22t-140 -4t-140 4t-10 22t-2 18zM1676 632h128h128l-8 -48h-116q-112 0 -116 4q-24 28 -16 44zM1712 540q0 4 100 4h104
l-8 -36l-4 -8l-84 -4q-92 0 -96 12q-4 4 -12 32z" />
    <glyph glyph-name="uni55C2" unicode="&#x55c2;" horiz-adv-x="2048" 
d="M1060 1600q76 80 84 76q4 -4 680 -636q112 -92 116 -114t-64 -90q-64 -64 -70 -78t18 -34q76 -60 90 -84t-14 -52q-32 -28 -72 -72q-40 -40 -50 -38t-70 58q-28 28 -304 284q-24 24 -20 34t68 74t76 64t76 -60q44 -44 52 -48t24 8t2 34t-90 86q-24 24 -424 396l-40 8
q-16 -16 -14 -26t26 -30q28 -20 100 -92l-144 -152q-8 -4 -48 32q-8 8 -364 344q4 8 76 80t76 72q4 -4 64 -60q64 -56 76 -56t84 72zM492 1296l152 156q4 0 400 -376q4 -4 -70 -80t-78 -76q-8 4 -380 356zM308 1104l144 156l28 -24q8 -8 380 -352q0 -4 -14 -20t-36 -38
l-44 -44l-38 -38t-20 -16q-8 0 -400 376zM188 984q64 68 72 72t32 -16l376 -352q0 -4 -72 -78l-76 -78q-4 0 -64 60q-52 48 -62 52t-26 -8q-16 -16 -4 -28q20 -24 312 -292q104 -96 164 -156q44 -40 56 -46t26 6t2 28t-92 92l-28 24l72 76q68 68 80 72t56 -40l336 -312
q16 -12 8 -24t-68 -72l-76 -76l-80 72q-48 48 -60 44t-80 -74t-80 -70t-92 76l-712 660q-12 8 -2 24t62 68l80 80q4 8 -14 26t-122 114zM1324 800q4 4 8 6t12 -4t22 -18t38 -36l268 -252q64 -56 62 -68t-70 -80l-76 -76l-340 320l-64 64zM992 460l156 156l16 -16
q4 -4 16 -14t38 -36t64 -60l106 -96l144 -138l24 -16l-76 -80q-68 -68 -78 -70t-58 42q-12 16 -60 58l-124 112z" />
    <glyph glyph-name="uni55C3" unicode="&#x55c3;" horiz-adv-x="2048" 
d="M872 1640q184 32 358 -10t306 -138t226 -240t130 -304t6 -338t-134 -338q-180 -264 -476 -354t-584 20t-448 382q-112 196 -118 416t80 404t260 322t394 178zM920 1304v188h-24q-20 0 -62 -12t-84 -32t-88 -46t-78 -50q-168 -132 -238 -328t-40 -382t162 -346t336 -224
q92 -36 108 -20t16 152q0 140 -12 162t-104 34q-148 12 -182 84t-30 336q8 172 46 224t174 64q8 0 28 4q56 0 64 20t8 132v40zM1224 1476q-80 20 -92 8q-8 -8 -8 -164t8 -180l8 -24l76 -8q148 -12 188 -80t40 -300q-8 -216 -46 -274t-182 -70q-68 -8 -76 -24t-8 -156l8 -148
l16 -8q64 -8 190 60t206 152q108 116 160 264t38 294t-76 280t-180 234t-270 144zM1248 936q-12 8 -226 8t-226 -8q-8 -12 -8 -168t8 -168q12 -16 224 -16t228 18t16 170t-16 164z" />
    <glyph glyph-name="uni55C4" unicode="&#x55c4;" horiz-adv-x="2048" 
d="M928 1624q236 32 460 -68q36 -20 36 -44t-36 -36q-180 -72 -236 -248q-16 -40 -18 -100t-2 -596v-624h-36q-68 -4 -136 0h-32v628q-4 92 -4 240q0 304 -2 360t-14 84q0 8 -4 8q-52 172 -236 248q-56 16 -28 56q8 16 112 52q92 32 176 40zM476 1432l24 20q4 0 4 -152
t-2 -306t-6 -154q-24 -32 -66 -14t-66 66q-12 28 -24 32q-8 0 -28 -34t-28 -70q-32 -112 40 -196q12 -16 20 -14t20 26q16 52 62 70t70 -10l8 -8v-304q0 -292 -12 -292l-24 16q-212 184 -280 462t44 526q84 204 244 336zM1556 84v1364q20 -12 36 -20q4 -8 24 -24q4 -8 8 -12
l10 -10l10 -10q196 -200 236 -464q16 -84 -44 -88q-64 4 -108 96q-12 36 -48 -36q-24 -44 -28 -88q-12 -92 44 -164q24 -24 36 -4q28 80 92 88q80 8 52 -104q0 -12 -4 -32q-20 -80 -36 -116q-4 -4 -12 -28q-32 -84 -110 -188t-146 -152zM636 1304q-4 16 0 18t12 -6
q28 -12 54 -36t48 -54t30 -58q16 -52 18 -198t2 -1030h-8q-36 0 -132 48l-24 8v1308zM1408 1316q4 8 12 8l2 -136t2 -328v-386v-332t-4 -142l-4 -4q-12 -8 -28 -16q-48 -16 -88 -36q-16 0 -28 -4q-8 -4 -12 -4q-8 12 -6 570t6 594q28 152 148 216z" />
    <glyph glyph-name="uni55C5" unicode="&#x55c5;" horiz-adv-x="1098" 
d="M163 1646v-1727h1927v100h-1827v1627h-100zM881 142h323v1504h-323v-1504zM1767 139h323v301h-323v-301zM438 142h323v1133h-323v-1133zM1324 139h323v650h-323v-650z" />
    <glyph glyph-name="uni55C6" unicode="&#x55c6;" horiz-adv-x="1098" 
d="M2057 937h-151v-151h-151v151h-151v151h151v151h151v-151h151v-151zM1037 951q-33 34 -33 81q0 48 33 81q34 34 81 34t81 -34q33 -33 33 -81q0 -47 -33 -81q-34 -33 -81 -33t-81 33zM715 966h-207v-253h-119v253h-215v119h215v252h119v-252h207v-119zM1586 1498l-41 -63
q-27 -42 -36 -55q-36 -54 -58 -54h-666q-22 0 -59 54q-9 13 -35 55l-41 63q-120 172 -251 172q-291 0 -526 -582q-193 -479 -193 -789q0 -107 44 -210q47 -108 119 -157q81 -54 170 -13q103 47 200 218q173 304 342 425q84 61 134 61h857q50 0 135 -61q169 -121 342 -425
q97 -171 199 -218q89 -41 171 13q72 49 118 157q45 103 45 210q0 310 -194 789q-234 582 -525 582q-131 0 -251 -172z" />
    <glyph glyph-name="uni55C7" unicode="&#x55c7;" horiz-adv-x="1098" 
d="M493 -1l858 294l-692 840l956 -745l656 228l-2157 1161zM1084 58l275 -374v465z" />
    <glyph glyph-name="uni55C8" unicode="&#x55c8;" horiz-adv-x="1098" 
d="M97 1226l-3 -11l-3 -13l-2 -20v-27l2 -30l6 -38l3 -19l8 -22l3 -19l8 -19l11 -22l11 -22l27 -44l27 -44l47 -71l8 -16l3 -3l-6 3l-33 30l-30 27l-27 30l-22 28l-19 27l-16 25l-14 24l-11 25l-8 19l-6 19l-8 33l-3 19v8l-10 -16l-11 -17l-14 -30l-6 -16l-2 -16l-3 -33v-17
l3 -16l2 -16l6 -17l8 -16l6 -17l11 -16l8 -16l11 -17l13 -16l28 -33l16 -16l16 -14l17 -16l19 -17l41 -30l41 -30l46 -27l50 -28l51 -27l55 -25l58 -24l57 -22l60 -22l63 -19l63 -16l63 -17l65 -11l63 -11l66 -11l65 -5l63 -3h128l61 6l38 5l38 6l36 5l38 8l68 17l36 8l32 8
l66 22l60 22l60 22l55 24l49 22l47 22l41 22l38 19l95 55l33 19l30 19l28 19l24 22l22 19l22 22l16 22l17 22l13 21l14 22l8 22l11 22l6 22l5 22l6 19l2 22l3 19v52l-3 33l-5 24l-6 22l-5 16l-3 6l-3 3l-16 -47l-16 -44l-20 -41l-19 -38l-19 -35l-19 -33l-22 -33l-22 -30
l-43 -52l-22 -22l-22 -22l-22 -19l-19 -19l-44 -30l-19 -14l-19 -11l-38 -19l-36 -16l-27 -11l-25 -8l-19 -3l-16 -3l35 17l33 16l60 36l28 16l24 19l25 19l24 17l41 38l17 16l19 19l30 36l24 36l22 32l17 33l13 30l11 28l17 46l5 33l-5 -8l-14 -20l-25 -21l-30 -30l-38 -31
l-24 -19l-25 -16l-52 -36l-63 -38l-33 -16l-35 -19l-38 -17l-39 -19l-41 -16l-43 -14l-44 -16l-46 -14l-47 -11l-49 -11l-52 -11l-25 -3l-27 -5l-55 -5l-54 -3l-58 -3h-57l-85 3l-82 5l-76 8l-74 9l-68 13l-66 14l-63 16l-60 17l-55 19l-51 19l-50 19l-46 22l-41 22l-41 24
l-36 22l-35 25l-30 22l-30 22l-49 46l-22 19l-19 22l-20 19l-13 17l-25 32l-13 22l-11 17zM409 390l-11 -55l-5 -30l-8 -36l-6 -35l-3 -38l-2 -36v-74l2 -16l3 -17l6 -30l5 -16l5 -14l6 -11l8 -8l8 -8l9 -8l10 -8l14 -9l25 -10l13 -3l17 -6l30 -5l16 -3l17 -3l30 -2h90l24 2
l39 3l19 3l5 3l3 5l5 6l9 13l11 22l5 27l6 36l2 22v22l-5 52l-14 101l-5 49l-3 19v11l-38 11l-28 8h-11l-5 3l-5 -3l-3 -8l-3 -11v-14l-3 -33v-41l3 -38l3 -38l5 -49v-3l-2 3l-6 2l-8 20l-11 30l-6 19l-5 19l-8 46l-6 28v30l-2 30l2 33l-52 13l-43 17l-39 16l-32 14l-28 13
l-19 9l-16 10z" />
    <glyph glyph-name="uni55C9" unicode="&#x55c9;" horiz-adv-x="1098" 
d="M223 1391l-8 -3l-5 -8l-17 -21l-16 -30l-16 -37l-16 -46l-8 -24l-8 -27l-5 -26l-6 -30l-8 -62l-2 -29l-3 -35v-67l8 -67l5 -35l6 -37l11 -35l10 -35l14 -35l16 -35l16 -35l11 -16l10 -16l22 -34l26 -33l46 -53l30 -32l34 -33l38 -32l43 -35l48 -32l27 -16l29 -16l30 -16
l32 -16l32 -16l35 -14l37 -16l41 -13l40 -11l45 -13l46 -11l48 -8l48 -11l54 -8l56 -5l57 -5l29 -3l30 -3l64 -2h43l45 2l49 8l48 11l48 13l24 8l27 8l48 19l51 24l27 11l24 13l48 27l49 32l48 33l45 34l46 41l19 18l21 22l40 40l35 46l35 45l30 48l26 51l11 27l11 27l11 24
l8 30l5 26l8 27l3 30l5 26v30l3 29l-3 30v29l-5 30l-6 32l-5 29l-8 33l-11 32l-11 29l-13 32l-16 33l-16 32l-19 32l-21 32l-22 35l-27 -19l-29 -19l-43 -24l-51 -29l-61 -30l-70 -32l-40 -16l-41 -16l-42 -16l-46 -13l-46 -14l-48 -13l-51 -11l-51 -8l-26 -5l-27 -6l-54 -5
l-56 -5h-115l-59 2h-30l-29 3l-62 8l-32 5l-32 8l-62 14l5 -116l3 -107v-107l-3 -11l-5 -13l-8 -13l-11 -17l-13 -16l-16 -13l-8 -5l-8 -6l-6 -2h-8l-43 -6l-40 -2h-72l-30 2l-29 6l-27 8l-24 8l-21 8l-22 13l-16 11l-16 16l-8 5l-8 8l-11 16l-11 19l-10 19l-6 16l-2 29
l-3 46l-3 56v67l6 73l2 40l6 40l2 43l8 43l-45 27l-43 24l-40 21l-14 11z" />
    <glyph glyph-name="uni55CA" unicode="&#x55ca;" horiz-adv-x="1098" 
d="M-73 524q812 0 1175 101q233 65 368 180q144 124 186 315q175 6 282 70q132 78 127 232h188v-1115h-2326v217z" />
    <glyph glyph-name="uni55CB" unicode="&#x55cb;" horiz-adv-x="1098" 
d="M1831 173q0 -64 -45 -109t-109 -45h-1140q-64 0 -109 45t-45 109v460q0 64 45 109t109 45h1140q64 0 109 -45t45 -109v-460zM576 970v189q0 103 122 284q161 241 388 245q343 0 476 -363q26 -70 44 -92q34 -43 98 -43q91 0 102 76q6 38 -6 76q-28 136 -133 272
q-210 272 -598 272q-352 0 -568 -318q-163 -238 -163 -437v-163q-136 -86 -136 -193v-744q0 -80 56 -137q57 -56 137 -56h1424q80 0 136 56q57 57 57 137v744q0 80 -57 136q-56 57 -136 57z" />
    <glyph glyph-name="uni55CC" unicode="&#x55cc;" horiz-adv-x="1098" 
d="M2089 -33q0 -69 -49 -118q-48 -49 -118 -49h-1221q-69 0 -118 49t-49 118v881q0 69 49 118q49 48 118 48h1148q90 -3 99 -5q60 -9 100 -54q41 -46 41 -107v-881zM134 775q-38 58 -25 126q13 67 70 106l1013 683q58 39 125 26q68 -14 107 -71l377 -559h-1160
q-77 0 -131 -54q-54 -55 -54 -131v-602zM1896 1086l-436 647q-43 64 -119 79q-75 14 -139 -29l-1112 -750q-64 -43 -78 -118q-15 -76 28 -139l416 -617v-245q0 -77 54 -131q54 -55 131 -55h1342q76 0 131 55q54 54 54 131v987q0 76 -54 131q-55 54 -131 54h-87zM667 -2h365
v85h-365v-85zM1131 -2h366v85h-366v-85zM1595 -2h366v85h-366v-85zM754 593h189v-304h-189v304zM661 195h377v472h-377v-472z" />
    <glyph glyph-name="uni55CD" unicode="&#x55cd;" horiz-adv-x="1098" 
d="M1950 1133h-1628v139q0 53 38 91t92 38h1369q53 0 91 -38t38 -91v-139zM1950 241q0 -53 -38 -91t-91 -38h-1369q-54 0 -92 38t-38 91v815h1628v-815zM393 1473q-60 0 -102 -42t-42 -102v-1145q0 -60 42 -102t102 -42h1495q60 0 102 42t42 102v1145q0 60 -42 102t-102 42
h-1495zM1128 671h-642v-80h642v80zM1128 429h-642v-76h642v76zM1528 671h-226v-80h226v80z" />
    <glyph glyph-name="uni55CE" unicode="&#x55ce;" horiz-adv-x="1098" 
d="M1550 912q-29 30 -60 95q-38 78 -49 95q-30 43 -69 43t-68 -43q-10 -14 -48 -95q-32 -65 -63 -95q-45 -43 -111 -43q-78 0 -121 43q-31 31 -50 95q-27 90 -29 95q-20 43 -60 43t-63 -43q0 1 -37 -94q-24 -63 -59 -94q-49 -43 -133 -43q-134 0 -192 89q-28 44 -31 89
l247 449h1089l250 -461q-15 -42 -52 -84q-74 -84 -186 -84q-62 0 -105 43zM1678 185q0 -57 -40 -97q-40 -41 -97 -41h-893q-57 0 -97 41q-40 40 -40 97v623q2 -1 8 -2h8q173 0 254 127q40 63 46 127q1 -64 35 -127q67 -127 229 -127q135 0 221 127q43 63 58 127
q6 -64 47 -127q81 -127 253 -127h4h4v-621zM1704 1565h-1210l-263 -505q4 -48 31 -103q55 -108 171 -140v-693q0 -63 45 -108q44 -45 108 -45h1026q63 0 108 45t45 108v693q116 32 171 140q27 55 31 103zM1491 243h-799v85h799v-85z" />
    <glyph glyph-name="uni55D0" unicode="&#x55d0;" horiz-adv-x="1098" 
d="M1979 519h-368l-70 461h-121l-205 -695l-135 1538h-206l-361 -1304h-574v-198h687l305 1077l113 -1623h171l262 822l14 -276h488q58 -100 171 -100q83 0 141 59q58 58 58 140t-58 140t-141 58q-113 0 -171 -99z" />
    <glyph glyph-name="uni55D1" unicode="&#x55d1;" horiz-adv-x="1098" 
d="M1054 1236q-105 -105 -254 -105q-148 0 -253 105t-105 254t105 254t253 105q149 0 254 -105t105 -254t-105 -254zM1985 772q-76 -76 -184 -76q-107 0 -183 76t-76 184t76 184t183 76q108 0 184 -76t76 -184t-76 -184zM1643 522q144 -353 144 -704h492q0 426 -184 610
q-123 123 -305 123q-75 0 -147 -29zM1170 892q-160 95 -357 95q-290 0 -488 -196q-297 -294 -297 -973h1565q0 368 -89 626q-106 311 -334 448z" />
    <glyph glyph-name="uni55D2" unicode="&#x55d2;" horiz-adv-x="1098" 
d="M-17 -73v-228h367v525zM618 452v-753h367v769l-169 143zM1317 142l-106 89v-532h367v685zM2142 901l-277 -256v-946h367v1202h-90zM1878 1946l240 -242l-732 -684l-557 468l-846 -696v-388l846 684l557 -470l942 874l249 -250l-3 704h-696z" />
    <glyph glyph-name="uni55D3" unicode="&#x55d3;" horiz-adv-x="1098" 
d="M1431 1551q-177 -107 -276 -287q-98 -141 -98 -368q0 -237 -168 -405t-406 -168q-237 0 -405 168t-168 405t168 405q167 168 405 168v-256l298 172l183 106l129 74l-610 353v-257q-317 0 -541 -224t-224 -541t224 -541q224 -225 541 -225q214 0 396 110q177 107 276 288
q98 150 98 368q0 237 168 405t405 168t405 -168t168 -405t-168 -405t-405 -168q2 0 -26 1v251l-335 -193l-174 -101l-101 -58l610 -353v262q4 0 13 -1q8 -1 13 -1q317 0 541 225q225 224 225 541t-225 541q-224 224 -541 224q-213 0 -395 -110z" />
    <glyph glyph-name="uni55D4" unicode="&#x55d4;" horiz-adv-x="1098" 
d="M350 1574q-300 -300 -300 -724q0 -159 49 -312l508 708q18 25 48 30t55 -13l196 -140l-259 -358q-163 -224 -202 -281q-95 -140 39 -236q72 -52 145 -26q52 18 80 57l344 477q31 42 -7 70q-39 28 -70 -15l-338 -469q-11 -13 -28 -22q-36 -16 -72 9q-36 26 -30 65
q3 20 13 34l461 640l564 -404q25 -18 30 -49q5 -30 -13 -55l-526 -732q5 0 18 -1q12 -1 19 -1q424 0 724 300t300 724t-300 724t-724 300t-724 -300z" />
    <glyph glyph-name="uni55D5" unicode="&#x55d5;" horiz-adv-x="1098" 
d="M1229 1671q-57 -47 -139 -47q-81 0 -139 47q-57 47 -57 114q0 66 57 114q58 47 139 47q82 0 139 -47q58 -48 58 -114q0 -67 -58 -114zM1105 1171q-230 0 -410 -54q-45 -1 -45 36t36 51q176 98 422 98q247 0 423 -100q35 -13 35 -49t-40 -39q-191 57 -421 57zM2365 832
l-89 45l-66 -78l26 -46l51 46l107 -100l-129 -51l-111 36q5 39 5 65q0 314 -316 517q-308 198 -763 198q-296 0 -547 -92l-152 214l-196 -29l118 -60l-22 -256q-184 -132 -247 -313h-204v-351h201q96 -285 464 -435v-310h266v232q157 -30 319 -30q204 0 391 45v-247h265v342
q332 162 404 439l140 -36l151 56l22 85z" />
    <glyph glyph-name="uni55D6" unicode="&#x55d6;" horiz-adv-x="1098" 
d="M1204 617q-23 7 -50 12v-187q25 5 47 12t39 19t26 28q10 17 10 40q0 21 -9 35q-8 14 -24 24q-17 10 -39 17zM1324 417q-31 -25 -74 -41q-43 -17 -97 -24v-78h-95v72q-33 0 -68 3t-65 8t-54 12q-24 6 -38 13v100q22 -9 54 -17q32 -9 77 -15q44 -6 89 -6h5v205
q-43 8 -83 18q-41 11 -73 32t-51 54q-20 33 -20 84q0 43 17 77q17 35 47 60t71 41q42 16 92 21v75h95v-73q58 -3 109 -11q50 -9 91 -23v-100q-46 14 -94 24q-47 10 -106 13v-204q44 -8 85 -19q42 -11 76 -31q33 -21 54 -54q20 -32 20 -84q0 -41 -16 -74q-17 -34 -48 -58z
M1381 1729q46 15 92 10v72q-9 23 -33 46q-48 46 -125 46q-111 0 -199 -56q-88 -57 -149 -57q-138 0 -231 113v-164q46 5 92 -10q92 -31 92 -133q0 -48 -104 -149q-192 -187 -228 -227q-333 -373 -333 -848q11 -354 351 -465q156 -51 499 -51q352 0 500 47q341 109 349 469
q0 475 -333 848q-36 40 -228 227q-104 101 -104 149q0 102 92 133zM962 784q28 -20 86 -31v186q-113 -14 -113 -96q0 -38 27 -59z" />
    <glyph glyph-name="uni55D7" unicode="&#x55d7;" horiz-adv-x="1098" 
d="M78 1546q-79 0 -135 -56q-56 -55 -56 -135v-1280q0 -79 56 -135t135 -56h359v1662h-359zM646 1699q0 44 31 75q33 34 86 34l672 -2q121 0 121 -117v-146h118v194q0 79 -56 135t-135 56h-774q-80 0 -140 -56q-61 -58 -61 -136v-193h138v156zM1793 1546v-1662h356
q79 0 135 56t56 135v1280q0 80 -56 135q-56 56 -135 56h-356zM1022 809q22 -16 67 -24v146q-89 -11 -89 -76q0 -29 22 -46zM1206 686q-18 5 -40 9v-146q21 3 38 9q18 6 30 15q13 9 21 22q7 13 7 31q0 17 -6 28q-7 11 -20 18q-13 8 -30 14zM1299 523q-25 -20 -58 -32
q-35 -13 -76 -19v-61h-75v57q-27 0 -53 2t-51 6q-23 4 -43 9q-19 5 -30 11v78q18 -7 43 -14q25 -6 60 -11t70 -5h4v161q-33 6 -65 15q-32 8 -57 24q-25 17 -41 43q-15 26 -15 66q0 33 13 60q14 27 37 47q24 20 56 32q33 13 72 17v58h75v-57q46 -2 85 -9q40 -7 72 -17v-79
q-37 11 -74 19t-83 10v-160q34 -6 66 -15q33 -8 60 -24q26 -17 42 -42q16 -26 16 -66q0 -32 -13 -59q-13 -26 -37 -45zM698 -116h813v1662h-813v-1662z" />
  </font>
</defs>
</svg>
