<svg xmlns="http://www.w3.org/2000/svg" width="42" height="9" viewBox="0 0 42 9">
  <metadata><?xpacket begin="﻿" id="W5M0MpCehiHzreSzNTczkc9d"?>
<x:xmpmeta xmlns:x="adobe:ns:meta/" x:xmptk="Adobe XMP Core 5.6-c140 79.160451, 2017/05/06-01:08:21        ">
   <rdf:RDF xmlns:rdf="http://www.w3.org/1999/02/22-rdf-syntax-ns#">
      <rdf:Description rdf:about=""/>
   </rdf:RDF>
</x:xmpmeta>
                                                                                                    
                                                                                                    
                                                                                                    
                                                                                                    
                                                                                                    
                                                                                                    
                                                                                                    
                                                                                                    
                                                                                                    
                                                                                                    
                                                                                                    
                                                                                                    
                                                                                                    
                                                                                                    
                                                                                                    
                                                                                                    
                                                                                                    
                                                                                                    
                                                                                                    
                                                                                                    
                           
<?xpacket end="w"?></metadata>
<defs>
    <style>
      .cls-1 {
        fill: #b9916e;
        fill-rule: evenodd;
      }
    </style>
  </defs>
  <path id="_" data-name="&gt;" class="cls-1" d="M1230.56,388.934a1.313,1.313,0,0,0,1.02-.421,1.381,1.381,0,0,0,.43-1.027,1.367,1.367,0,0,0-.43-1,1.31,1.31,0,0,0-1.02-.421,1.418,1.418,0,0,0-1.02.421,1.367,1.367,0,0,0-.43,1,1.381,1.381,0,0,0,.43,1.027A1.422,1.422,0,0,0,1230.56,388.934Zm-6.26,0a1.313,1.313,0,0,0,1.02-.421,1.381,1.381,0,0,0,.43-1.027,1.367,1.367,0,0,0-.43-1,1.31,1.31,0,0,0-1.02-.421,1.418,1.418,0,0,0-1.02.421,1.33,1.33,0,0,0-.43,1,1.345,1.345,0,0,0,.43,1.027A1.422,1.422,0,0,0,1224.3,388.934Zm-6.26,0a1.328,1.328,0,0,0,1.02-.421,1.373,1.373,0,0,0,.42-1.027,1.358,1.358,0,0,0-.42-1,1.325,1.325,0,0,0-1.02-.421,1.418,1.418,0,0,0-1.02.421,1.33,1.33,0,0,0-.43,1,1.345,1.345,0,0,0,.43,1.027A1.422,1.422,0,0,0,1218.04,388.934Zm-6.26,0a1.343,1.343,0,0,0,1.02-.421,1.373,1.373,0,0,0,.42-1.027,1.358,1.358,0,0,0-.42-1,1.339,1.339,0,0,0-1.02-.421,1.418,1.418,0,0,0-1.02.421,1.33,1.33,0,0,0-.43,1,1.345,1.345,0,0,0,.43,1.027A1.422,1.422,0,0,0,1211.78,388.934Zm-12.8,3.075v-1.3l-7.31-3.206,7.31-3.189V383l-8.98,3.96v1.1Z" transform="translate(-1190 -383)"/>
</svg>
