<svg xmlns="http://www.w3.org/2000/svg" width="42.5" height="9.25" viewBox="0 0 42.5 9.25">
  <metadata><?xpacket begin="﻿" id="W5M0MpCehiHzreSzNTczkc9d"?>
<x:xmpmeta xmlns:x="adobe:ns:meta/" x:xmptk="Adobe XMP Core 5.6-c140 79.160451, 2017/05/06-01:08:21        ">
   <rdf:RDF xmlns:rdf="http://www.w3.org/1999/02/22-rdf-syntax-ns#">
      <rdf:Description rdf:about=""/>
   </rdf:RDF>
</x:xmpmeta>
                                                                                                    
                                                                                                    
                                                                                                    
                                                                                                    
                                                                                                    
                                                                                                    
                                                                                                    
                                                                                                    
                                                                                                    
                                                                                                    
                                                                                                    
                                                                                                    
                                                                                                    
                                                                                                    
                                                                                                    
                                                                                                    
                                                                                                    
                                                                                                    
                                                                                                    
                                                                                                    
                           
<?xpacket end="w"?></metadata>
<defs>
    <style>
      .cls-1 {
        fill: #b9916e;
        fill-rule: evenodd;
      }
    </style>
  </defs>
  <path id="_" data-name="&gt;" class="cls-1" d="M1191.02,386.12a1.316,1.316,0,0,0-1.03.432,1.483,1.483,0,0,0,0,2.089,1.316,1.316,0,0,0,1.03.432,1.44,1.44,0,0,0,1.03-.432,1.483,1.483,0,0,0,0-2.089A1.44,1.44,0,0,0,1191.02,386.12Zm6.34,0a1.337,1.337,0,0,0-1.04.432,1.483,1.483,0,0,0,0,2.089,1.337,1.337,0,0,0,1.04.432,1.44,1.44,0,0,0,1.03-.432,1.483,1.483,0,0,0,0-2.089A1.44,1.44,0,0,0,1197.36,386.12Zm6.33,0a1.316,1.316,0,0,0-1.03.432,1.483,1.483,0,0,0,0,2.089,1.316,1.316,0,0,0,1.03.432A1.477,1.477,0,0,0,1203.69,386.12Zm6.34,0a1.316,1.316,0,0,0-1.03.432,1.46,1.46,0,0,0,0,2.089,1.316,1.316,0,0,0,1.03.432,1.44,1.44,0,0,0,1.03-.432,1.483,1.483,0,0,0,0-2.089A1.44,1.44,0,0,0,1210.03,386.12Zm12.94-3.161v1.333l7.4,3.3-7.4,3.277v1.35l9.09-4.069v-1.134Z" transform="translate(-1189.56 -382.969)"/>
</svg>
