<?xml version="1.0" encoding="UTF-8"?>
<svg width="18px" height="14px" viewBox="0 0 18 14" version="1.1" xmlns="http://www.w3.org/2000/svg" xmlns:xlink="http://www.w3.org/1999/xlink">
    <!-- Generator: Sketch 50 (54983) - http://www.bohemiancoding.com/sketch -->
    <title>black-back-closed-envelope-shape</title>
    <desc>Created with Sketch.</desc>
    <defs></defs>
    <g id="Page-1" stroke="none" stroke-width="1" fill="none" fill-rule="evenodd">
        <g id="第三屏" transform="translate(-1242.000000, -380.000000)" fill="#FFFFFF" fill-rule="nonzero">
            <g id="Group-6" transform="translate(1242.000000, 341.000000)">
                <g id="black-back-closed-envelope-shape" transform="translate(0.000000, 39.000000)">
                    <path d="M16.3866316,13.9929515 C16.7910926,13.9929515 17.1415535,13.860776 17.4394846,13.5997875 L12.3416951,8.55412933 C12.2193866,8.64081293 12.1008348,8.72510393 11.9888494,8.80525635 C11.6073539,9.08344573 11.2977278,9.30052656 11.059971,9.45607852 C10.8222468,9.61198614 10.5059564,9.77090069 10.1111325,9.9331455 C9.71604719,10.0955843 9.34797822,10.176545 9.00653358,10.176545 L8.99653721,10.176545 L8.98654083,10.176545 C8.64506352,10.176545 8.27699456,10.0956166 7.88194192,9.9331455 C7.48688929,9.77090069 7.17059891,9.61198614 6.93310345,9.45607852 C6.69537931,9.30052656 6.38591652,9.08347806 6.00422505,8.80525635 C5.89785844,8.72807852 5.77989474,8.64339954 5.65235935,8.55277136 L0.553589837,13.5997875 C0.851488203,13.860776 1.20217786,13.9929515 1.60660617,13.9929515 L16.3866316,13.9929515 Z" id="Shape"></path>
                    <path d="M1.01423956,5.37687298 C0.63277677,5.12516397 0.294500907,4.83688684 0,4.5121709 L0,12.1887298 L4.49317241,7.74167667 C3.59428312,7.12056813 2.43610889,6.33320554 1.01423956,5.37687298 Z" id="Shape"></path>
                    <path d="M16.9892232,5.37687298 C15.6215826,6.2930485 14.4591942,7.08176905 13.5019274,7.74345497 L17.9933031,12.1889238 L17.9933031,4.5121709 C17.7053358,4.83035566 17.370686,5.1184388 16.9892232,5.37687298 Z" id="Shape"></path>
                    <path d="M16.3866316,0.000420323326 L1.60663884,0.000420323326 C1.09100907,0.000420323326 0.694584392,0.172752887 0.416874773,0.517062356 C0.138936479,0.861533487 0.00019600726,1.29233256 0.00019600726,1.8089746 C0.00019600726,2.22629099 0.18431216,2.67846189 0.552381125,3.16561663 C0.920450091,3.65257737 1.31210526,4.03507159 1.72715064,4.3132933 C1.9546824,4.47240185 2.64083848,4.94452194 3.78561887,5.72949192 C4.4035971,6.15333949 4.94101633,6.52277136 5.40284211,6.84157044 C5.79649002,7.11303464 6.13597459,7.34812471 6.41626497,7.5432194 C6.44844283,7.5655612 6.49904537,7.60138568 6.56621053,7.64891455 C6.63856987,7.70035566 6.73013793,7.7656351 6.84310345,7.84636952 C7.06063884,8.00208314 7.24135753,8.12795381 7.3852922,8.22411085 C7.52903085,8.32030023 7.7031833,8.42774134 7.9074882,8.5470485 C8.11162976,8.666194 8.30417423,8.75578753 8.48489292,8.81537644 C8.66564428,8.87493303 8.83296915,8.90480831 8.98690018,8.90480831 L8.99689655,8.90480831 L9.00689292,8.90480831 C9.16079129,8.90480831 9.32814882,8.87493303 9.50893285,8.81537644 C9.68961887,8.75578753 9.882,8.66638799 10.0863049,8.5470485 C10.2904138,8.42774134 10.4643376,8.3200739 10.6085336,8.22411085 C10.7524682,8.12795381 10.9331869,8.00211547 11.150755,7.84636952 C11.2634918,7.7656351 11.3550599,7.70032333 11.4274192,7.64907621 C11.4946171,7.60135335 11.5451869,7.5657552 11.5775608,7.5432194 C11.7959129,7.39284065 12.1361815,7.15872055 12.5936624,6.84431871 C13.4261053,6.27187067 14.6520653,5.4293164 16.2767042,4.3132933 C16.7653176,3.97551501 17.1735354,3.56789838 17.5016189,3.0910254 C17.8291143,2.61415242 17.9933031,2.11393533 17.9933031,1.5905358 C17.9933031,1.15323788 17.8341125,0.779053118 17.5164174,0.467399538 C17.198363,0.156133949 16.821735,0.000420323326 16.3866316,0.000420323326 Z" id="Shape"></path>
                </g>
            </g>
        </g>
    </g>
</svg>