<svg xmlns="http://www.w3.org/2000/svg" width="316" height="337" viewBox="0 0 316 337">
    <defs>
        <linearGradient id="a" x1="50%" x2="50%" y1="0%" y2="100%">
            <stop offset="0%" stop-color="#F66B00"/>
            <stop offset="100%" stop-color="#F53F00"/>
        </linearGradient>
    </defs>
    <g fill="none" fill-rule="evenodd">
        <text fill="#FFF" font-family="PingFangSC-Regular, PingFang SC" font-size="12" letter-spacing="15">
            <tspan x="13" y="195">极致体验摩臣呈</tspan> <tspan x="202" y="195">现</tspan>
        </text>
        <path fill="url(#a)" d="M4.3 68.075h4.47l11.275-63.93h15.57L36.345 0H.735l-.73 4.145h15.57L4.3 68.075zm27.735 0h4.47l6-34.01H68.19l-6 34.01h4.47L78.665 0h-4.47L68.92 29.925H43.235L48.51 0h-4.47L32.035 68.075zm83.65-38.34h-23.26l4.515-25.59h24.455l.73-4.145h-28.92L81.2 68.075h29.415l1.445-4.135H86.395l5.3-30.065h23.26l.73-4.14zm28.735 38.34l5.42-30.75c2.17-12.29 4.16-24.145 5.175-32.74h.1c.28 2.415 1.59 8.05 14.525 63.49h5.96L187.605 0h-4.54l-5.4 30.63c-1.94 11-3.57 21.383-4.89 31.15h-.1c-.42-2.715-1.98-8.64-14.43-61.78h-6.265l-12.005 68.075h4.445zm80.205-38.34h-23.26l4.515-25.59h24.455l.73-4.145h-28.92L190.14 68.075h29.415L221 63.94h-25.665l5.3-30.065h23.26l.73-4.14zm40.39 38.34L254.38 32.09 276.22 0h-4.875l-18.67 28.165-.1.005L244.23 0h-5.09l10.045 32.605-22.94 35.47h4.775l19.93-31.35h.1l8.875 31.35h5.09zm18.675 0h4.47l11.27-63.93h15.575l.73-4.145H280.12l-.73 4.145h15.575l-11.275 63.93zm-238.625 83.32h3.74l9.85-55.865h-5.53C44.47 113.75 33.01 141 31.13 146.06h-.085c-.275-6.76-1.4-31.655-3.595-50.53h-5.46l-9.85 55.865h3.65L20 127.53c1.675-9.52 3.67-22.21 4.485-28.695h.165c.44 10.025 2.13 38.15 3.34 52.56h3.89c8.045-17.405 18.955-43.415 22.685-52.475h.085c-1.15 5.595-3.115 15.785-5.045 26.745l-4.54 25.73zm38.77-56.605c-10.6 0-17.175 10.045-20.41 28.38-3.25 18.425-1.05 28.97 10.13 28.97 11.595 0 17.43-11.03 20.635-29.21 3.29-18.635.825-28.14-10.355-28.14zm-.68 3.39c7.515 0 10.395 6.65 7.16 24.99-3.08 17.475-8.24 25.58-16 25.58-7.59 0-10.135-8.12-7.025-25.74 2.99-16.965 8.51-24.83 15.865-24.83zm32.435 26.295c8.325 0 9.07 4.63 7.61 12.895l-.32 1.81c-.765 4.36-1.7 9.675-1.41 12.215h3.82c-.195-3.035.52-7.58 1.31-12.05l.39-2.215c1.33-7.565.91-12.7-4.5-14.43 3.88-1.145 8.46-4.755 9.965-13.275 1.51-8.565-1.93-13.895-10.815-13.895h-12.975l-9.85 55.865h3.665l4.75-26.92h8.36zm-3.855-25.56h9.035c6.85 0 8.855 4.395 7.775 10.52-1.24 7.025-4.755 11.655-12.03 11.655h-8.69l3.91-22.175zm51.42 21.015h-19.09l3.7-21h20.075l.6-3.4H144.7l-9.85 55.865h24.14l1.19-3.395h-21.065l4.35-24.67h19.09l.6-3.4zm19.935 31.465h3.665l4.89-27.73h18.84l.6-3.395h-18.84l3.76-21.34h20.15l.6-3.4H192.94l-9.85 55.865zm40.385-55.865l-7.095 40.245c-1.78 10.1.875 16.445 11.035 16.445 10.725 0 15.455-6.76 17.26-17.01l7-39.68h-3.67l-6.98 39.6c-1.465 8.3-4.53 13.7-12.845 13.7-8.16 0-9.215-6.46-7.95-13.625l6.995-39.675h-3.75zm33.435 55.865l4.45-25.235c1.775-10.085 3.41-19.815 4.245-26.865h.08c.23 1.98 1.305 6.6 11.925 52.1h4.89l9.85-55.865h-3.725l-4.43 25.135c-1.595 9.025-2.933 17.545-4.015 25.56h-.085c-.345-2.225-1.62-7.085-11.84-50.695h-5.14l-9.85 55.865h3.645zM82.42 259.58l-.495 2.8H95.82l-.58 3.3H78.745l-.515 2.9h16.5l-.61 3.445a1.766 1.766 0 0 1-1.93 1.6c-1.7 0-3.435-.1-5.215-.2l.11 3.05h5.7c2.7 0 4.27-1.25 4.695-3.65l.75-4.245h16.795l.51-2.9H98.74l.58-3.3h14l.49-2.8H99.815l.61-3.45c5.15-.3 9.67-.7 13.605-1.2l-1.07-2.7c-7.905 1.15-17.743 1.75-29.515 1.8l.41 2.5c4.6 0 8.965-.1 13.04-.25l-.58 3.3H82.42zm2.03-18.895l-.495 2.8h5.45a22.86 22.86 0 0 1-8.195 5.945l1.13 2.65a26.34 26.34 0 0 0 8.04-7.045l-1.26 7.145h3.15l.92-5.2c.965.75 2.095 1.7 3.345 2.85l1.905-2.3a43.788 43.788 0 0 0-4.855-2.795l.22-1.25h5.1l.49-2.8H94.3l.65-3.7h13.45l-.655 3.7h-6.45l-.49 2.8h4.245a20.075 20.075 0 0 1-6.91 5.745l1.08 2.65a24.908 24.908 0 0 0 7.88-8.395h.15l-1.285 7.295h3.15l1.285-7.295h.05c.855 3.095 2.71 5.895 5.55 8.495l2.46-2.6c-2.85-1.7-4.8-3.695-5.91-5.895h4.95l.495-2.8h-7.1l.65-3.7h7.8l.545-3.1h-17.595a23.672 23.672 0 0 0-1.055-3.65l-3.855.6c.474.987.878 2.006 1.21 3.05H79.85l-3.745 21.245c-1.485 7.85-3.868 13.998-7.15 18.445l2.235 2.35c3.915-5.2 6.703-12.132 8.365-20.795l3.2-18.145H91.8l-.65 3.7h-6.7zm77.39 20.945l2.92-16.545h-14.295l1.595-9.05h16.695l.61-3.45H131.22l-7.515 42.64h39.19l.605-3.45h-17.745l1.79-10.145h14.295zm-13.28-25.595l-1.595 9.05h-14.45l1.595-9.05h14.45zm-16.625 12.345h28.745l-1.745 9.9H130.19l1.745-9.9zm-2.335 13.25h14.445l-1.79 10.145H127.81l1.79-10.145zm54.02-31.345a300.3 300.3 0 0 1-3.23 9.8h-5.25l-.605 3.45h4.6c-1.9 5.095-3.83 9.795-5.855 14.195 2.165 1.9 4.095 3.7 5.84 5.45a42.786 42.786 0 0 1-10.45 10.495l1.795 2.85a48.284 48.284 0 0 0 10.855-11.095 50.386 50.386 0 0 1 4.36 5.045l2.845-2.795a56.818 56.818 0 0 0-5.15-5.4c3.405-5.7 6.045-12.45 7.8-20.145l.365-2.05h-7.65c1.02-2.95 2.075-6.1 3.175-9.5l-3.445-.3zm-2.565 29.845a87.036 87.036 0 0 0-4.04-3.45 137.338 137.338 0 0 0 5.615-13.145h4.9a60.35 60.35 0 0 1-6.475 16.595zm7.665-1.5l-.6 3.4h10.895a23.813 23.813 0 0 1-2.285 3.9c-2.515 3.195-6.413 5.743-11.695 7.645l1.36 3.05c5.5-2 9.695-4.8 12.61-8.295a31.309 31.309 0 0 0 2.725-4.4c1.92 5 5.435 9.145 10.545 12.495l2.895-2.8c-5.18-2.95-8.65-6.795-10.505-11.595h11.4l.595-3.4h-12.745c.54-1.65 1.015-3.5 1.48-5.55h10.395l.59-3.35h-24.245l-.59 3.35h10.35a42.459 42.459 0 0 1-1.53 5.55H188.72zm7.9-26.095l-2.18 12.35h21.345l2.18-12.35H196.62zm16.345 9.35H198.32l1.12-6.35h14.645l-1.12 6.35zm12.74 11.695H244l-2.97 16.845c-.285 1.6-1.185 2.45-2.68 2.45-2 0-4.035-.1-6.155-.25l.12 3.55h6.7c3.1 0 4.99-1.65 5.555-4.85l3.13-17.745h18.245l.615-3.5h-18.245l1.73-9.795h-3.7l-1.73 9.795H230.32c1.45-3.7 3.04-7.895 4.68-12.645 12.63-.2 22.98-1.35 31.07-3.55l-1.165-3.05c-7.75 2.3-17.557 3.483-29.42 3.55a24.468 24.468 0 0 1-2.845-.3c-1.695 5.65-4.04 12.15-6.935 19.495zm5.82 3.85a75.412 75.412 0 0 1-11.575 14.595l2.715 2.2A88.215 88.215 0 0 0 234.4 258.98l-2.875-1.55zm25.545-.3l-3.47 1.55a93.587 93.587 0 0 1 5.75 15.845l3.65-1.7a125.7 125.7 0 0 0-5.93-15.695zM67.63 293.275l-.585 3.3h9.7a106.914 106.914 0 0 1-10.46 11.695l-.46 2.6h9.4a38.15 38.15 0 0 1-5.44 12.7c-1.375-2.4-2.4-5.4-3.165-9l-3.25 1.15c.825 4.4 2.132 8.05 3.92 10.95a29.726 29.726 0 0 1-8.185 6.145l1.245 3.15a35.346 35.346 0 0 0 8.94-6.745 12.695 12.695 0 0 0 3.615 2.745c4.58 2.35 12.47 3.55 23.715 3.55h7.5l1.335-3.6c-3.435.2-6.7.3-9.9.3-9.33-.1-16.015-1.05-20.035-2.895a13.238 13.238 0 0 1-3.82-3c3.285-4.45 5.55-9.95 6.9-16.45l.36-2.045h-8a116.695 116.695 0 0 0 9.805-11.65l.51-2.9H67.63zm16.92 10.9l-3.815 21.645h23.895l.6-3.4h-10.4l2.135-12.1h8.7l.58-3.295h-8.7l1.815-10.3a54.954 54.954 0 0 0 10.1-2.55l-1.21-3.05c-6.595 2.25-14.65 3.4-24.095 3.4l.525 3.25a97.818 97.818 0 0 0 11.155-.6L91.38 322.42h-6.595L88 304.175h-3.45zm41.88 21.645a85.411 85.411 0 0 1-15.95 4.25l-.165 3.495a91.422 91.422 0 0 0 15.515-4.345l.6-3.4zm-1.375-35.295a104.142 104.142 0 0 1-9.09 15.25 4.237 4.237 0 0 1-1.73 1.3l.32 3.295c2.67-.4 5.34-.8 7.97-1.25-3.385 4.45-6.14 7.6-8.275 9.5a4.97 4.97 0 0 1-1.825 1l.42 3.3a82.605 82.605 0 0 0 13.97-3.25l.57-3.25a70.178 70.178 0 0 1-9.495 2.55c3.395-3.4 8.01-9.15 13.77-17.145l-3.08-1.25c-1.275 1.85-2.485 3.6-3.675 5.25-2.17.4-4.28.75-6.375 1 3.06-3.75 6.29-8.75 9.685-14.95l-3.16-1.35zm10.58 3.2l-.57 3.25h10.045l-.8 4.55h-11.6l-.58 3.3h22.845a49.879 49.879 0 0 1-3.905 7.395l3.275 1a76.8 76.8 0 0 0 4.515-9.445l.395-2.25H147.81l.8-4.55h10.75l.57-3.25h-10.745l.58-3.3h-3.5l-.58 3.3h-10.05zm-7.195 25.795l-.585 3.3h13.05a19.454 19.454 0 0 1-2.83 4.15c-2.58 2.7-6.655 4.845-12.285 6.445l1.445 3.15c5.805-1.75 10.175-4.15 13.165-7.195.38-.45.81-.9 1.195-1.4a54.014 54.014 0 0 1 11.24 8.545l2.545-3.1a57.907 57.907 0 0 0-12.015-8.095c.44-.8.83-1.6 1.24-2.5H156.9l.58-3.3h-11.645c.295-1.1.59-2.2.85-3.4l1.63-9.245h-3.5l-1.63 9.245c-.255 1.15-.555 2.3-.9 3.4H128.44zm3.385-8.15l-2.13 2.45a27.244 27.244 0 0 1 6.655 5.05l2.17-2.65a28.224 28.224 0 0 0-6.695-4.85zm4.755-5.145l-2.02 2.395a23.791 23.791 0 0 1 6.12 4.7l2.15-2.55a25.593 25.593 0 0 0-6.25-4.545zm27.59 2.205l-.57 3.23h6.905a46.069 46.069 0 0 1-10.355 13.65l.86 3.875a57.571 57.571 0 0 0 8.71-11.965l-3.37 19.11h3.425l3.53-20.005c1.105 2.185 2.39 5.015 3.855 8.54l2.57-3.03a93.219 93.219 0 0 0-5.885-8.59l.28-1.585h5.96l.57-3.23h-5.96l3.09-17.525h-3.425l-3.09 17.525h-7.1zm17.12-14.295a49.826 49.826 0 0 1-3.93 10.72l2.295.795a47.493 47.493 0 0 0 4.255-11.17l-2.62-.345zm-11.965.84l-2.78.845c.322 3.384.468 6.781.44 10.18l2.585-.595c.045-3.925-.037-7.402-.245-10.43zm27.8-4.22l-.58 3.28H185.92l-.515 2.93h10.625l-.585 3.325h-9.235l-.51 2.88h9.235l-.595 3.375h-11.765l-.525 2.98h26.81l.525-2.98h-11.62l.595-3.375h8.94l.505-2.88h-8.935l.585-3.325h10.325l.52-2.93h-10.33l.58-3.28h-3.425zm-11.175 31.28h14.445l-.62 3.525H185.33l.62-3.525zm14.935-2.78H186.44l.65-3.675h14.445l-.65 3.675zm-16.04 9.035h14.45l-.525 2.98c-.205 1.14-.855 1.735-1.895 1.735l-3.34-.2.33 3.18h3.475c2.68 0 4.31-1.34 4.77-3.97l3.415-19.365H184.23l-4.16 23.585h3.375l1.4-7.945zm55.9-36.885c-6.775 1.835-15.085 2.78-24.815 2.78l.48 3.175c10.425 0 18.895-.995 25.5-2.98l-1.165-2.975zm-3.315 6.4a59.31 59.31 0 0 1-5.44 10.03l2.695 1.045a58.71 58.71 0 0 0 5.595-10.33l-2.85-.745zm18.635-7.395a47.79 47.79 0 0 1-14.56 10.775l.96 3.275a58.866 58.866 0 0 0 15.51-11.37l-1.91-2.68zm-.2 13.505a53.062 53.062 0 0 1-16.09 11.565l1.01 3.275a62.862 62.862 0 0 0 16.95-12.21l-1.87-2.63zm-.96 13.6a64.219 64.219 0 0 1-19.565 15.24l1.045 3.38a77.459 77.459 0 0 0 20.48-15.94l-1.96-2.68zm-40.835-4.07l-.61 3.475h10.025a54.459 54.459 0 0 1-14 12.96l1.595 3.075a60.2 60.2 0 0 0 12.49-12.015l-2.705 15.34h3.575l2.295-13.005a74.827 74.827 0 0 1 6.33 6.055l2.645-3.175a87.89 87.89 0 0 0-8.395-6.155l.54-3.08h9.83l.615-3.475h-9.83l.865-4.915h-3.575l-.865 4.915H214.07zm14.195-14.895l-3.175.845a50.01 50.01 0 0 1 1.605 7.495l3.22-1.09a52.035 52.035 0 0 0-1.65-7.25zm-9.1.945l-3 .945a42.85 42.85 0 0 1 2.22 8.535l3.06-.745a41.957 41.957 0 0 0-2.28-8.735z"/>
    </g>
</svg>
