<svg xmlns="http://www.w3.org/2000/svg" width="155" height="35" viewBox="0 0 155 35">
    <g fill="#FFF" fill-rule="evenodd">
        <path fill-rule="nonzero" d="M10.057 25.406c8.19 0 14.83-6.592 14.83-14.724 0-3.708-1.383-7.093-3.662-9.682C25.301 3.623 28 8.177 28 13.36c0 8.13-6.642 14.723-14.83 14.723A14.841 14.841 0 0 1 2 23.041a14.841 14.841 0 0 0 8.057 2.365z"/>
        <path d="M18.07 28.5L6.902 34.371l2.133-12.435L0 13.129l12.486-1.815L18.07 0l5.584 11.314L36.14 13.13l-9.035 8.807 2.133 12.435zM55.58 8.804h3.46l.23-1.53h-7.286l-.235 1.558h2.807l-.338 2.24H51.41l-.057.383c1.165.605 2.08 1.12 2.743 1.545l-1.441 1.474a17.564 17.564 0 0 0-1.6-1.049l-.372 2.467h-2.891l.455-3.02c-1.071 1.276-2.21 2.367-3.414 3.275a11.504 11.504 0 0 0-1.309-1.475l-.384 2.552c-.89 5.897-2.437 10.263-4.641 13.098-.632-.7-1.465-1.503-2.5-2.41 1.788-2.457 3.056-6.161 3.803-11.113l1.86-12.333h11.213l-.473-1.474L56.693 2l.605 2.466h10.334l-.424 2.807h-5.046l-.23 1.531h4.478l-.337 2.24h-3.7a9.739 9.739 0 0 0 4.06 3.061c-.912.908-1.575 1.607-1.99 2.098a13.933 13.933 0 0 1-3.113-3.416l-.425 2.821h-2.892l.458-3.033c-1.275 1.559-2.55 2.806-3.825 3.742a16.639 16.639 0 0 0-1.774-1.588 21.455 21.455 0 0 0 4.809-3.685h-2.438l.338-2.24zm-10.436.028h3.713l.236-1.559h-4.451l-1.052 6.974c1.387-.737 2.756-1.795 4.107-3.175h-2.891l.338-2.24zm-2.761 14.544h9.355l.18-1.19h-8.193l.333-2.212h8.193l.195-1.29-8.084.213a25.762 25.762 0 0 0-.135-2.297c5.3-.056 11.558-.255 18.772-.595.014.038.053.841.119 2.41l-7.172.184-.208 1.375h7.74l-.334 2.211h-7.74l-.179 1.19h9.412l-.359 2.382h-9.412l-.051.34c-.181 1.2-.576 2.124-1.184 2.772-.608.647-1.394 1.018-2.358 1.112-.964.095-2.567.152-4.81.17a29.47 29.47 0 0 0-.273-3.26c1.573.095 2.78.142 3.621.142.832 0 1.35-.425 1.554-1.276h-9.342l.36-2.381zM70.819 4h25.487l-.548 3.629h-9.95l-.552 3.657h8.165l-1.613 10.688h-8.165l-.56 3.714h10.405l-.548 3.629H67L70.82 4zm10.194 7.044l.552-3.657h-7.541l-.552 3.657h7.541zM72.377 18.3h15.706l.577-3.827H72.954l-.577 3.827zm6.463 7.144l.56-3.713h-7.54l-.56 3.713h7.54zM104.3 7.397l1.785 14.723c.096.826.096.826.201 2.112.61-1.347.704-1.53.962-2.112l7.092-14.723c.652-1.407 1.02-2.265 1.3-3.305h7.193c-.594.918-.996 1.622-2.142 3.734l-9.81 18.426c-.791 1.5-1.285 2.54-1.576 3.306h-7.958c-.01-.796-.128-1.837-.384-3.306L97.765 7.826C97.473 6.051 97.305 5.194 97 4h7.162c-.054.98.006 2.265.139 3.397zm20.645-3.305h6.734c-.41 1.255-.659 2.295-1.062 4.53l-2.957 16.406c-.38 2.112-.524 3.244-.572 4.53h-6.734c.4-1.194.692-2.48 1.062-4.53l2.957-16.406c.414-2.296.513-3.183.572-4.53zm12.52 25.466h-6.581c.426-1.347.735-2.724 1.061-4.53l2.985-16.56c.298-1.652.485-3.03.56-4.468 1.428.061 2.525.092 4.484.092h6.703c6.06 0 8.872 2.908 7.912 8.233-.982 5.449-5.056 8.693-10.994 8.693h-4.836l-.706 3.918c-.326 1.806-.505 3.305-.589 4.622zm2.232-13.743h4.56c2.143 0 3.613-1.194 3.994-3.306.38-2.112-.615-3.214-2.818-3.214h-4.561l-1.175 6.52z"/>
    </g>
</svg>
