<svg xmlns="http://www.w3.org/2000/svg" xmlns:xlink="http://www.w3.org/1999/xlink" width="212" height="79" viewBox="0 0 212 79">
    <defs>
        <linearGradient id="b" x1="50%" x2="50%" y1="0%" y2="100%">
            <stop offset="0%" stop-color="#F66B00"/>
            <stop offset="100%" stop-color="#F53F00"/>
        </linearGradient>
        <path id="a" d="M51.522 33.248h20.136l-.194.792h-9.648l-.677 2.76h7.584l-2.19 8.928h-7.8c-.753 1.896-1.694 3.384-2.798 4.464 3.08 1.632 7.008 2.544 11.785 2.736l-.405.768c-4.897-.192-8.927-1.176-12.05-2.928-1.96 1.536-4.986 2.52-9.087 3L46 53.024c3.916-.408 6.792-1.272 8.61-2.616-1.415-.888-2.65-1.92-3.663-3.072l.76-.456a14.553 14.553 0 0 0 3.572 2.952c1.075-1.056 1.938-2.424 2.638-4.104h-7.32l2.19-8.928h7.536L61 34.04h-9.672l.194-.792zm14.402 11.736l.83-3.384h-6.792l-.318 1.296c-.207.744-.425 1.44-.632 2.088h6.912zm-7.728 0c.236-.672.455-1.368.632-2.088l.318-1.296h-6.72l-.83 3.384h6.6zm-5.588-4.128h6.72l.806-3.288h-6.72l-.806 3.288zm8.342-3.288l-.806 3.288h6.792l.806-3.288H60.95zm16.864 3.36l-3.143 12.816h-.792l3.432-13.992a34.91 34.91 0 0 1-5.794 7.968l-.13-.84a31.848 31.848 0 0 0 6.287-9h-3.768l.194-.792h3.864l1.224-4.992h.792l-1.224 4.992h3.24l-.194.792h-3.24l-.518 2.112c.768 1.368 1.514 2.928 2.242 4.656l-.65.696c-.67-1.872-1.27-3.336-1.822-4.416zm7.618-6.792h-3.12l.2-.816h10.752l-.135.552c-1.159 2.376-2.205 4.392-3.193 6.072h3.504l-.124.504c-1.31 3.384-3.21 6.24-5.701 8.568.967 1.536 2.246 2.88 3.781 4.056l-.669.672c-1.577-1.2-2.85-2.568-3.793-4.104-1.912 1.632-4.126 3.024-6.604 4.128L80.062 53c2.497-1.08 4.65-2.424 6.485-4.032-1.368-2.448-2.03-5.328-1.991-8.616-1.88 5.904-4.433 10.344-7.653 13.296l-.495-.528c3.68-3.36 6.469-8.76 8.341-16.2l.683-2.784zm1.772 14.208c2.257-2.16 3.985-4.704 5.213-7.656h-3.672c.911-1.464 2.047-3.648 3.431-6.552h-5.952l-.8 3.264c-.52 4.272.073 7.92 1.78 10.944zm24.467-11.496c-.297.624-.618 1.248-.903 1.824-.045 3.216.262 5.976.909 8.232 2.134-2.832 3.726-6.192 4.746-10.056h-4.752zm-.59 10.824c-.67-2.16-1.025-4.728-1.045-7.68-.988 1.68-1.99 3.12-3.033 4.344l-.375-.624c2.362-2.88 4.443-6.768 6.244-11.664l.733.144a79.187 79.187 0 0 1-1.572 3.864h7.248l-.194.792h-1.896c-1.144 4.272-2.915 7.872-5.27 10.824.833 2.376 2.066 4.2 3.703 5.448l-.626.696c-1.645-1.32-2.86-3.12-3.662-5.424-1.94 2.232-4.217 4.08-6.862 5.568l-.26-.696a23.7 23.7 0 0 0 6.866-5.592zm-6.54 2.592l-.2.816c-3.152.816-6.51 1.488-10.095 2.016l.003-.792c1.642-.24 3.22-.504 4.778-.792l1.283-5.232h-3.912l.2-.816h3.912l.847-3.456h.792l-.847 3.456h3.816l-.2.816h-3.816l-1.242 5.064a73.673 73.673 0 0 0 4.68-1.08zm-5.769-16.896h10.056l-.2.816h-4.656c-2.193 3.072-3.917 5.112-5.184 6.168 2.237-.12 4.504-.36 6.746-.696a27.191 27.191 0 0 0-.866-3.024l.803-.24c.602 1.656 1.03 3.432 1.315 5.304l-.82.312c-.1-.576-.18-1.128-.272-1.632-2.495.288-5.2.552-8.127.744l-.01-.744.186-.072c1.16-.72 2.957-2.76 5.413-6.12h-4.584l.2-.816zm25.566 6.24a43.72 43.72 0 0 1-4.025 4.08l-.04-.816c3.483-3.24 6.292-6.864 8.427-10.872l.656.36c-1.19 2.112-2.49 4.08-3.885 5.856l-3.843 15.672h-.792l3.502-14.28zm3.838-3.024h6.864l1.112-4.536h.792l-1.112 4.536h6.912l-.2.816h-5.448c.086 4.344 1.257 8.184 3.529 11.544l-.687.648c-2.328-3.624-3.517-7.68-3.586-12.192h-.72l-2.549 10.392h4.224l-.194.792h-4.224l-1.29 5.256h-.791l1.289-5.256h-4.2l.194-.792h4.2L134.84 37.4h-.696c-2.502 5.112-5.728 9.264-9.661 12.48l-.261-.696c3.735-3 6.813-6.936 9.202-11.784h-5.448l.2-.816zM157 39.32h6.576l-.189.768h-6.576l.189-.768zm-6.09 12.792h7.945c1.667-2.688 3.397-6.024 5.178-10.056l.739.216c-1.638 3.744-3.327 7.008-5.101 9.84h4.104l-.195.792h-12.864l.195-.792zm3.85-9.336c.316 2.04.483 4.392.484 7.032l-.767.192c.012-2.4-.137-4.728-.502-6.96l.785-.264zm3.855-.648c.273 1.92.38 4.128.32 6.624l-.791.192a46.241 46.241 0 0 0-.308-6.576l.78-.24zm2.893-9.84h.816c.483 3.216 1.979 6.024 4.462 8.424l-.626.696c-2.351-2.256-3.834-5.016-4.438-8.328-2.575 3.648-5.393 6.432-8.444 8.4l-.273-.648c3.301-2.208 6.132-5.04 8.503-8.544zm-8.613 1.944H146.8l.189-.768h6.936l-3.547 9.864h1.656c-1.272 5.184-2.223 8.184-2.831 9-.62.768-1.633 1.176-3.025 1.176-.552 0-1.122-.024-1.746-.024l-.057-.744c.852.048 1.446.072 1.806.072 1.296 0 2.17-.432 2.64-1.272.494-.84 1.244-3.312 2.256-7.44h-6.216l3.053-7.848.75.072-2.75 7.008h3.648l3.334-9.096zm-4.433 12.792l-.182.744a36.723 36.723 0 0 1-5.753 1.536l.08-.816c2.177-.36 4.118-.84 5.855-1.464z"/>
    </defs>
    <g fill="none" fill-rule="evenodd">
        <path stroke="#B47E47" d="M12.63.5L.597 67.564h199.17L211.406.5H12.629z"/>
        <path fill="#FFF" d="M20.2 11H200l-11.8 68H8z"/>
        <g>
            <use fill="#D0021B" xlink:href="#a"/>
            <use fill="url(#b)" xlink:href="#a"/>
        </g>
    </g>
</svg>
