<svg xmlns="http://www.w3.org/2000/svg" xmlns:xlink="http://www.w3.org/1999/xlink" width="212" height="79" viewBox="0 0 212 79">
    <defs>
        <linearGradient id="b" x1="50%" x2="50%" y1="0%" y2="100%">
            <stop offset="0%" stop-color="#F66B00"/>
            <stop offset="100%" stop-color="#F53F00"/>
        </linearGradient>
        <path id="a" d="M51.17 33.688h20.136l-.194.792h-9.648l-.677 2.76h7.584l-2.19 8.928h-7.8c-.752 1.896-1.693 3.384-2.798 4.464 3.08 1.632 7.008 2.544 11.785 2.736l-.404.768c-4.897-.192-8.928-1.176-12.05-2.928-1.96 1.536-4.986 2.52-9.088 3l-.177-.744c3.916-.408 6.792-1.272 8.61-2.616-1.415-.888-2.65-1.92-3.663-3.072l.76-.456a14.553 14.553 0 0 0 3.571 2.952c1.075-1.056 1.939-2.424 2.639-4.104h-7.32l2.19-8.928h7.535l.677-2.76h-9.672l.194-.792zm14.402 11.736l.83-3.384H59.61l-.318 1.296c-.206.744-.425 1.44-.632 2.088h6.912zm-7.728 0c.237-.672.456-1.368.632-2.088l.318-1.296h-6.72l-.83 3.384h6.6zm-5.587-4.128h6.72l.806-3.288h-6.72l-.806 3.288zm8.342-3.288l-.806 3.288h6.792l.806-3.288h-6.792zm13.921-.984l.679.072a37.508 37.508 0 0 1-2.572 6.864l-.667-.216a37.837 37.837 0 0 0 2.56-6.72zm5.278-.384c.276 1.224.439 2.616.53 4.2l-.743.192a23.698 23.698 0 0 0-.511-4.176l.724-.216zm-1.453-4.056h.816l-5.297 21.6h-.816l5.297-21.6zm5.007 5.616a25.309 25.309 0 0 1-3.323 5.232l-.489-.552c2.136-2.64 3.67-5.664 4.637-9.024l.745.096a30.752 30.752 0 0 1-1.208 3.456h4.392l1.183-4.824h.816l-1.183 4.824h5.616l-.194.792h-5.616l-1.619 6.6h5.088l-.2.816H86.91l-1.724 7.032H91.4l-.2.816H76.945l.2-.816h7.224l1.724-7.032h-5.76l.2-.816h5.76l1.619-6.6h-4.56zm18.529.192h7.824l-.183.744h-7.824l.183-.744zm.235 2.76h6.192l-1.1 4.488h-6.193l1.101-4.488zm4.476 3.768l.742-3.024h-4.584l-.742 3.024h4.584zm12.079-9.912l-.195.792h-6.24c-.386 2.064-.558 3.744-.486 5.016.01.936.117 1.776.294 2.52 1.481-1.536 2.882-3.432 4.161-5.712l.608.36c-1.428 2.496-2.96 4.536-4.549 6.12.134.336.273.648.419.936.567.816 1.181 1.248 1.83 1.248.503 0 1.308-1.128 2.378-3.336l.601.384c-1.254 2.472-2.28 3.72-3.096 3.72-.96 0-1.754-.48-2.43-1.44a4.563 4.563 0 0 1-.389-.864c-1.13.984-2.26 1.776-3.409 2.352l-.29-.672a14.716 14.716 0 0 0 3.444-2.4c-.244-.864-.393-1.824-.446-2.88-.037-1.416.135-3.192.544-5.352h-10.416l-.906 3.696c-.82 3.048-2.194 5.52-4.093 7.392l-.482-.576c1.72-1.632 2.975-3.912 3.76-6.816l1.1-4.488h11.184c.152-.816.364-1.68.587-2.592h.816c-.223.912-.435 1.776-.587 2.592h3.768a10.485 10.485 0 0 0-.7-2.232l.802-.144c.286.696.5 1.488.666 2.376h1.752zM98.24 47.56l.75.168c-1.261 2.208-2.734 4.104-4.454 5.736l-.608-.456c1.726-1.56 3.157-3.384 4.312-5.448zm9 6.36h-5.856c-1.152 0-1.557-.6-1.274-1.752l1.2-4.896h.84L100.991 52c-.176.72.09 1.104.858 1.104h5.424c.696 0 1.205-.12 1.552-.36.419-.336.888-1.272 1.415-2.832l.709.24c-.544 1.728-1.127 2.832-1.713 3.264-.466.336-1.131.504-1.995.504zm5.577-5.712c1.165 1.608 2.018 3.024 2.54 4.224l-.766.48c-.546-1.296-1.393-2.736-2.552-4.272l.778-.432zm-7.29-1.296c.893 1.248 1.559 2.352 1.971 3.312l-.765.48c-.414-1.056-1.049-2.184-1.955-3.384l.748-.408zm22.538-12.144h2.352c.494-.744.922-1.512 1.266-2.328l.763.12c-.338.792-.76 1.536-1.213 2.208h3.432l-1.73 7.056h-3.6l.257 2.568h3.576l-.182.744h-5.112c-.32.912-.646 1.752-.972 2.496h4.56c-.724 2.952-1.357 4.752-1.882 5.424-.537.624-1.262.936-2.21.984h-1.512l-.015-.72h1.488c.828-.048 1.432-.36 1.784-.912.333-.576.788-1.944 1.354-4.056h-3.888c-.398.84-.796 1.584-1.165 2.208-.894 1.392-2.034 2.616-3.427 3.696l-.327-.624c1.262-1.032 2.276-2.136 3.075-3.336.797-1.296 1.581-3.024 2.345-5.16h-2.664l.182-.744h4.2l-.258-2.568h-2.208l1.73-7.056zm4.302 6.336l.588-2.4h-5.088l-.588 2.4h5.088zm-4.323-3.12h5.088l.612-2.496h-5.088l-.612 2.496zm8.88 0c-.327.552-.625 1.08-.94 1.584-.166 3.12-.021 5.76.451 7.944 1.763-2.688 3.122-5.88 4.065-9.528h-3.576zm-1.09 10.416c-.527-2.16-.719-4.704-.613-7.68a23.155 23.155 0 0 1-1.82 2.232l-.35-.624c2.172-2.4 4.034-5.688 5.623-9.816l.732.144a42.973 42.973 0 0 1-2.042 4.512h5.688l-.2.816h-1.584c-1.103 4.104-2.628 7.584-4.618 10.416.586 2.112 1.5 3.768 2.729 4.92l-.633.72c-1.223-1.176-2.125-2.784-2.686-4.8-1.491 1.968-3.217 3.624-5.173 4.944l-.261-.696c2.01-1.344 3.747-3.048 5.208-5.088zm-12.481-15.264c1.217 1.104 2.17 2.208 2.872 3.36l-.658.528c-.677-1.056-1.648-2.184-2.92-3.36l.706-.528zm-1.766 5.832c1.11 1.152 1.984 2.28 2.644 3.408l-.717.576c-.594-1.104-1.463-2.256-2.609-3.456l.682-.528zm1.257 7.008l.625.288a98.134 98.134 0 0 1-5.038 7.824l-.668-.312a91.983 91.983 0 0 0 5.081-7.8zm30.624 1.176l-.577 2.352h8.448l.577-2.352h-8.448zm8.618-.696l.606-2.472h-8.448l-.606 2.472h8.448zm-9.366 3.744l-.989 4.032h-.816l2.696-10.992h10.056l-2.284 9.312c-.253 1.032-.886 1.56-1.87 1.56h-1.968l-.028-.768 1.914.024c.624 0 1.043-.336 1.202-.984l.535-2.184h-8.448zm8.28-17.712h.816l-.436 1.776h5.952l-.182.744h-5.952l-.571 2.328h5.136l-.177.72h-5.136l-.559 2.28h6.624l-.182.744h-14.136l.182-.744h6.696l.56-2.28h-5.209l.177-.72h5.208l.57-2.328h-6.023l.182-.744h6.024l.436-1.776zm-14.6 4.536l.678.072a41.742 41.742 0 0 1-2.511 6.912l-.643-.216a42.26 42.26 0 0 0 2.475-6.768zm5.08-.456c.305 1.296.487 2.808.549 4.512l-.714.168c-.055-1.536-.218-3.024-.543-4.44l.707-.24zm-1.424-3.984h.816l-5.297 21.6h-.816l5.297-21.6z"/>
    </defs>
    <g fill="none" fill-rule="evenodd">
        <path stroke="#B47E47" d="M12.63.5L.597 67.564h199.17L211.406.5H12.629z"/>
        <path fill="#FFF" d="M20.2 11H200l-11.8 68H8z"/>
        <g>
            <use fill="#D0021B" xlink:href="#a"/>
            <use fill="url(#b)" xlink:href="#a"/>
        </g>
    </g>
</svg>
