<?xml version="1.0" encoding="UTF-8"?>
<svg width="48px" height="48px" viewBox="0 0 48 48" version="1.1" xmlns="http://www.w3.org/2000/svg" xmlns:xlink="http://www.w3.org/1999/xlink">
    <!-- Generator: Sketch 50 (54983) - http://www.bohemiancoding.com/sketch -->
    <title>right-iconhover-photo</title>
    <desc>Created with Sketch.</desc>
    <defs></defs>
    <g id="Page-1" stroke="none" stroke-width="1" fill="none" fill-rule="evenodd">
        <g id="Symbols" transform="translate(-162.000000, -120.000000)">
            <g id="right-iconhover-photo" transform="translate(162.000000, 120.000000)">
                <circle id="Oval-Copy-5" stroke="#A3713F" stroke-width="2" fill="#F5A623" fill-rule="evenodd" cx="24" cy="24" r="23"></circle>
                <path d="M35.0625,25.3809524 C35.5802812,25.3809524 36,24.9545714 36,24.4285714 L36,18.2380952 C36,16.1375238 34.31775,14.4285714 32.25,14.4285714 L30.8268281,14.4285714 C30.4253437,14.4285714 30.0686719,14.1691905 29.9392969,13.7830476 L29.6556562,12.9365238 C29.2675313,11.7782381 28.1975625,11 26.9931562,11 L21.0038906,11 C19.8228281,11 18.75975,11.7582381 18.3586406,12.8867143 L18.034125,13.7996667 C17.9003906,14.1758095 17.5460625,14.4285714 17.1523594,14.4285714 L15.75,14.4285714 C13.68225,14.4285714 12,16.1375238 12,18.2380952 L12,29.1904762 C12,31.2910476 13.68225,33 15.75,33 L32.25,33 C34.31775,33 36,31.2910476 36,29.1904762 C36,28.6644762 35.5802812,28.2380952 35.0625,28.2380952 C34.5447188,28.2380952 34.125,28.6644762 34.125,29.1904762 C34.125,30.2407619 33.283875,31.0952381 32.25,31.0952381 L15.75,31.0952381 C14.716125,31.0952381 13.875,30.2407619 13.875,29.1904762 L13.875,18.2380952 C13.875,17.1878095 14.716125,16.3333333 15.75,16.3333333 L17.1523594,16.3333333 C18.3334219,16.3333333 19.3965,15.5750952 19.7976094,14.446619 L20.122125,13.5336667 C20.2558594,13.1575238 20.6101875,12.9047619 21.0038906,12.9047619 L26.9931562,12.9047619 C27.3946406,12.9047619 27.7512656,13.1641905 27.8806875,13.5502857 L28.1643281,14.3968095 C28.5524063,15.5550952 29.622375,16.3333333 30.8268281,16.3333333 L32.25,16.3333333 C33.283875,16.3333333 34.125,17.1878095 34.125,18.2380952 L34.125,24.4285714 C34.125,24.9545714 34.5447188,25.3809524 35.0625,25.3809524 Z" id="Shape" fill="#000000" fill-rule="nonzero"></path>
                <path d="M23.859375,17 C20.6285156,17 18,19.6702381 18,22.952381 C18,26.2345238 20.6285156,28.9047619 23.859375,28.9047619 C27.0902344,28.9047619 29.71875,26.2345238 29.71875,22.952381 C29.71875,19.6702381 27.0902344,17 23.859375,17 Z M23.859375,27 C21.6623906,27 19.875,25.1842381 19.875,22.952381 C19.875,20.7205238 21.6623906,18.9047619 23.859375,18.9047619 C26.0563594,18.9047619 27.84375,20.7205238 27.84375,22.952381 C27.84375,25.1842381 26.0563594,27 23.859375,27 Z" id="Shape" fill="#000000" fill-rule="nonzero"></path>
            </g>
        </g>
    </g>
</svg>