<?xml version="1.0" encoding="UTF-8"?>
<svg width="48px" height="48px" viewBox="0 0 48 48" version="1.1" xmlns="http://www.w3.org/2000/svg" xmlns:xlink="http://www.w3.org/1999/xlink">
    <!-- Generator: Sketch 50 (54983) - http://www.bohemiancoding.com/sketch -->
    <title>right-icon-content</title>
    <desc>Created with Sketch.</desc>
    <defs></defs>
    <g id="Page-1" stroke="none" stroke-width="1" fill="none" fill-rule="evenodd">
        <g id="Symbols" transform="translate(-219.000000, -63.000000)">
            <g id="right-icon-content" transform="translate(219.000000, 63.000000)">
                <circle id="Oval-Copy-2" stroke="#A3713F" stroke-width="2" fill="#000000" fill-rule="evenodd" cx="24" cy="24" r="23"></circle>
                <path d="M32.4155166,14.2115 C30.1572242,12.1405156 27.1601715,11 23.9766394,11 C20.7931072,11 17.7961014,12.1405156 15.537809,14.2115 C13.2564522,16.3035781 12.0000312,19.0917969 12.0000312,22.0625 C12.0000312,24.3792969 12.7561482,26.5743594 14.1927797,28.4455625 L12.0682417,33.7110781 C11.9255049,34.0648438 12.0109786,34.4699844 12.2844289,34.7355781 C12.4626745,34.9086875 12.6974347,35 12.9359376,35 C13.0633294,35 13.1917973,34.9739375 13.313154,34.9203594 L19.3321482,32.2618906 C20.8030721,32.8347969 22.3635867,33.125 23.9766394,33.125 C25.9956803,33.125 27.9919844,32.6522188 29.749692,31.75775 C30.2104172,31.5232813 30.39423,30.959 30.1602183,30.4973281 C29.9262066,30.0357031 29.3630253,29.8515781 28.9022534,30.086 C27.4058324,30.8474844 25.7026277,31.25 23.9766394,31.25 C22.4770838,31.25 21.0331072,30.9577813 19.6848499,30.3814531 C19.4467213,30.2796406 19.177154,30.2812812 18.9402417,30.3859063 L14.6667914,32.273375 L16.1342066,28.6363906 C16.2648733,28.3125313 16.205037,27.9426875 15.9788382,27.6768594 C14.6001248,26.05625 13.8713762,24.1148281 13.8713762,22.0625 C13.8713762,16.9964844 18.4045692,12.875 23.9766394,12.875 C29.5487096,12.875 34.0819025,16.9964844 34.0819025,22.0625 C34.0819025,23.807 33.5416452,25.5043438 32.519423,26.9709688 C32.2235634,27.3954687 32.3271423,27.9799062 32.7508616,28.2763438 C33.1744406,28.5728281 33.7578791,28.4689531 34.053692,28.0444531 C35.2964055,26.2614688 35.9532476,24.1929219 35.9532476,22.0625 C35.9532476,19.0917969 34.6968733,16.3035781 32.4155166,14.2115 Z" id="Shape" fill="#E38E37" fill-rule="nonzero"></path>
            </g>
        </g>
    </g>
</svg>