<?xml version="1.0" encoding="UTF-8"?>
<svg width="48px" height="48px" viewBox="0 0 48 48" version="1.1" xmlns="http://www.w3.org/2000/svg" xmlns:xlink="http://www.w3.org/1999/xlink">
    <!-- Generator: Sketch 50 (54983) - http://www.bohemiancoding.com/sketch -->
    <title>right-icon-photo</title>
    <desc>Created with Sketch.</desc>
    <defs></defs>
    <g id="Page-1" stroke="none" stroke-width="1" fill="none" fill-rule="evenodd">
        <g id="Symbols" transform="translate(-162.000000, -63.000000)">
            <g id="right-icon-photo" transform="translate(162.000000, 63.000000)">
                <circle id="Oval-Copy" stroke="#A3713F" stroke-width="2" fill="#000000" cx="24" cy="24" r="23"></circle>
                <g id="photo-camera" stroke-width="1" transform="translate(12.000000, 11.000000)" fill="#E38E37">
                    <path d="M23.0625,14.3809524 C23.5802812,14.3809524 24,13.9545714 24,13.4285714 L24,7.23809524 C24,5.13752381 22.31775,3.42857143 20.25,3.42857143 L18.8268281,3.42857143 C18.4253437,3.42857143 18.0686719,3.16919048 17.9392969,2.78304762 L17.6556562,1.93652381 C17.2675313,0.778238095 16.1975625,0 14.9931562,0 L9.00389063,0 C7.82282813,0 6.75975,0.758238095 6.35864063,1.88671429 L6.034125,2.79966667 C5.90039062,3.17580952 5.5460625,3.42857143 5.15235937,3.42857143 L3.75,3.42857143 C1.68225,3.42857143 0,5.13752381 0,7.23809524 L0,18.1904762 C0,20.2910476 1.68225,22 3.75,22 L20.25,22 C22.31775,22 24,20.2910476 24,18.1904762 C24,17.6644762 23.5802812,17.2380952 23.0625,17.2380952 C22.5447188,17.2380952 22.125,17.6644762 22.125,18.1904762 C22.125,19.2407619 21.283875,20.0952381 20.25,20.0952381 L3.75,20.0952381 C2.716125,20.0952381 1.875,19.2407619 1.875,18.1904762 L1.875,7.23809524 C1.875,6.18780952 2.716125,5.33333333 3.75,5.33333333 L5.15235937,5.33333333 C6.33342187,5.33333333 7.3965,4.57509524 7.79760937,3.44661905 L8.122125,2.53366667 C8.25585938,2.15752381 8.6101875,1.9047619 9.00389063,1.9047619 L14.9931562,1.9047619 C15.3946406,1.9047619 15.7512656,2.16419048 15.8806875,2.55028571 L16.1643281,3.39680952 C16.5524063,4.55509524 17.622375,5.33333333 18.8268281,5.33333333 L20.25,5.33333333 C21.283875,5.33333333 22.125,6.18780952 22.125,7.23809524 L22.125,13.4285714 C22.125,13.9545714 22.5447188,14.3809524 23.0625,14.3809524 Z" id="Shape" fill-rule="nonzero"></path>
                    <path d="M12.046875,6.28571429 C8.81601562,6.28571429 6.1875,8.95595238 6.1875,12.2380952 C6.1875,15.5202381 8.81601562,18.1904762 12.046875,18.1904762 C15.2777344,18.1904762 17.90625,15.5202381 17.90625,12.2380952 C17.90625,8.95595238 15.2777344,6.28571429 12.046875,6.28571429 Z M12.046875,16.2857143 C9.84989063,16.2857143 8.0625,14.4699524 8.0625,12.2380952 C8.0625,10.0062381 9.84989063,8.19047619 12.046875,8.19047619 C14.2438594,8.19047619 16.03125,10.0062381 16.03125,12.2380952 C16.03125,14.4699524 14.2438594,16.2857143 12.046875,16.2857143 Z" id="Shape" fill-rule="nonzero"></path>
                </g>
            </g>
        </g>
    </g>
</svg>