<?xml version="1.0" encoding="UTF-8"?>
<svg width="18px" height="24px" viewBox="0 0 18 24" version="1.1" xmlns="http://www.w3.org/2000/svg" xmlns:xlink="http://www.w3.org/1999/xlink">
    <!-- Generator: Sketch 50 (54983) - http://www.bohemiancoding.com/sketch -->
    <title>customer-service</title>
    <desc>Created with Sketch.</desc>
    <defs></defs>
    <g id="Page-1" stroke="none" stroke-width="1" fill="none" fill-rule="evenodd">
        <g id="第三屏" transform="translate(-1242.000000, -408.000000)" fill="#FFFFFF" fill-rule="nonzero">
            <g id="Group-6" transform="translate(1242.000000, 341.000000)">
                <g id="customer-service" transform="translate(0.000000, 67.000000)">
                    <path d="M9,0 C4.8,0 1.38461538,3.46875 1.38461538,7.734375 C1.38461538,8.7515625 1.38461538,9.5296875 1.38461538,10.546875 C1.38461538,11.709375 2.31692308,12.65625 3.46153846,12.65625 L4.63846154,12.65625 C5.41846154,14.3109375 7.07076923,15.46875 9,15.46875 C10.9292308,15.46875 12.5769231,14.3109375 13.3615385,12.65625 L14.5384615,12.65625 C15.6830769,12.65625 16.6153846,11.709375 16.6153846,10.546875 C16.6153846,9.5296875 16.6153846,8.7515625 16.6153846,7.734375 C16.6153846,3.46875 13.2,0 9,0 Z M12.4615385,10.546875 C12.4615385,10.7859375 12.4384615,11.025 12.3923077,11.25 L10.3846154,11.25 C10.0015385,11.25 9.69230769,11.5640625 9.69230769,11.953125 C9.69230769,12.3421875 10.0015385,12.6515625 10.3846154,12.6515625 L11.7507692,12.6515625 C11.1184615,13.5 10.1261538,14.0625 9,14.0625 C7.08923077,14.0625 5.53846154,12.4875 5.53846154,10.546875 L5.53846154,9.84375 L6.11538462,9.84375 C7.63384615,9.84375 9.06,9.215625 10.0938462,8.1421875 C10.5738462,9.0234375 11.4461538,9.628125 12.4661538,9.778125 L12.4661538,10.546875 L12.4615385,10.546875 Z M14.5384615,7.03125 L13.7723077,7.03125 C13.4261538,5.015625 11.6723077,2.9484375 9.25846154,2.8171875 C7.92,2.7609375 6.63692308,3.225 5.66307692,4.1625 C4.86,4.9359375 4.37538462,5.9390625 4.22307692,7.03125 L3.46153846,7.03125 C3.24,7.03125 3.02769231,7.078125 2.82923077,7.14375 C3.12923077,3.9328125 5.76461538,1.40625 9,1.40625 C12.2353846,1.40625 14.8707692,3.9328125 15.1707692,7.14375 C14.9723077,7.078125 14.76,7.03125 14.5384615,7.03125 Z" id="Shape"></path>
                    <path d="M5.61230769,15.8390625 C4.94307692,15.39375 4.35692308,14.8265625 3.89538462,14.1609375 C1.68,14.6109375 0,16.5984375 0,18.984375 L0,23.296875 C0,23.6859375 0.309230769,24 0.692307692,24 L8.30769231,24 L8.30769231,19.396875 C6.74769231,18.5015625 5.85230769,17.3296875 5.61230769,15.8390625 Z" id="Shape"></path>
                    <path d="M9,16.875 C8.42769231,16.875 7.87846154,16.790625 7.35230769,16.640625 C7.68923077,17.2359375 8.21538462,17.746875 9,18.1875 C9.78461538,17.7421875 10.3107692,17.23125 10.6476923,16.640625 C10.1215385,16.790625 9.57230769,16.875 9,16.875 Z" id="Shape"></path>
                    <path d="M14.1046154,14.1609375 C13.6430769,14.8265625 13.0615385,15.39375 12.3876923,15.8390625 C12.1476923,17.3296875 11.2523077,18.5015625 9.69230769,19.3921875 L9.69230769,24 L17.3076923,24 C17.6907692,24 18,23.6859375 18,23.296875 L18,18.984375 C18,16.5984375 16.32,14.6109375 14.1046154,14.1609375 Z M14.5384615,21.09375 L11.7692308,21.09375 C11.3861538,21.09375 11.0769231,20.7796875 11.0769231,20.390625 C11.0769231,20.0015625 11.3861538,19.6875 11.7692308,19.6875 L14.5384615,19.6875 C14.9215385,19.6875 15.2307692,20.0015625 15.2307692,20.390625 C15.2307692,20.7796875 14.9215385,21.09375 14.5384615,21.09375 Z" id="Shape"></path>
                </g>
            </g>
        </g>
    </g>
</svg>