<?xml version="1.0" encoding="UTF-8"?>
<svg width="18px" height="16px" viewBox="0 0 18 16" version="1.1" xmlns="http://www.w3.org/2000/svg" xmlns:xlink="http://www.w3.org/1999/xlink">
    <!-- Generator: Sketch 50 (54983) - http://www.bohemiancoding.com/sketch -->
    <title>telephone-of-old-design</title>
    <desc>Created with Sketch.</desc>
    <defs></defs>
    <g id="Page-1" stroke="none" stroke-width="1" fill="none" fill-rule="evenodd">
        <g id="第三屏" transform="translate(-1242.000000, -341.000000)" fill="#FFFFFF" fill-rule="nonzero">
            <g id="Group-6" transform="translate(1242.000000, 341.000000)">
                <g id="telephone-of-old-design">
                    <path d="M15.0841812,8.80877419 C13.8879526,8.52748387 12.3584669,7.79251613 11.8045812,6.88 C11.4944669,6.37212903 11.4620669,5.79922581 11.712524,5.30993548 C11.7264097,5.2836129 11.7505812,5.24387097 11.7685812,5.21290323 C11.7541812,5.10503226 11.7793812,4.96206452 11.8570383,4.77574194 C11.8626954,4.76335484 11.8632097,4.76180645 11.867324,4.75303226 L5.72006687,4.75303226 C5.72315258,4.76025806 5.72315258,4.76025806 5.72726687,4.76954839 C5.72726687,4.76954839 5.72778115,4.77006452 5.72778115,4.77058065 C5.86560972,4.98632258 5.98595258,5.17935484 6.05023829,5.30374194 C6.30480972,5.79974194 6.27189544,6.37212903 5.96280972,6.88051613 C5.40738115,7.79406452 3.87840972,8.52851613 2.68115258,8.80980645 L2.35046687,14.3752258 C2.31446687,14.9858065 2.71303829,15.4843871 3.23658115,15.4843871 L14.5292669,15.4843871 C15.0528097,15.4843871 15.4508669,14.9852903 15.4143526,14.3752258 L15.0841812,8.80877419 Z M7.03715258,12.6415484 L5.97669544,12.6415484 C5.78126687,12.6415484 5.62286687,12.4820645 5.62286687,12.2864516 C5.62286687,12.0908387 5.78126687,11.9313548 5.97669544,11.9313548 L7.03715258,11.9313548 C7.23206687,11.9313548 7.39098115,12.0908387 7.39098115,12.2864516 C7.39098115,12.4820645 7.23206687,12.6415484 7.03715258,12.6415484 Z M7.03715258,11.2882581 L5.97669544,11.2882581 C5.78126687,11.2882581 5.62286687,11.1292903 5.62286687,10.9336774 C5.62286687,10.7365161 5.78126687,10.5785806 5.97669544,10.5785806 L7.03715258,10.5785806 C7.23206687,10.5785806 7.39098115,10.7365161 7.39098115,10.9336774 C7.39098115,11.1292903 7.23206687,11.2882581 7.03715258,11.2882581 Z M7.03715258,9.93496774 L5.97669544,9.93496774 C5.78126687,9.93496774 5.62286687,9.776 5.62286687,9.57987097 C5.62286687,9.38425806 5.78126687,9.22477419 5.97669544,9.22477419 L7.03715258,9.22477419 C7.23206687,9.22477419 7.39098115,9.38425806 7.39098115,9.57987097 C7.39098115,9.77548387 7.23206687,9.93496774 7.03715258,9.93496774 Z M9.41366687,12.6415484 L8.35372401,12.6415484 C8.15829544,12.6415484 7.99989544,12.4820645 7.99989544,12.2864516 C7.99989544,12.0908387 8.15880972,11.9313548 8.35372401,11.9313548 L9.41418115,11.9313548 C9.60909544,11.9313548 9.76800972,12.0908387 9.76800972,12.2864516 C9.76698115,12.4820645 9.60858115,12.6415484 9.41366687,12.6415484 Z M9.41366687,11.2882581 L8.35372401,11.2882581 C8.15829544,11.2882581 7.99989544,11.1292903 7.99989544,10.9336774 C7.99989544,10.7365161 8.15880972,10.5785806 8.35372401,10.5785806 L9.41418115,10.5785806 C9.60909544,10.5785806 9.76800972,10.7365161 9.76800972,10.9336774 C9.76698115,11.1292903 9.60858115,11.2882581 9.41366687,11.2882581 Z M9.41366687,9.93496774 L8.35372401,9.93496774 C8.15829544,9.93496774 7.99989544,9.776 7.99989544,9.57987097 C7.99989544,9.38425806 8.15880972,9.22477419 8.35372401,9.22477419 L9.41418115,9.22477419 C9.60909544,9.22477419 9.76800972,9.38425806 9.76800972,9.57987097 C9.76698115,9.77548387 9.60858115,9.93496774 9.41366687,9.93496774 Z M11.7896669,12.6415484 L10.7292097,12.6415484 C10.5342954,12.6415484 10.3758954,12.4820645 10.3758954,12.2864516 C10.3758954,12.0908387 10.5342954,11.9313548 10.7292097,11.9313548 L11.7896669,11.9313548 C11.9856097,11.9313548 12.1434954,12.0908387 12.1434954,12.2864516 C12.1434954,12.4820645 11.986124,12.6415484 11.7896669,12.6415484 Z M11.7896669,11.2882581 L10.7292097,11.2882581 C10.5342954,11.2882581 10.3758954,11.1292903 10.3758954,10.9336774 C10.3758954,10.7365161 10.5342954,10.5785806 10.7292097,10.5785806 L11.7896669,10.5785806 C11.9856097,10.5785806 12.1434954,10.7365161 12.1434954,10.9336774 C12.1434954,11.1292903 11.986124,11.2882581 11.7896669,11.2882581 Z M11.7896669,9.93496774 L10.7292097,9.93496774 C10.5342954,9.93496774 10.3758954,9.776 10.3758954,9.57987097 C10.3758954,9.38425806 10.5342954,9.22477419 10.7292097,9.22477419 L11.7896669,9.22477419 C11.9856097,9.22477419 12.1434954,9.38425806 12.1434954,9.57987097 C12.1434954,9.77548387 11.986124,9.93496774 11.7896669,9.93496774 Z M17.6772097,5.59587097 C17.6550954,5.70735484 17.6540669,5.82348387 17.6103526,5.92929032 C17.3547526,6.54967742 16.8754383,7.06322581 16.5226383,7.63509677 C16.0674954,8.36490323 12.1995526,6.79174194 12.6978954,5.81780645 C12.8856097,5.45754839 13.6179526,4.46245161 13.6729812,4.06245161 C13.7233812,3.70529032 13.2522954,3.42606452 12.8172097,3.39045161 C11.669324,3.29703226 10.2030954,3.38167742 8.98475258,3.38941935 L8.98475258,3.39045161 C8.95235258,3.39045161 8.91635258,3.38993548 8.88292401,3.38993548 C8.85000972,3.38993548 8.81400972,3.39045161 8.78160972,3.39045161 L8.78160972,3.38941935 C7.56326687,3.38167742 6.09703829,3.29754839 4.94915258,3.39045161 C4.51406687,3.42606452 4.04298115,3.70529032 4.09286687,4.06245161 C4.14840972,4.46245161 4.88023829,5.45754839 5.06795258,5.81780645 C5.56732401,6.79174194 1.69938115,8.36490323 1.24423829,7.63509677 C0.890409723,7.06322581 0.412124009,6.54967742 0.156009723,5.92929032 C0.112809723,5.82348387 0.111781152,5.70735484 0.089666866,5.59587097 C-0.478104563,3.05135484 1.70863829,0.455225806 5.00160972,0.188903226 C6.25903829,0.0867096774 7.51955258,0.0289032258 8.78160972,0.00619354839 L8.78160972,0 C8.81555258,0.000516129032 8.84898115,0.00258064516 8.88292401,0.00309677419 C8.91635258,0.00258064516 8.95029544,0.000516129032 8.98475258,0 L8.98475258,0.00619354839 C10.2457812,0.0289032258 11.5062954,0.0867096774 12.7647526,0.188903226 C16.0572097,0.454709677 18.2439526,3.05187097 17.6772097,5.59587097 Z" id="Shape"></path>
                </g>
            </g>
        </g>
    </g>
</svg>