<?xml version="1.0" encoding="UTF-8"?>
<svg width="144px" height="28px" viewBox="0 0 144 28" version="1.1" xmlns="http://www.w3.org/2000/svg" xmlns:xlink="http://www.w3.org/1999/xlink">
    <!-- Generator: Sketch 50 (54983) - http://www.bohemiancoding.com/sketch -->
    <title>THE PHOTO</title>
    <desc>Created with Sketch.</desc>
    <defs></defs>
    <g id="Page-1" stroke="none" stroke-width="1" fill="none" fill-rule="evenodd">
        <g id="第二屏" transform="translate(-587.000000, -175.000000)" fill="#FFFFFF">
            <path d="M594.38,178.672 L594.38,202 L591.896,202 L591.896,178.672 L587,178.672 L587,176.512 L599.312,176.512 L599.312,178.672 L594.38,178.672 Z M614.504,202 L614.504,189.904 L604.748,189.904 L604.748,202 L602.228,202 L602.228,176.512 L604.748,176.512 L604.748,187.672 L614.504,187.672 L614.504,176.512 L617.024,176.512 L617.024,202 L614.504,202 Z M622.856,202 L622.856,176.512 L633.116,176.512 L633.116,178.744 L625.304,178.744 L625.304,187.708 L632.612,187.708 L632.612,189.832 L625.304,189.832 L625.304,199.732 L633.476,199.732 L633.476,202 L622.856,202 Z M657.056,183.424 C657.056,184.600006 656.882002,185.637995 656.534,186.538 C656.185998,187.438005 655.724003,188.187997 655.148,188.788 C654.571997,189.388003 653.906004,189.843998 653.15,190.156 C652.393996,190.468002 651.608004,190.624 650.792,190.624 L647.048,190.624 L647.048,202 L644.564,202 L644.564,176.512 L650.576,176.512 C651.320004,176.512 652.075996,176.619999 652.844,176.836 C653.612004,177.052001 654.307997,177.429997 654.932,177.97 C655.556003,178.510003 656.065998,179.223996 656.462,180.112 C656.858002,181.000004 657.056,182.103993 657.056,183.424 Z M654.572,183.46 C654.572,182.619996 654.464001,181.894003 654.248,181.282 C654.031999,180.669997 653.732002,180.172002 653.348,179.788 C652.963998,179.403998 652.526002,179.122001 652.034,178.942 C651.541998,178.761999 651.008003,178.672 650.432,178.672 L647.048,178.672 L647.048,188.5 L650.468,188.5 C651.596006,188.5 652.561996,188.086004 653.366,187.258 C654.170004,186.429996 654.572,185.164009 654.572,183.46 Z M673.4,202 L673.4,189.904 L663.644,189.904 L663.644,202 L661.124,202 L661.124,176.512 L663.644,176.512 L663.644,187.672 L673.4,187.672 L673.4,176.512 L675.92,176.512 L675.92,202 L673.4,202 Z M697.52,189.22 C697.52,191.21201 697.328002,193.029992 696.944,194.674 C696.559998,196.318008 696.008004,197.727994 695.288,198.904 C694.567996,200.080006 693.692005,200.991997 692.66,201.64 C691.627995,202.288003 690.452007,202.612 689.132,202.612 C687.811993,202.612 686.630005,202.288003 685.586,201.64 C684.541995,200.991997 683.654004,200.080006 682.922,198.904 C682.189996,197.727994 681.632002,196.318008 681.248,194.674 C680.863998,193.029992 680.672,191.21201 680.672,189.22 C680.672,187.25199 680.857998,185.446008 681.23,183.802 C681.602002,182.157992 682.147996,180.754006 682.868,179.59 C683.588004,178.425994 684.469995,177.520003 685.514,176.872 C686.558005,176.223997 687.763993,175.9 689.132,175.9 C690.452007,175.9 691.627995,176.223997 692.66,176.872 C693.692005,177.520003 694.567996,178.425994 695.288,179.59 C696.008004,180.754006 696.559998,182.157992 696.944,183.802 C697.328002,185.446008 697.52,187.25199 697.52,189.22 Z M694.892,189.22 C694.892,187.683992 694.772001,186.244007 694.532,184.9 C694.291999,183.555993 693.926002,182.392005 693.434,181.408 C692.941998,180.423995 692.336004,179.644003 691.616,179.068 C690.895996,178.491997 690.068005,178.204 689.132,178.204 C688.147995,178.204 687.290004,178.491997 686.558,179.068 C685.825996,179.644003 685.220002,180.423995 684.74,181.408 C684.259998,182.392005 683.900001,183.555993 683.66,184.9 C683.419999,186.244007 683.3,187.683992 683.3,189.22 C683.3,190.756008 683.419999,192.195993 683.66,193.54 C683.900001,194.884007 684.259998,196.059995 684.74,197.068 C685.220002,198.076005 685.825996,198.867997 686.558,199.444 C687.290004,200.020003 688.147995,200.308 689.132,200.308 C690.092005,200.308 690.931996,200.020003 691.652,199.444 C692.372004,198.867997 692.971998,198.076005 693.452,197.068 C693.932002,196.059995 694.291999,194.884007 694.532,193.54 C694.772001,192.195993 694.892,190.756008 694.892,189.22 Z M706.736,178.672 L706.736,202 L704.252,202 L704.252,178.672 L699.356,178.672 L699.356,176.512 L711.668,176.512 L711.668,178.672 L706.736,178.672 Z M730.352,189.22 C730.352,191.21201 730.160002,193.029992 729.776,194.674 C729.391998,196.318008 728.840004,197.727994 728.12,198.904 C727.399996,200.080006 726.524005,200.991997 725.492,201.64 C724.459995,202.288003 723.284007,202.612 721.964,202.612 C720.643993,202.612 719.462005,202.288003 718.418,201.64 C717.373995,200.991997 716.486004,200.080006 715.754,198.904 C715.021996,197.727994 714.464002,196.318008 714.08,194.674 C713.695998,193.029992 713.504,191.21201 713.504,189.22 C713.504,187.25199 713.689998,185.446008 714.062,183.802 C714.434002,182.157992 714.979996,180.754006 715.7,179.59 C716.420004,178.425994 717.301995,177.520003 718.346,176.872 C719.390005,176.223997 720.595993,175.9 721.964,175.9 C723.284007,175.9 724.459995,176.223997 725.492,176.872 C726.524005,177.520003 727.399996,178.425994 728.12,179.59 C728.840004,180.754006 729.391998,182.157992 729.776,183.802 C730.160002,185.446008 730.352,187.25199 730.352,189.22 Z M727.724,189.22 C727.724,187.683992 727.604001,186.244007 727.364,184.9 C727.123999,183.555993 726.758002,182.392005 726.266,181.408 C725.773998,180.423995 725.168004,179.644003 724.448,179.068 C723.727996,178.491997 722.900005,178.204 721.964,178.204 C720.979995,178.204 720.122004,178.491997 719.39,179.068 C718.657996,179.644003 718.052002,180.423995 717.572,181.408 C717.091998,182.392005 716.732001,183.555993 716.492,184.9 C716.251999,186.244007 716.132,187.683992 716.132,189.22 C716.132,190.756008 716.251999,192.195993 716.492,193.54 C716.732001,194.884007 717.091998,196.059995 717.572,197.068 C718.052002,198.076005 718.657996,198.867997 719.39,199.444 C720.122004,200.020003 720.979995,200.308 721.964,200.308 C722.924005,200.308 723.763996,200.020003 724.484,199.444 C725.204004,198.867997 725.803998,198.076005 726.284,197.068 C726.764002,196.059995 727.123999,194.884007 727.364,193.54 C727.604001,192.195993 727.724,190.756008 727.724,189.22 Z" id="THE-PHOTO"></path>
        </g>
    </g>
</svg>