<?xml version="1.0" encoding="UTF-8"?>
<svg width="134px" height="26px" viewBox="0 0 134 26" version="1.1" xmlns="http://www.w3.org/2000/svg" xmlns:xlink="http://www.w3.org/1999/xlink">
    <!-- Generator: Sketch 50 (54983) - http://www.bohemiancoding.com/sketch -->
    <title>THE EVENT</title>
    <desc>Created with Sketch.</desc>
    <defs></defs>
    <g id="Page-1" stroke="none" stroke-width="1" fill="none" fill-rule="evenodd">
        <g id="第二屏" transform="translate(-1197.000000, -176.000000)" fill="#FFFFFF">
            <path d="M1204.38,178.672 L1204.38,202 L1201.896,202 L1201.896,178.672 L1197,178.672 L1197,176.512 L1209.312,176.512 L1209.312,178.672 L1204.38,178.672 Z M1224.504,202 L1224.504,189.904 L1214.748,189.904 L1214.748,202 L1212.228,202 L1212.228,176.512 L1214.748,176.512 L1214.748,187.672 L1224.504,187.672 L1224.504,176.512 L1227.024,176.512 L1227.024,202 L1224.504,202 Z M1232.856,202 L1232.856,176.512 L1243.116,176.512 L1243.116,178.744 L1235.304,178.744 L1235.304,187.708 L1242.612,187.708 L1242.612,189.832 L1235.304,189.832 L1235.304,199.732 L1243.476,199.732 L1243.476,202 L1232.856,202 Z M1254.564,202 L1254.564,176.512 L1264.824,176.512 L1264.824,178.744 L1257.012,178.744 L1257.012,187.708 L1264.32,187.708 L1264.32,189.832 L1257.012,189.832 L1257.012,199.732 L1265.184,199.732 L1265.184,202 L1254.564,202 Z M1276.488,202 L1273.212,202 L1266.912,176.512 L1269.648,176.512 L1274.904,199.156 L1274.976,199.156 L1280.232,176.512 L1282.896,176.512 L1276.488,202 Z M1286.028,202 L1286.028,176.512 L1296.288,176.512 L1296.288,178.744 L1288.476,178.744 L1288.476,187.708 L1295.784,187.708 L1295.784,189.832 L1288.476,189.832 L1288.476,199.732 L1296.648,199.732 L1296.648,202 L1286.028,202 Z M1312.416,202 L1303.524,180.796 L1303.416,180.796 L1303.416,202 L1301.076,202 L1301.076,176.512 L1304.208,176.512 L1313.028,197.716 L1313.136,197.716 L1313.136,176.512 L1315.44,176.512 L1315.44,202 L1312.416,202 Z M1325.736,178.672 L1325.736,202 L1323.252,202 L1323.252,178.672 L1318.356,178.672 L1318.356,176.512 L1330.668,176.512 L1330.668,178.672 L1325.736,178.672 Z" id="THE-EVENT"></path>
        </g>
    </g>
</svg>