<?xml version="1.0" encoding="UTF-8"?>
<svg width="32px" height="32px" viewBox="0 0 32 32" version="1.1" xmlns="http://www.w3.org/2000/svg" xmlns:xlink="http://www.w3.org/1999/xlink">
    <!-- Generator: Sketch 50 (54983) - http://www.bohemiancoding.com/sketch -->
    <title>zoom in</title>
    <desc>Created with Sketch.</desc>
    <defs></defs>
    <g id="Page-1" stroke="none" stroke-width="1" fill="none" fill-rule="evenodd">
        <g id="第二屏" transform="translate(-755.000000, -354.000000)" fill="#FFFFFF" fill-rule="nonzero">
            <g id="Group-4" transform="translate(587.000000, 246.000000)">
                <g id="zoom-in" transform="translate(168.000000, 108.000000)">
                    <g id="magnifier-tool">
                        <path d="M23.9610864,11.9805761 C23.9610864,5.36447737 18.5968724,0 11.980642,0 C5.36454321,0 6.58436214e-05,5.36447737 6.58436214e-05,11.9805761 C6.58436214e-05,18.5966749 5.36454321,23.9608889 11.980642,23.9608889 C18.5968724,23.9608889 23.9610864,18.5966749 23.9610864,11.9805761 Z M11.980642,20.9656626 C7.02577778,20.9656626 2.99529218,16.9355062 2.99529218,11.980642 C2.99529218,7.02577778 7.02577778,2.99529218 11.980642,2.99529218 C16.9353745,2.99529218 20.9661893,7.02577778 20.9661893,11.980642 C20.9661893,16.9355062 16.9353745,20.9656626 11.980642,20.9656626 Z" id="Shape"></path>
                        <path d="M31.0704198,26.8356872 L23.741037,19.5057119 C22.6489547,21.2041481 21.2036872,22.6486914 19.505251,23.7408395 L26.8352263,31.0708148 C28.0053992,32.2407243 29.9026831,32.2407243 31.0703539,31.0708148 C32.2405926,29.9028148 32.2405926,28.0055309 31.0704198,26.8356872 Z" id="Shape"></path>
                    </g>
                </g>
            </g>
        </g>
    </g>
</svg>