<svg xmlns="http://www.w3.org/2000/svg" width="28" height="23"><defs><filter id="a" width="133.3%" height="142.1%" x="-16.7%" y="-10.5%" filterUnits="objectBoundingBox"><feOffset dy="2" in="SourceAlpha" result="shadowOffsetOuter1"/><feGaussianBlur in="shadowOffsetOuter1" result="shadowBlurOuter1" stdDeviation="1"/><feColorMatrix in="shadowBlurOuter1" result="shadowMatrixOuter1" values="0 0 0 0 1 0 0 0 0 1 0 0 0 0 1 0 0 0 1 0"/><feMerge><feMergeNode in="shadowMatrixOuter1"/><feMergeNode in="SourceGraphic"/></feMerge></filter></defs><g fill="none" filter="url(#a)" transform="translate(2)"><path fill="#4A4A4A" d="M9.11 18.922H1.176A1.188 1.188 0 0 1 0 17.723v-8.1c0-.662.526-1.2 1.176-1.2H9.11c.65 0 1.176.537 1.176 1.2v8.1c0 .663-.526 1.2-1.176 1.2z"/><ellipse cx="2.449" cy="10.922" fill="#FFF" rx="1" ry="1"/><ellipse cx="7.837" cy="10.922" fill="#FFF" rx="1" ry="1"/><ellipse cx="2.449" cy="16.422" fill="#FFF" rx="1" ry="1"/><ellipse cx="7.837" cy="16.422" fill="#FFF" rx="1" ry="1"/><path fill="#4A4A4A" d="M22.89 10.233l-7.493 2.663a1.17 1.17 0 0 1-1.497-.738l-2.61-7.65a1.206 1.206 0 0 1 .724-1.527L19.508.317a1.17 1.17 0 0 1 1.496.739l2.61 7.649a1.207 1.207 0 0 1-.724 1.528z"/><ellipse cx="14.022" cy="4.914" fill="#FFF" rx="1" ry="1"/><ellipse cx="19.11" cy="3.106" fill="#FFF" rx="1" ry="1"/><ellipse cx="15.794" cy="10.108" fill="#FFF" rx="1" ry="1"/><ellipse cx="5.143" cy="13.839" fill="#FFF" rx="1" ry="1"/><ellipse cx="20.882" cy="8.3" fill="#FFF" rx="1" ry="1"/></g></svg>