<svg xmlns="http://www.w3.org/2000/svg" width="16" height="19"><defs><filter id="a" width="166.7%" height="153.3%" x="-33.3%" y="-13.3%" filterUnits="objectBoundingBox"><feOffset dy="2" in="SourceAlpha" result="shadowOffsetOuter1"/><feGaussianBlur in="shadowOffsetOuter1" result="shadowBlurOuter1" stdDeviation="1"/><feColorMatrix in="shadowBlurOuter1" result="shadowMatrixOuter1" values="0 0 0 0 1 0 0 0 0 1 0 0 0 0 1 0 0 0 1 0"/><feMerge><feMergeNode in="shadowMatrixOuter1"/><feMergeNode in="SourceGraphic"/></feMerge></filter></defs><g fill="none" filter="url(#a)" transform="translate(2)"><path fill="#4A4A4A" d="M6.982 9.964a.689.689 0 0 0-.192-.146 2.27 2.27 0 0 0-.49-.178v1.342c.27-.032.582-.134.724-.396a.634.634 0 0 0 .054-.42.428.428 0 0 0-.097-.201z"/><path fill="#000" d="M7.023 10.598l.008-.013-.008.013z"/><path fill="#4A4A4A" d="M5.031 7.819a.586.586 0 0 0-.056.497.41.41 0 0 0 .157.178c.072.051.151.09.232.125.068.028.144.055.226.081V7.486c-.207.046-.434.144-.559.333z"/><path fill="#000" d="M7.053 10.575l-.028.05c.01-.02.02-.036.028-.05zm-.016-.01c.002-.004.003-.005 0 0z"/><path fill="#4A4A4A" d="M6.756 3.264C7.856 2.305 8.59.146 8.138.05c-.6-.125-1.905.425-2.535.522C4.71.685 3.736-.433 3.19.19c-.444.507.319 2.35 1.512 3.154-3.56 1.817-8.566 10.939.166 11.6 12.082.916 6.032-9.91 1.89-11.68zm1.038 7.194a1.331 1.331 0 0 1-.49.895c-.286.23-.646.338-1.003.368v.393a.377.377 0 0 1-.12.276.348.348 0 0 1-.384.06.373.373 0 0 1-.207-.336v-.43a2.257 2.257 0 0 1-.182-.043 1.736 1.736 0 0 1-.869-.555 1.64 1.64 0 0 1-.312-.594.648.648 0 0 1-.028-.125.381.381 0 0 1 .038-.207.356.356 0 0 1 .347-.197c.14.013.262.113.306.251.013.043.022.086.038.129a.936.936 0 0 0 .21.328c.126.126.286.207.452.256v-1.46c-.326-.088-.662-.2-.931-.418a1.117 1.117 0 0 1-.315-.393 1.268 1.268 0 0 1-.11-.528 1.3 1.3 0 0 1 .107-.535c.07-.157.169-.298.291-.415.262-.25.61-.39.959-.44v-.41c0-.105.044-.207.12-.276a.348.348 0 0 1 .383-.059c.125.06.207.193.207.335v.406a2.5 2.5 0 0 1 .14.022c.342.064.676.211.927.467a1.41 1.41 0 0 1 .368.69.38.38 0 0 1-.03.211.357.357 0 0 1-.337.213.36.36 0 0 1-.317-.237c-.015-.04-.022-.083-.037-.123a.66.66 0 0 0-.226-.299 1.128 1.128 0 0 0-.488-.198v1.397c.205.051.41.107.607.187.297.122.579.309.74.603a3.488 3.488 0 0 1 .002.001c.05.09.026.047 0 .002.13.236.172.518.144.787z"/></g></svg>