<svg xmlns="http://www.w3.org/2000/svg" width="56" height="56"><defs><linearGradient id="a" x1="50%" x2="50%" y1="0%" y2="100%"><stop offset="0%" stop-color="#D63E3E"/><stop offset="100%" stop-color="#AE1D1D"/></linearGradient></defs><path fill="url(#a)" d="M1269.066 913h-40.247c-4.37 0-7.819 3.275-7.819 7.423v41.154c0 4.148 3.45 7.423 7.82 7.423h40.36c4.37 0 7.82-3.275 7.82-7.423v-41.263c-.115-4.04-3.565-7.314-7.934-7.314zm-34.132 7.28c3.294 0 6 2.705 6 6 0 3.293-2.706 6-6 6s-6-2.707-6-6c0-3.295 2.589-6 6-6zm.115 41.897c-3.294 0-6-2.706-6-6 0-3.295 2.706-6 6-6s6 2.705 6 6c0 3.294-2.588 6-6 6zm14.029-14.604c-3.294 0-6-2.706-6-6s2.706-6 6-6 6 2.706 6 6-2.706 6-6 6zm13.799-27.294c3.294 0 6 2.645 6 5.865s-2.706 5.864-6 5.864-6-2.645-6-5.864c0-3.22 2.706-5.865 6-5.865zm.23 41.898c-3.294 0-6-2.706-6-6 0-3.295 2.706-6 6-6s6 2.705 6 6c0 3.294-2.706 6-6 6z" transform="translate(-1221 -913)"/></svg>