<?xml version="1.0" encoding="UTF-8"?>
<svg width="47px" height="47px" viewBox="0 0 47 47" version="1.1" xmlns="http://www.w3.org/2000/svg" xmlns:xlink="http://www.w3.org/1999/xlink">
    <!-- Generator: Sketch 43.1 (39012) - http://www.bohemiancoding.com/sketch -->
    <title>bottom_icon_6dlq</title>
    <desc>Created with Sketch.</desc>
    <defs>
        <linearGradient x1="50%" y1="0%" x2="50%" y2="100%" id="linearGradient-1">
            <stop stop-color="#FFFFFF" offset="0%"></stop>
            <stop stop-color="#E3E3E3" offset="100%"></stop>
        </linearGradient>
        <linearGradient x1="50%" y1="0%" x2="50%" y2="100%" id="linearGradient-2">
            <stop stop-color="#FFFFFF" offset="0%"></stop>
            <stop stop-color="#E3E3E3" offset="100%"></stop>
        </linearGradient>
        <path d="M22.9987369,41.5776842 C22.9987369,41.5776842 21.2947369,39.0248421 21.2947369,37.6429474 C21.2947369,36.4745263 22.0374737,35.5183158 22.9987369,35.5183158 C23.9562106,35.5183158 24.704,36.4745263 24.704,37.6429474 C24.704,39.184 22.9987368,41.5776842 22.9987369,41.5776842 Z M25.5225263,14.4703158 C24.2467369,13.088421 22.0652632,12.9810526 20.6808421,14.2555789 C19.2976842,15.5313684 19.191579,17.7141052 20.4698947,19.0934737 C21.7456842,20.4778947 23.928421,20.584 25.3115789,19.3082105 C26.6947369,18.0324211 26.8008421,15.8522105 25.5225263,14.4703158 Z M35,32.8063158 L27.6016842,31.3157895 C27.1254737,32.912421 25.2067369,34.1326316 22.9747368,34.1326316 C20.7389474,34.1326316 18.8202105,32.9098947 18.344,31.2627368 L11,32.6976842 L11,32.0610526 C11,28.4458947 12.0117895,25.8425263 14.2981053,23.6610526 C13.4985263,13.3524211 18.128,6.81684209 22.7044211,4.15789472 L22.9722105,4 L23.2374737,4.15789472 C27.8164211,6.81684209 32.3903158,13.3536842 31.6475789,23.6648421 C33.9894737,25.8437895 35,28.4496842 35,32.168421 L35,32.8063158 Z" id="path-3"></path>
        <filter x="-2.1%" y="-1.3%" width="104.2%" height="105.3%" filterUnits="objectBoundingBox" id="filter-4">
            <feOffset dx="0" dy="1" in="SourceAlpha" result="shadowOffsetOuter1"></feOffset>
            <feColorMatrix values="0 0 0 0 0   0 0 0 0 0   0 0 0 0 0  0 0 0 0.5 0" type="matrix" in="shadowOffsetOuter1"></feColorMatrix>
        </filter>
    </defs>
    <g id="index" stroke="none" stroke-width="1" fill="none" fill-rule="evenodd" opacity="0.772361866">
        <g id="新首页（2018尊享版)-" transform="translate(-1244.000000, -1145.000000)">
            <g id="bottom" transform="translate(0.000000, 1131.000000)">
                <g id="Group-4" transform="translate(1237.000000, 15.000000)">
                    <g id="bottom_icon_6dlq" transform="translate(8.000000, 0.000000)">
                        <circle id="Oval-12" stroke="url(#linearGradient-1)" cx="22.5" cy="22.5" r="22.5"></circle>
                        <g id="Shape" fill-rule="nonzero">
                            <use fill="black" fill-opacity="1" filter="url(#filter-4)" xlink:href="#path-3"></use>
                            <use fill="url(#linearGradient-2)" fill-rule="evenodd" xlink:href="#path-3"></use>
                        </g>
                    </g>
                </g>
            </g>
        </g>
    </g>
</svg>