<?xml version="1.0" encoding="UTF-8"?>
<svg width="66px" height="23px" viewBox="0 0 66 23" version="1.1" xmlns="http://www.w3.org/2000/svg" xmlns:xlink="http://www.w3.org/1999/xlink">
    <!-- Generator: Sketch 43.1 (39012) - http://www.bohemiancoding.com/sketch -->
    <title>menu_icon_logo2018</title>
    <desc>Created with Sketch.</desc>
    <defs></defs>
    <g id="index" stroke="none" stroke-width="1" fill="none" fill-rule="evenodd">
        <g id="新首页（默认效果)-" transform="translate(-460.000000, -56.000000)">
            <g id="daohang" transform="translate(0.000000, 34.000000)">
                <g id="menu_icon_logo2018" transform="translate(460.000000, 22.000000)">
                    <path d="M3.732,1.264 C2.82,1.264 2.076,1.564 1.524,2.188 C0.984,2.764 0.708,3.532 0.696,4.492 L2.004,4.492 C2.028,3.796 2.172,3.28 2.46,2.92 C2.736,2.548 3.144,2.368 3.684,2.368 C4.188,2.368 4.584,2.488 4.848,2.728 C5.112,2.968 5.244,3.328 5.244,3.808 C5.244,4.312 5.04,4.78 4.656,5.212 C4.416,5.464 4.008,5.788 3.432,6.196 C2.46,6.868 1.812,7.384 1.5,7.756 C0.924,8.404 0.648,9.148 0.648,10 L6.552,10 L6.552,8.848 L2.268,8.848 C2.448,8.38 3,7.84 3.924,7.228 C4.776,6.652 5.364,6.196 5.7,5.848 C6.252,5.236 6.54,4.564 6.54,3.82 C6.54,3.064 6.276,2.452 5.76,1.972 C5.232,1.492 4.548,1.264 3.732,1.264 Z M11.052,1.264 C12.06,1.264 12.84,1.684 13.392,2.536 C13.896,3.328 14.148,4.384 14.148,5.716 C14.148,7.036 13.896,8.104 13.392,8.896 C12.84,9.736 12.06,10.168 11.052,10.168 C10.044,10.168 9.264,9.736 8.712,8.896 C8.208,8.104 7.956,7.048 7.956,5.716 C7.956,4.372 8.208,3.316 8.712,2.536 C9.264,1.684 10.044,1.264 11.052,1.264 Z M11.052,2.368 C10.344,2.368 9.852,2.752 9.564,3.532 C9.348,4.06 9.252,4.792 9.252,5.716 C9.252,6.628 9.348,7.36 9.564,7.9 C9.852,8.668 10.344,9.064 11.052,9.064 C11.748,9.064 12.252,8.668 12.54,7.9 C12.744,7.36 12.852,6.628 12.852,5.716 C12.852,4.792 12.744,4.06 12.54,3.532 C12.252,2.752 11.748,2.368 11.052,2.368 Z M17.688,1.432 C17.4,1.744 17.04,2.02 16.608,2.284 C16.176,2.524 15.78,2.692 15.396,2.788 L15.396,4.084 C16.188,3.856 16.848,3.496 17.364,3.004 L17.364,10 L18.672,10 L18.672,1.432 L17.688,1.432 Z M23.652,1.264 C24.564,1.264 25.284,1.504 25.824,1.984 C26.304,2.416 26.544,2.956 26.544,3.592 C26.544,4.036 26.448,4.408 26.256,4.708 C26.04,5.032 25.716,5.272 25.284,5.44 L25.284,5.476 C25.692,5.572 26.052,5.812 26.34,6.196 C26.676,6.604 26.844,7.072 26.844,7.612 C26.844,8.368 26.568,8.98 26.016,9.46 C25.452,9.928 24.66,10.168 23.652,10.168 C22.632,10.168 21.84,9.928 21.288,9.46 C20.736,8.98 20.46,8.368 20.46,7.612 C20.46,7.072 20.628,6.604 20.964,6.196 C21.252,5.812 21.6,5.572 22.02,5.476 L22.02,5.44 C21.588,5.272 21.264,5.032 21.048,4.708 C20.856,4.408 20.76,4.036 20.76,3.592 C20.76,2.956 21,2.416 21.48,1.984 C22.008,1.504 22.74,1.264 23.652,1.264 Z M23.652,2.308 C23.124,2.308 22.704,2.44 22.392,2.728 C22.116,2.968 21.984,3.28 21.984,3.64 C21.984,4.048 22.092,4.372 22.32,4.612 C22.596,4.9 23.04,5.044 23.652,5.044 C24.252,5.044 24.696,4.9 24.984,4.612 C25.2,4.372 25.32,4.048 25.32,3.64 C25.32,3.28 25.176,2.968 24.912,2.728 C24.6,2.44 24.18,2.308 23.652,2.308 Z M23.652,6.016 C23.028,6.016 22.548,6.16 22.236,6.472 C21.912,6.76 21.756,7.132 21.756,7.612 C21.756,8.056 21.912,8.416 22.248,8.692 C22.572,8.968 23.04,9.112 23.652,9.112 C24.252,9.112 24.732,8.968 25.08,8.692 C25.392,8.416 25.548,8.056 25.548,7.612 C25.548,7.132 25.392,6.76 25.08,6.484 C24.744,6.172 24.276,6.016 23.652,6.016 Z M29.352,2.632 L31.908,2.632 L31.908,2.02 L28.38,2.02 L28.38,1.048 L30.924,1.048 C30.78,0.76 30.624,0.496 30.468,0.256 L31.608,0.064 C31.752,0.352 31.896,0.688 32.028,1.048 L34.848,1.048 C35.016,0.736 35.148,0.424 35.244,0.088 L36.42,0.244 C36.324,0.532 36.192,0.796 36.048,1.048 L38.664,1.048 L38.664,2.02 L35.112,2.02 L35.112,2.632 L37.656,2.632 L37.656,7.552 L36.792,7.552 L36.792,8.116 L38.856,8.116 L38.856,9.1 L36.792,9.1 L36.792,9.88 C36.792,10.696 36.42,11.116 35.688,11.116 L34.032,11.116 L33.792,10.084 C34.332,10.132 34.836,10.156 35.316,10.156 C35.568,10.156 35.7,9.964 35.7,9.592 L35.7,9.1 L31.104,9.1 C31.764,9.484 32.328,9.88 32.784,10.264 L32.016,11.032 C31.548,10.588 30.888,10.108 30.036,9.592 L30.54,9.1 L28.128,9.1 L28.128,8.116 L35.7,8.116 L35.7,7.552 L29.352,7.552 L29.352,2.632 Z M34.044,2.632 L34.044,2.02 L32.976,2.02 L32.976,2.632 L34.044,2.632 Z M36.54,6.664 L36.54,6.172 L30.468,6.172 L30.468,6.664 L36.54,6.664 Z M30.468,5.344 L36.54,5.344 L36.54,4.876 L35.148,4.876 C34.404,4.876 34.044,4.564 34.044,3.952 L34.044,3.532 L32.868,3.532 C32.652,4.252 32.148,4.816 31.344,5.2 L30.564,4.504 C31.14,4.264 31.524,3.94 31.728,3.532 L30.468,3.532 L30.468,5.344 Z M35.112,3.532 L35.112,3.832 C35.112,4 35.22,4.096 35.46,4.096 L36.54,4.096 L36.54,3.532 L35.112,3.532 Z M42.048,2.656 L49.476,2.656 L49.476,5.26 L42.048,5.26 L42.048,2.656 Z M48.372,4.288 L48.372,3.616 L43.152,3.616 L43.152,4.288 L48.372,4.288 Z M45.78,0.136 L44.46,0.34 C44.64,0.556 44.808,0.796 44.964,1.06 L40.512,1.06 L40.512,2.128 L51,2.128 L51,1.06 L46.26,1.06 C46.104,0.724 45.948,0.412 45.78,0.136 Z M40.248,8.068 L40.248,9.1 L45.408,9.1 L45.408,9.664 C45.408,10.072 45.216,10.288 44.856,10.288 C44.484,10.288 43.98,10.252 43.344,10.204 L43.644,11.236 L45.312,11.236 C46.116,11.236 46.524,10.816 46.524,9.988 L46.524,9.1 L51.264,9.1 L51.264,8.068 L46.524,8.068 L46.524,8.008 C47.82,7.504 48.972,7.036 49.956,6.604 L49.956,5.8 L41.412,5.8 L41.412,6.808 L47.676,6.808 L45.408,7.72 L45.408,8.068 L40.248,8.068 Z M55.344,0.292 L56.46,0.292 L56.46,3.376 L57.036,3.376 L57.036,4.492 L54.336,4.492 L54.336,4.948 C54.336,5.284 54.324,5.608 54.312,5.92 L56.616,5.92 L56.616,11.188 L55.5,11.188 L55.5,7.012 L54.252,7.012 C54.108,8.764 53.784,10.108 53.304,11.044 L52.44,10.3 C52.944,9.172 53.208,7.396 53.22,4.948 L53.22,0.532 L54.336,0.532 L54.336,3.376 L55.344,3.376 L55.344,0.292 Z M58.68,4.648 L58.68,5.656 C58.632,7.96 58.224,9.808 57.456,11.176 L56.676,10.348 C57.276,9.22 57.588,7.648 57.636,5.656 L57.636,1 C59.544,0.964 61.248,0.712 62.76,0.232 L63.312,1.252 C61.92,1.66 60.384,1.9 58.68,1.972 L58.68,3.568 L63.06,3.568 L63.06,4.54 C62.796,6.124 62.316,7.48 61.596,8.584 C62.148,9.304 62.808,9.868 63.588,10.264 L63.024,11.26 C62.172,10.828 61.464,10.24 60.888,9.52 C60.264,10.216 59.52,10.804 58.656,11.272 L58.116,10.264 C58.956,9.796 59.652,9.22 60.228,8.548 C59.616,7.48 59.196,6.184 58.956,4.648 L58.68,4.648 Z M59.976,4.648 C60.192,5.752 60.504,6.724 60.936,7.54 C61.428,6.688 61.776,5.728 61.968,4.648 L59.976,4.648 Z" id="2018尊享版" fill="#FFF25D"></path>
                    <path d="M0.7,14.86 L0.7,22 L1.79,22 L1.79,16.9 L1.83,16.9 L4.02,22 L4.96,22 L7.15,16.9 L7.19,16.9 L7.19,22 L8.28,22 L8.28,14.86 L6.99,14.86 L4.51,20.58 L4.48,20.58 L1.99,14.86 L0.7,14.86 Z M12.96,14.72 C14.04,14.72 14.9,15.07 15.53,15.78 C16.13,16.45 16.43,17.34 16.43,18.44 C16.43,19.53 16.13,20.41 15.53,21.09 C14.9,21.79 14.04,22.14 12.96,22.14 C11.87,22.14 11.01,21.78 10.39,21.08 C9.79,20.4 9.5,19.52 9.5,18.44 C9.5,17.35 9.79,16.47 10.39,15.79 C11.01,15.07 11.87,14.72 12.96,14.72 Z M12.96,15.68 C12.2,15.68 11.61,15.93 11.19,16.45 C10.79,16.94 10.59,17.6 10.59,18.44 C10.59,19.27 10.79,19.93 11.19,20.42 C11.61,20.92 12.2,21.18 12.96,21.18 C13.72,21.18 14.31,20.93 14.72,20.44 C15.12,19.96 15.33,19.29 15.33,18.44 C15.33,17.58 15.12,16.91 14.72,16.42 C14.31,15.92 13.72,15.68 12.96,15.68 Z M17.65,14.86 L20.81,14.86 C21.53,14.86 22.11,15.02 22.53,15.35 C22.97,15.71 23.19,16.22 23.19,16.9 C23.19,17.28 23.09,17.61 22.89,17.9 C22.66,18.22 22.35,18.43 21.96,18.53 L21.96,18.55 C22.6,18.69 22.95,19.11 23.03,19.81 L23.15,20.95 C23.19,21.39 23.33,21.74 23.57,22 L22.39,22 C22.22,21.78 22.12,21.46 22.08,21.06 L21.99,20.17 C21.95,19.77 21.82,19.49 21.61,19.31 C21.39,19.13 21.08,19.05 20.67,19.05 L18.74,19.05 L18.74,22 L17.65,22 L17.65,14.86 Z M18.74,15.79 L18.74,18.12 L20.67,18.12 C21.15,18.12 21.51,18.01 21.75,17.81 C21.98,17.61 22.1,17.32 22.1,16.94 C22.1,16.54 21.98,16.25 21.76,16.07 C21.52,15.88 21.16,15.79 20.66,15.79 L18.74,15.79 Z M24.69,14.86 L24.69,22 L29.99,22 L29.99,21.07 L25.78,21.07 L25.78,18.8 L29.58,18.8 L29.58,17.87 L25.78,17.87 L25.78,15.79 L29.82,15.79 L29.82,14.86 L24.69,14.86 Z M34.32,14.72 C33.18,14.72 32.32,15.09 31.72,15.85 C31.18,16.52 30.92,17.38 30.92,18.44 C30.92,19.52 31.17,20.38 31.69,21.02 C32.28,21.76 33.16,22.14 34.33,22.14 C35.1,22.14 35.76,21.92 36.31,21.48 C36.9,21.01 37.27,20.36 37.43,19.53 L36.37,19.53 C36.23,20.09 35.98,20.51 35.62,20.79 C35.28,21.05 34.84,21.18 34.32,21.18 C33.52,21.18 32.93,20.93 32.55,20.43 C32.19,19.96 32.01,19.3 32.01,18.44 C32.01,17.61 32.19,16.95 32.56,16.47 C32.95,15.94 33.53,15.68 34.3,15.68 C34.82,15.68 35.24,15.79 35.58,16.02 C35.92,16.25 36.15,16.61 36.27,17.09 L37.33,17.09 C37.22,16.37 36.9,15.79 36.38,15.37 C35.84,14.93 35.15,14.72 34.32,14.72 Z M38.65,14.86 L38.65,22 L39.74,22 L39.74,18.8 L43.48,18.8 L43.48,22 L44.57,22 L44.57,14.86 L43.48,14.86 L43.48,17.87 L39.74,17.87 L39.74,14.86 L38.65,14.86 Z M46.09,14.86 L46.09,22 L51.39,22 L51.39,21.07 L47.18,21.07 L47.18,18.8 L50.98,18.8 L50.98,17.87 L47.18,17.87 L47.18,15.79 L51.22,15.79 L51.22,14.86 L46.09,14.86 Z M52.62,14.86 L52.62,22 L57.92,22 L57.92,21.07 L53.71,21.07 L53.71,18.8 L57.51,18.8 L57.51,17.87 L53.71,17.87 L53.71,15.79 L57.75,15.79 L57.75,14.86 L52.62,14.86 Z M59.15,14.86 L62.31,14.86 C63.03,14.86 63.61,15.02 64.03,15.35 C64.47,15.71 64.69,16.22 64.69,16.9 C64.69,17.28 64.59,17.61 64.39,17.9 C64.16,18.22 63.85,18.43 63.46,18.53 L63.46,18.55 C64.1,18.69 64.45,19.11 64.53,19.81 L64.65,20.95 C64.69,21.39 64.83,21.74 65.07,22 L63.89,22 C63.72,21.78 63.62,21.46 63.58,21.06 L63.49,20.17 C63.45,19.77 63.32,19.49 63.11,19.31 C62.89,19.13 62.58,19.05 62.17,19.05 L60.24,19.05 L60.24,22 L59.15,22 L59.15,14.86 Z M60.24,15.79 L60.24,18.12 L62.17,18.12 C62.65,18.12 63.01,18.01 63.25,17.81 C63.48,17.61 63.6,17.32 63.6,16.94 C63.6,16.54 63.48,16.25 63.26,16.07 C63.02,15.88 62.66,15.79 62.16,15.79 L60.24,15.79 Z" id="MORECHEER" fill="#FBFBFB"></path>
                </g>
            </g>
        </g>
    </g>
</svg>