<svg width="18" height="16" xmlns="http://www.w3.org/2000/svg"><path d="M0 11.92c0 .333.29.605.643.605h1.566c.353 0 .642-.272.642-.604V4.095c0-.333-.289-.605-.642-.605H.643c-.354 0-.643.272-.643.605v7.826zm3.618-.01V4.084c0-.332.242-.752.538-.934L8.878.256c.296-.182.538-.058.538.274v14.94c0 .332-.242.456-.538.274l-4.722-2.9c-.296-.182-.538-.602-.538-.934zm13.579-3.155h-5.172c-.444 0-.804-.338-.804-.755s.36-.755.804-.755h5.172c.443 0 .803.338.803.755s-.36.755-.803.755zM15.68 16a.828.828 0 0 1-.568-.221l-3.656-3.438a.724.724 0 0 1 0-1.068.84.84 0 0 1 1.136 0l3.656 3.438a.724.724 0 0 1 0 1.068.828.828 0 0 1-.568.221zM12.025 4.948a.828.828 0 0 1-.568-.221.724.724 0 0 1 0-1.068L15.113.221a.84.84 0 0 1 1.136 0 .723.723 0 0 1 0 1.068l-3.656 3.438a.828.828 0 0 1-.568.221z" fill="#FFF"/></svg>