<?xml version="1.0" encoding="UTF-8"?>
<svg width="47px" height="47px" viewBox="0 0 47 47" version="1.1" xmlns="http://www.w3.org/2000/svg" xmlns:xlink="http://www.w3.org/1999/xlink">
    <!-- Generator: Sketch 43.1 (39012) - http://www.bohemiancoding.com/sketch -->
    <title>bottom_icon_7pc</title>
    <desc>Created with Sketch.</desc>
    <defs>
        <linearGradient x1="50%" y1="0%" x2="50%" y2="100%" id="linearGradient-1">
            <stop stop-color="#FFFFFF" offset="0%"></stop>
            <stop stop-color="#E3E3E3" offset="100%"></stop>
        </linearGradient>
        <linearGradient x1="50%" y1="0%" x2="50%" y2="100%" id="linearGradient-2">
            <stop stop-color="#FFFFFF" offset="0%"></stop>
            <stop stop-color="#E3E3E3" offset="100%"></stop>
        </linearGradient>
        <path d="M19.6,23.8 L19.6,32.6 L10,31 L10,23.8 L19.6,23.8 Z M19.6,13.4 L19.6,22.2 L10,22.2 L10,15 L19.6,13.4 L19.6,13.4 Z M33.2,23.8 L33.2,35 L21.2,33.4 L21.2,23.8 L32.7944,23.64 L33.2,23.8 Z M33.2,11.8 L33.2,22.2 L21.2,22.2 L21.2,13.4 L33.2,11 L33.2,11.8 L33.2,11.8 Z" id="path-3"></path>
        <filter x="-2.2%" y="-2.1%" width="104.3%" height="108.3%" filterUnits="objectBoundingBox" id="filter-4">
            <feOffset dx="0" dy="1" in="SourceAlpha" result="shadowOffsetOuter1"></feOffset>
            <feColorMatrix values="0 0 0 0 0   0 0 0 0 0   0 0 0 0 0  0 0 0 0.5 0" type="matrix" in="shadowOffsetOuter1"></feColorMatrix>
        </filter>
    </defs>
    <g id="index" stroke="none" stroke-width="1" fill="none" fill-rule="evenodd" opacity="0.8">
        <g id="新首页（2018尊享版)-" transform="translate(-1340.000000, -1145.000000)">
            <g id="bottom" transform="translate(0.000000, 1131.000000)">
                <g id="Group-4" transform="translate(1337.000000, 15.000000)">
                    <g id="bottom_icon_7pc" transform="translate(4.000000, 0.000000)">
                        <circle id="Oval-12" stroke="url(#linearGradient-1)" cx="22.5" cy="22.5" r="22.5"></circle>
                        <g id="Shape" fill-rule="nonzero">
                            <use fill="black" fill-opacity="1" filter="url(#filter-4)" xlink:href="#path-3"></use>
                            <use fill="url(#linearGradient-2)" fill-rule="evenodd" xlink:href="#path-3"></use>
                        </g>
                    </g>
                </g>
            </g>
        </g>
    </g>
</svg>