<?xml version="1.0" encoding="UTF-8"?>
<svg width="10px" height="10px" viewBox="0 0 10 10" version="1.1" xmlns="http://www.w3.org/2000/svg" xmlns:xlink="http://www.w3.org/1999/xlink">
    <!-- Generator: Sketch 43.1 (39012) - http://www.bohemiancoding.com/sketch -->
    <title>side1_icon_gb</title>
    <desc>Created with Sketch.</desc>
    <defs></defs>
    <g id="index" stroke="none" stroke-width="1" fill="none" fill-rule="evenodd">
        <g id="新首页（默认效果)" transform="translate(-121.000000, -650.000000)" fill-rule="nonzero" fill="#C0C0C0">
            <g id="side1" transform="translate(104.000000, 356.000000)">
                <g id="Group-26">
                    <g id="2" transform="translate(0.000000, 281.000000)">
                        <g id="Oval-14" transform="translate(0.000000, 2.000000)">
                            <g id="Group-13" transform="translate(17.000000, 10.000000)">
                                <path d="M0.301348874,10.6978464 C0.0779579389,10.4739328 0,10.3799423 0,10.3346035 C0,10.2863384 0.451380542,9.82201886 2.13664744,8.1366997 L4.27329489,5.99996865 L2.13664744,3.86323759 C0.25142193,1.97790756 3.13545806e-05,1.71780041 0.000240385118,1.6526665 C0.000438964128,1.58969605 0.0444607953,1.53892253 0.299164505,1.30788108 C0.518228508,1.1091453 0.61776885,1.03480358 0.672618463,1.02890892 C0.742194277,1.02142563 0.895100115,1.16858313 2.87372047,3.14708852 L5.00003135,5.27329489 L7.13676241,3.13664744 C8.83553268,1.43796078 9.28619207,1 9.33539786,1 C9.42341017,1 10,1.57722738 10,1.6653233 C10,1.71358845 9.54861946,2.17790798 7.86335256,3.86322714 L5.72670511,5.99995819 L7.86335256,8.13668925 C9.75481763,10.0282693 10,10.2819906 10,10.3480024 C10,10.4120494 9.95782809,10.4607848 9.70174478,10.6927878 C9.48156246,10.8922866 9.38375707,10.9650919 9.32806089,10.9710179 C9.25762805,10.9785221 9.11166202,10.8380954 7.12628998,8.85283832 L4.9999791,6.72663195 L2.86324804,8.8632794 C1.16447777,10.5619661 0.713818382,10.9999268 0.664612593,10.9999268 C0.618260072,10.9999268 0.527080951,10.924101 0.301369777,10.6978673 L0.301348874,10.6978464 Z" id="side1_icon_gb"></path>
                            </g>
                        </g>
                    </g>
                </g>
            </g>
        </g>
    </g>
</svg>