<?xml version="1.0" encoding="UTF-8"?>
<svg width="22px" height="22px" viewBox="0 0 22 22" version="1.1" xmlns="http://www.w3.org/2000/svg" xmlns:xlink="http://www.w3.org/1999/xlink">
    <!-- Generator: Sketch 43.1 (39012) - http://www.bohemiancoding.com/sketch -->
    <title>side1_icon_1close2</title>
    <desc>Created with Sketch.</desc>
    <defs></defs>
    <g id="index" stroke="none" stroke-width="1" fill="none" fill-rule="evenodd">
        <g id="新首页（默认效果)-" transform="translate(-193.000000, -345.000000)">
            <g id="side1_icon_1close2" transform="translate(193.000000, 345.000000)">
                <circle id="Oval-6" fill="#5A5A5A" cx="11" cy="11" r="11"></circle>
                <path d="M5.36161865,16.6374156 C5.09354953,16.3687194 5,16.2559307 5,16.2015243 C5,16.1436061 5.54165665,15.5864226 7.56397693,13.5640396 L10.1279539,10.9999624 L7.56397693,8.43588511 C5.30170632,6.17348908 5.00003763,5.8613605 5.00028846,5.7831998 C5.00052676,5.70763526 5.05335295,5.64670704 5.35899741,5.36945729 C5.62187421,5.13097435 5.74132262,5.0417643 5.80714216,5.03469071 C5.89063313,5.02571076 6.07412014,5.20229975 8.44846457,7.57650622 L11.0000376,10.1279539 L13.5641149,7.56397693 C15.6026392,5.52555294 16.1434305,5 16.2024774,5 C16.3080922,5 17,5.69267285 17,5.79838796 C17,5.85630614 16.4583433,6.41348958 14.4360231,8.43587257 L11.8720461,10.9999498 L14.4360231,13.5640271 C16.7057812,15.8339231 17,16.1383887 17,16.2176029 C17,16.2944592 16.9493937,16.3529418 16.6420937,16.6313454 C16.377875,16.8707439 16.2605085,16.9581103 16.1936731,16.9652215 C16.1091537,16.9742265 15.9339944,16.8057145 13.551548,14.423406 L10.9999749,11.8719583 L8.43589765,14.4359353 C6.39737332,16.4743593 5.85658206,16.9999122 5.79753511,16.9999122 C5.74191209,16.9999122 5.63249714,16.9089212 5.36164373,16.6374407 L5.36161865,16.6374156 Z" id="Shape" fill="#FFFFFF" fill-rule="nonzero"></path>
            </g>
        </g>
    </g>
</svg>