<?xml version="1.0" encoding="UTF-8"?>
<svg width="50px" height="12px" viewBox="0 0 50 12" version="1.1" xmlns="http://www.w3.org/2000/svg" xmlns:xlink="http://www.w3.org/1999/xlink">
    <!-- Generator: Sketch 43.1 (39012) - http://www.bohemiancoding.com/sketch -->
    <title>Artboard</title>
    <desc>Created with Sketch.</desc>
    <defs></defs>
    <g id="Page-1" stroke="none" stroke-width="1" fill="none" fill-rule="evenodd">
        <g id="Artboard">
            <g id="mctxt" transform="translate(0.000000, 2.000000)"></g>
            <path d="M4.12,7.168 L7.456,7.168 L7.456,6.376 C6.484,6.412 5.44,6.436 4.336,6.436 L4.132,5.836 C6.952,5.824 9.292,5.68 11.14,5.404 L11.512,6.052 C10.588,6.172 9.52,6.268 8.296,6.34 L8.296,7.168 L11.656,7.168 L11.656,7.84 L8.296,7.84 L8.296,8.632 L12.328,8.632 L12.328,9.328 L8.296,9.328 L8.296,10.348 C8.296,10.924 7.972,11.224 7.324,11.224 L5.956,11.224 L5.8,10.492 C6.232,10.516 6.652,10.54 7.06,10.54 C7.324,10.54 7.456,10.408 7.456,10.156 L7.456,9.328 L3.496,9.328 L3.496,8.632 L7.456,8.632 L7.456,7.84 L4.12,7.84 L4.12,7.168 Z M3.808,2.632 L5.416,2.632 L5.416,1.744 L3.244,1.744 L3.244,6.1 C3.208,8.176 2.836,9.844 2.116,11.092 L1.48,10.528 C2.08,9.46 2.392,7.984 2.416,6.1 L2.416,1 L6.916,1 C6.784,0.736 6.64,0.484 6.496,0.268 L7.396,0.124 C7.54,0.376 7.672,0.664 7.804,1 L12.028,1 L12.028,1.744 L10.156,1.744 L10.156,2.632 L11.86,2.632 L11.86,3.304 L10.672,3.304 C11.032,3.832 11.584,4.312 12.34,4.72 L11.86,5.344 C11.068,4.72 10.504,4.048 10.168,3.304 L10.156,3.304 L10.156,5.056 L9.4,5.056 L9.4,3.304 L9.364,3.304 C9.04,4.12 8.524,4.792 7.828,5.32 L7.456,4.684 C8.08,4.324 8.56,3.856 8.872,3.304 L7.852,3.304 L7.852,2.632 L9.4,2.632 L9.4,1.744 L6.172,1.744 L6.172,2.632 L7.396,2.632 L7.396,3.304 L6.172,3.304 L6.172,3.604 C6.604,3.796 7.024,4.024 7.456,4.276 L7.096,4.828 C6.748,4.552 6.436,4.324 6.172,4.144 L6.172,5.392 L5.416,5.392 L5.416,3.676 C5.032,4.348 4.492,4.912 3.784,5.368 L3.4,4.732 C4.156,4.36 4.732,3.88 5.116,3.304 L3.808,3.304 L3.808,2.632 Z M23.524,7.66 L20.092,7.66 L20.092,10.096 L24.352,10.096 L24.352,10.924 L14.944,10.924 L14.944,0.688 L24.1,0.688 L24.1,1.516 L20.092,1.516 L20.092,3.688 L23.524,3.688 L23.524,7.66 Z M19.252,1.516 L15.784,1.516 L15.784,3.688 L19.252,3.688 L19.252,1.516 Z M15.784,4.48 L15.784,6.856 L22.684,6.856 L22.684,4.48 L15.784,4.48 Z M15.784,7.66 L15.784,10.096 L19.252,10.096 L19.252,7.66 L15.784,7.66 Z M27.676,0.136 L28.516,0.208 C28.396,1.024 28.276,1.78 28.156,2.488 L29.992,2.488 L29.992,2.98 C29.896,4.828 29.548,6.448 28.972,7.816 C29.572,8.296 30.052,8.728 30.436,9.112 L29.872,9.784 C29.524,9.4 29.104,9.004 28.612,8.572 C28.06,9.616 27.34,10.504 26.476,11.236 L25.924,10.552 C26.788,9.856 27.472,9.016 27.988,8.032 C27.496,7.612 26.956,7.18 26.356,6.724 C26.656,5.668 26.92,4.54 27.16,3.316 L26.056,3.316 L26.056,2.488 L27.316,2.488 C27.448,1.72 27.568,0.94 27.676,0.136 Z M28.324,7.3 C28.804,6.136 29.08,4.804 29.176,3.316 L28,3.316 C27.748,4.576 27.484,5.632 27.208,6.472 C27.616,6.76 27.988,7.036 28.324,7.3 Z M30.1,6.94 L32.896,6.94 C32.968,6.52 33.016,6.076 33.028,5.608 L30.544,5.608 L30.544,4.804 L36.364,4.804 L36.364,5.608 L33.868,5.608 C33.844,6.1 33.808,6.544 33.748,6.94 L36.808,6.94 L36.808,7.756 L34.072,7.756 C34.72,8.908 35.716,9.832 37.084,10.54 L36.508,11.212 C35.14,10.408 34.12,9.412 33.448,8.212 C33.316,8.596 33.16,8.956 32.98,9.268 C32.428,10.108 31.54,10.78 30.304,11.26 L29.848,10.528 C31.036,10.072 31.864,9.46 32.332,8.692 C32.488,8.404 32.62,8.092 32.716,7.756 L30.1,7.756 L30.1,6.94 Z M30.892,0.676 L36.016,0.676 L36.016,3.64 L30.892,3.64 L30.892,0.676 Z M35.212,2.92 L35.212,1.396 L31.696,1.396 L31.696,2.92 L35.212,2.92 Z M39.016,5.728 C39.4,3.964 39.688,2.404 39.856,1.048 C40.072,1.084 40.312,1.108 40.552,1.12 C43.396,1.108 45.7,0.82 47.464,0.268 L47.872,1 C46.024,1.528 43.588,1.804 40.564,1.852 C40.372,2.992 40.168,4 39.976,4.888 L43.408,4.888 L43.408,2.536 L44.296,2.536 L44.296,4.888 L48.676,4.888 L48.676,5.728 L44.296,5.728 L44.296,9.988 C44.296,10.756 43.912,11.152 43.168,11.152 L41.56,11.152 L41.38,10.3 C41.896,10.336 42.388,10.36 42.868,10.36 C43.228,10.36 43.408,10.156 43.408,9.772 L43.408,5.728 L39.016,5.728 Z M40.576,6.652 L41.332,7.024 C40.708,8.428 39.988,9.652 39.16,10.684 L38.416,10.156 C39.256,9.172 39.976,8.008 40.576,6.652 Z M46.696,6.58 C47.428,7.732 48.124,8.98 48.784,10.348 L47.98,10.756 C47.344,9.34 46.66,8.068 45.928,6.952 L46.696,6.58 Z" id="摩臣娱乐" fill="#A3A3A3"></path>
        </g>
    </g>
</svg>