<?xml version="1.0" encoding="UTF-8"?>
<svg width="21px" height="21px" viewBox="0 0 21 21" version="1.1" xmlns="http://www.w3.org/2000/svg" xmlns:xlink="http://www.w3.org/1999/xlink">
    <!-- Generator: Sketch 43.1 (39012) - http://www.bohemiancoding.com/sketch -->
    <title>gg_icon_zuo1</title>
    <desc>Created with Sketch.</desc>
    <defs></defs>
    <g id="index" stroke="none" stroke-width="1" fill="none" fill-rule="evenodd">
        <g id="新首页（最新公告)-" transform="translate(-423.000000, -740.000000)">
            <g id="Group-22" transform="translate(195.000000, 247.000000)">
                <g id="gg_icon_zuo1" transform="translate(228.000000, 493.000000)">
                    <circle id="Oval-16" fill="#131C33" cx="10.5" cy="10.5" r="10.5"></circle>
                    <path d="M4.30391504,7.30029775 C4.69767428,6.92117191 5.32700698,6.93280606 5.70671332,7.32639599 L10.0288496,11.8106001 L14.2866714,7.3098276 C14.6628706,6.91256118 15.2921912,6.89497692 15.6897599,7.27068025 C15.8869963,7.45773372 15.9999879,7.72074782 16,7.99216705 C16,8.24675183 15.9037582,8.48877123 15.7288589,8.67379297 L10.7608337,13.9263591 C10.4684561,14.2360307 10.0082177,14.3181954 9.61590968,14.130755 C9.58648568,14.1172705 9.56387043,14.1015486 9.55099063,14.0922365 C9.47951678,14.0542864 9.41664156,14.0211013 9.35675348,13.9638859 C9.3267006,13.9384649 9.31155927,13.9259479 9.29796594,13.9123667 L4.27785308,8.70385794 C4.09866052,8.51751799 4.00002419,8.27300728 4.00002419,8.01514511 C4,7.74255279 4.10796059,7.48869363 4.30391504,7.30029775 Z" id="Shape" fill="#A3A3A3" fill-rule="nonzero" transform="translate(10.000000, 10.615168) rotate(-270.000000) translate(-10.000000, -10.615168) "></path>
                </g>
            </g>
        </g>
    </g>
</svg>