<?xml version="1.0" encoding="UTF-8"?>
<svg width="21px" height="21px" viewBox="0 0 21 21" version="1.1" xmlns="http://www.w3.org/2000/svg" xmlns:xlink="http://www.w3.org/1999/xlink">
    <!-- Generator: Sketch 43.1 (39012) - http://www.bohemiancoding.com/sketch -->
    <title>gg_icon_you1</title>
    <desc>Created with Sketch.</desc>
    <defs></defs>
    <g id="index" stroke="none" stroke-width="1" fill="none" fill-rule="evenodd">
        <g id="新首页（最新公告)-" transform="translate(-423.000000, -709.000000)">
            <g id="Group-22" transform="translate(195.000000, 247.000000)">
                <g id="gg_icon_you1" transform="translate(228.000000, 462.000000)">
                    <circle id="Oval-16" fill="#131C33" cx="10.5" cy="10.5" r="10.5"></circle>
                    <path d="M5.30391504,7.30029775 C5.69767428,6.92117191 6.32700698,6.93280606 6.70671332,7.32639599 L11.0288496,11.8106001 L15.2866714,7.3098276 C15.6628706,6.91256118 16.2921912,6.89497692 16.6897599,7.27068025 C16.8869963,7.45773372 16.9999879,7.72074782 17,7.99216705 C17,8.24675183 16.9037582,8.48877123 16.7288589,8.67379297 L11.7608337,13.9263591 C11.4684561,14.2360307 11.0082177,14.3181954 10.6159097,14.130755 C10.5864857,14.1172705 10.5638704,14.1015486 10.5509906,14.0922365 C10.4795168,14.0542864 10.4166416,14.0211013 10.3567535,13.9638859 C10.3267006,13.9384649 10.3115593,13.9259479 10.2979659,13.9123667 L5.27785308,8.70385794 C5.09866052,8.51751799 5.00002419,8.27300728 5.00002419,8.01514511 C5,7.74255279 5.10796059,7.48869363 5.30391504,7.30029775 Z" id="Shape" fill="#A3A3A3" fill-rule="nonzero" transform="translate(11.000000, 10.615168) rotate(-90.000000) translate(-11.000000, -10.615168) "></path>
                </g>
            </g>
        </g>
    </g>
</svg>