<?xml version="1.0" encoding="UTF-8"?>
<svg width="33px" height="33px" viewBox="0 0 33 33" version="1.1" xmlns="http://www.w3.org/2000/svg" xmlns:xlink="http://www.w3.org/1999/xlink">
    <!-- Generator: Sketch 43.1 (39012) - http://www.bohemiancoding.com/sketch -->
    <title>game_icon_tj</title>
    <desc>Created with Sketch.</desc>
    <defs></defs>
    <g id="index" stroke="none" stroke-width="1" fill="none" fill-rule="evenodd">
        <g id="新首页（2018尊享版)-" transform="translate(-451.000000, -781.000000)">
            <g id="game" transform="translate(284.000000, 731.000000)">
                <g id="0">
                    <g id="1" transform="translate(1.000000, 50.000000)">
                        <g id="game_icon_tj">
                            <g transform="translate(166.000000, 0.000000)">
                                <polygon id="Shape" fill="#FF6600" fill-rule="nonzero" transform="translate(16.500000, 16.500000) rotate(-270.000000) translate(-16.500000, -16.500000) " points="-3.55271368e-15 33 -3.55271368e-15 0 33 0"></polygon>
                                <path d="M18.756,4.928 L21.396,4.928 L21.396,4.172 L22.548,4.172 L22.548,4.928 L25.452,4.928 L25.452,4.172 L26.604,4.172 L26.604,4.928 L29.244,4.928 L29.244,5.972 L26.604,5.972 L26.604,6.752 L25.452,6.752 L25.452,5.972 L22.548,5.972 L22.548,6.74 L21.396,6.74 L21.396,5.972 L18.756,5.972 L18.756,4.928 Z M18.948,7.436 L22.284,7.436 C22.416,7.16 22.536,6.884 22.644,6.62 L23.748,6.812 C23.676,7.028 23.592,7.232 23.508,7.436 L29.184,7.436 L29.184,8.48 L22.992,8.48 C22.632,9.092 22.212,9.668 21.732,10.22 L21.732,15.26 L20.64,15.26 L20.64,11.288 C20.196,11.672 19.728,12.032 19.224,12.368 L18.504,11.432 C19.848,10.568 20.892,9.584 21.66,8.48 L18.948,8.48 L18.948,7.436 Z M25.596,11.012 C25.908,10.808 26.328,10.544 26.856,10.22 L23.256,10.22 L23.256,9.188 L28.488,9.188 L28.488,10.004 C27.984,10.4 27.396,10.832 26.748,11.312 L26.748,11.588 L29.256,11.588 L29.256,12.668 L26.748,12.668 L26.748,14.156 C26.748,14.864 26.388,15.224 25.68,15.224 L24.228,15.224 L23.892,14.12 C24.456,14.168 24.9,14.192 25.224,14.192 C25.464,14.192 25.596,14.072 25.596,13.832 L25.596,12.668 L22.416,12.668 L22.416,11.588 L25.596,11.588 L25.596,11.012 Z" id="荐" fill="#FFFFFF"></path>
                            </g>
                        </g>
                    </g>
                </g>
            </g>
        </g>
    </g>
</svg>