<?xml version="1.0" encoding="UTF-8"?>
<svg width="18px" height="16px" viewBox="0 0 18 16" version="1.1" xmlns="http://www.w3.org/2000/svg" xmlns:xlink="http://www.w3.org/1999/xlink">
    <!-- Generator: Sketch 43.1 (39012) - http://www.bohemiancoding.com/sketch -->
    <title>gg_icon_lb</title>
    <desc>Created with Sketch.</desc>
    <defs></defs>
    <g id="index" stroke="none" stroke-width="1" fill="none" fill-rule="evenodd">
        <g id="新首页（最新公告)-" transform="translate(-214.000000, -262.000000)" fill-rule="nonzero" fill="#FFFFFF">
            <g id="Group-22" transform="translate(195.000000, 247.000000)">
                <path d="M19,26.9205618 C19,27.2528128 19.2891928,27.5246545 19.6426506,27.5246545 L21.20879,27.5246545 C21.5622478,27.5246545 21.8514406,27.2528128 21.8514406,26.9205618 L21.8514406,19.0945405 C21.8514406,18.7622895 21.5622478,18.4904478 21.20879,18.4904478 L19.6426506,18.4904478 C19.2891928,18.4904478 19,18.7622895 19,19.0945405 L19,26.9205618 Z M22.6181227,26.9096881 L22.6181227,19.0842709 C22.6181227,18.7520199 22.860402,18.3315714 23.1560213,18.1503436 L27.8782177,15.2555312 C28.173837,15.0743034 28.4161162,15.1975383 28.4161162,15.5297893 L28.4161162,30.4702107 C28.4161162,30.8024617 28.173837,30.9256966 27.8782177,30.7438647 L23.1560213,27.8442196 C22.860402,27.6623877 22.6181227,27.2419391 22.6181227,26.9096881 Z M36.1966868,23.7551159 L31.0246349,23.7551159 C30.581206,23.7551159 30.2213217,23.416824 30.2213217,23 C30.2213217,22.583176 30.581206,22.2448841 31.0246349,22.2448841 L36.1966868,22.2448841 C36.6401157,22.2448841 37,22.583176 37,23 C37,23.416824 36.6401157,23.7551159 36.1966868,23.7551159 Z M34.6813167,31 C34.4756685,31 34.2700204,30.9263007 34.1132136,30.7789021 L30.4565318,27.3410103 C30.1429183,27.0462131 30.1429183,26.5683757 30.4565318,26.2729744 C30.7701453,25.9775731 31.2784819,25.9781772 31.592738,26.2729744 L35.2494198,29.7108661 C35.5630333,30.0056634 35.5630333,30.4835007 35.2494198,30.7789021 C35.0926131,30.9263007 34.8869649,31 34.6813167,31 Z M31.0246349,19.9481235 C30.8189868,19.9481235 30.6133386,19.8744242 30.4565318,19.7270256 C30.1429183,19.4322283 30.1429183,18.954391 30.4565318,18.6589897 L34.1132136,15.2210979 C34.4261844,14.9263007 34.9351637,14.9263007 35.2494198,15.2210979 C35.563676,15.5158952 35.5630333,15.9937325 35.2494198,16.2891339 L31.592738,19.7270256 C31.4359313,19.8744242 31.2302831,19.9481235 31.0246349,19.9481235 Z" id="gg_icon_lb"></path>
            </g>
        </g>
    </g>
</svg>