<?xml version="1.0" encoding="UTF-8"?>
<svg width="18px" height="18px" viewBox="0 0 18 18" version="1.1" xmlns="http://www.w3.org/2000/svg" xmlns:xlink="http://www.w3.org/1999/xlink">
    <!-- Generator: Sketch 43.1 (39012) - http://www.bohemiancoding.com/sketch -->
    <title>gg_icon_gb1</title>
    <desc>Created with Sketch.</desc>
    <defs></defs>
    <g id="index" stroke="none" stroke-width="1" fill="none" fill-rule="evenodd">
        <g id="新首页（最新公告)-" transform="translate(-1107.000000, -261.000000)" fill-rule="nonzero" fill="#C0C0C0">
            <g id="Group-22" transform="translate(195.000000, 247.000000)">
                <path d="M912.542428,31.4561234 C912.140324,31.0530791 912,30.8838961 912,30.8022864 C912,30.7154091 912.812485,29.8796339 915.845965,26.8460595 L919.691931,22.9999436 L915.845965,19.1538277 C912.452559,15.7602336 912.000056,15.2920407 912.000433,15.1747997 C912.00079,15.0614529 912.080029,14.9700606 912.538496,14.5541859 C912.932811,14.1964615 913.111984,14.0626465 913.210713,14.0520361 C913.33595,14.0385661 913.61118,14.3034496 917.172697,17.8647593 L921.000056,21.6919308 L924.846172,17.8459654 C927.903959,14.7883294 928.715146,14 928.803716,14 C928.962138,14 930,15.0390093 930,15.1975819 C930,15.2844592 929.187515,16.1202344 926.154035,19.1538088 L922.308069,22.9999247 L926.154035,26.8460406 C929.558672,30.2508847 930,30.707583 930,30.8264043 C930,30.9416888 929.924091,31.0294127 929.463141,31.4470181 C929.066812,31.8061158 928.890763,31.9371654 928.79051,31.9478322 C928.66373,31.9613398 928.400992,31.7085717 924.827322,28.135109 L920.999962,24.3079375 L917.153846,28.1539029 C914.09606,31.2115389 913.284873,31.9998683 913.196303,31.9998683 C913.112868,31.9998683 912.948746,31.8633818 912.542466,31.4561611 L912.542428,31.4561234 Z" id="gg_icon_gb1"></path>
            </g>
        </g>
    </g>
</svg>