<?xml version="1.0" encoding="UTF-8"?>
<svg width="44px" height="44px" viewBox="0 0 44 44" version="1.1" xmlns="http://www.w3.org/2000/svg" xmlns:xlink="http://www.w3.org/1999/xlink">
    <!-- Generator: Sketch 46.2 (44496) - http://www.bohemiancoding.com/sketch -->
    <title>Group 15</title>
    <desc>Created with Sketch.</desc>
    <defs></defs>
    <g id="Page-1" stroke="none" stroke-width="1" fill="none" fill-rule="evenodd">
        <g id="Artboard" transform="translate(-243.000000, -158.000000)">
            <g id="Group-15" transform="translate(243.000000, 158.000000)">
                <rect id="Rectangle-6" fill="#984AD3" x="0" y="0" width="43.9399856" height="43.9399856" rx="21.9699928"></rect>
                <path d="M21.8857195,13 C24.4987939,13 26.6170183,15.0836845 26.6170183,17.6535841 C26.6170183,20.224148 24.4987939,22.3078324 21.8857195,22.3078324 C19.272645,22.3078324 17.1544206,20.224148 17.1544206,17.6535841 C17.1544206,15.0830202 19.2733092,13 21.8857195,13 Z M21.8857195,13 C24.4987939,13 26.6170183,15.0836845 26.6170183,17.6535841 C26.6170183,20.224148 24.4987939,22.3078324 21.8857195,22.3078324 C19.272645,22.3078324 17.1544206,20.224148 17.1544206,17.6535841 C17.1544206,15.0830202 19.2733092,13 21.8857195,13 Z M20.1115654,23.85947 L24.0550894,23.85947 C27.4306981,23.85947 30.1666548,26.5502592 30.1666548,29.8707369 L30.1666548,30.2579821 C30.1666548,31.566512 27.4300338,31.6163291 24.0550894,31.6163291 L20.1115654,31.6163291 C16.7359567,31.6163291 14,31.6143364 14,30.2579821 L14,29.8707369 C14,26.5502592 16.7359567,23.85947 20.1115654,23.85947 Z" id="Shape" fill="#FFFFFF" fill-rule="nonzero"></path>
            </g>
        </g>
    </g>
</svg>