<?xml version="1.0" encoding="UTF-8"?>
<svg width="50px" height="50px" viewBox="0 0 50 50" version="1.1" xmlns="http://www.w3.org/2000/svg" xmlns:xlink="http://www.w3.org/1999/xlink">
    <!-- Generator: Sketch 46.2 (44496) - http://www.bohemiancoding.com/sketch -->
    <title>Group 3</title>
    <desc>Created with Sketch.</desc>
    <defs>
        <circle id="path-1" cx="25" cy="25" r="25"></circle>
        <filter x="-1.0%" y="-1.0%" width="102.0%" height="102.0%" filterUnits="objectBoundingBox" id="filter-2">
            <feGaussianBlur stdDeviation="0.5" in="SourceAlpha" result="shadowBlurInner1"></feGaussianBlur>
            <feOffset dx="0" dy="0" in="shadowBlurInner1" result="shadowOffsetInner1"></feOffset>
            <feComposite in="shadowOffsetInner1" in2="SourceAlpha" operator="arithmetic" k2="-1" k3="1" result="shadowInnerInner1"></feComposite>
            <feColorMatrix values="0 0 0 0 0   0 0 0 0 0   0 0 0 0 0  0 0 0 0.812047101 0" type="matrix" in="shadowInnerInner1"></feColorMatrix>
        </filter>
    </defs>
    <g id="Page-1" stroke="none" stroke-width="1" fill="none" fill-rule="evenodd">
        <g id="最近联系人" transform="translate(-13.000000, -140.000000)">
            <g id="Group-3" transform="translate(13.000000, 140.000000)">
                <g id="Oval">
                    <use fill="#BABABA" fill-rule="evenodd" xlink:href="#path-1"></use>
                    <use fill="black" fill-opacity="1" filter="url(#filter-2)" xlink:href="#path-1"></use>
                </g>
                <path d="M26.2880594,13.1565886 C26.7499741,13.2603381 27.1893949,13.4012516 27.5965145,13.5744662 C28.002656,13.75162 28.3647605,13.9522186 28.6837785,14.1763436 C28.9998898,14.3994634 29.2494428,14.6235883 29.4275474,14.8476861 C29.8522981,15.3614891 30.1615634,15.9222634 30.3572992,16.5407667 C30.551079,17.1553581 30.6910144,17.7435163 30.7722156,18.3042905 C30.8524659,18.946293 30.8945471,19.5941636 30.8945471,20.2488801 C31.0071257,20.3291304 31.0981069,20.4328527 31.1646652,20.5590962 C31.2282895,20.6726257 31.2811286,20.8164731 31.3222318,20.9936269 C31.3613518,21.1707807 31.368225,21.3850985 31.3329898,21.6414974 C31.3016666,21.9761907 31.2311963,22.2463088 31.1264688,22.4469074 C31.0207634,22.6436212 30.9013931,22.8011879 30.7721884,22.9147173 C30.624429,23.0409608 30.4697963,23.1290351 30.3083177,23.1779623 C30.2280674,23.4490584 30.1439051,23.7064353 30.0626767,23.9471863 C29.9824264,24.1536801 29.8875061,24.3582178 29.7818006,24.5578656 C29.6771003,24.7584914 29.5577029,24.9121461 29.4275202,25.0256484 C29.1192601,25.2663993 28.866746,25.4699319 28.6700594,25.6373057 C28.4743236,25.8076135 28.3431901,26.0914236 28.2805438,26.4887632 C28.2316166,26.729487 28.2140127,26.9731719 28.2316166,27.2207689 C28.2492206,27.471327 28.315779,27.7179459 28.4390884,27.9655157 C28.5614199,28.2121347 28.7473757,28.4499516 28.9998626,28.6740766 C29.2523496,28.8971964 29.60663,29.0978221 30.0626767,29.2749488 C30.4697963,29.4354494 30.9150851,29.578346 31.396587,29.7055675 C31.8771109,29.835723 32.3439156,29.9835096 32.7999895,30.1498782 C33.2560362,30.3172249 33.6592438,30.5276307 34.0105902,30.7742496 C34.3619366,31.0218194 34.6104844,31.3624078 34.7543591,31.7940046 C34.8385485,32.0504035 34.8982337,32.3674656 34.9403148,32.7423112 C34.978484,33.1190856 35,33.50075 35,33.8814636 C35,34.266062 34.9716108,34.6262104 34.9158377,34.9638649 C34.8561525,35.2975801 34.771963,35.5559351 34.6564776,35.7320837 C34.5752493,35.8417012 34.3443055,35.9552306 33.9606579,36.0657989 C33.5789935,36.1793284 33.1053427,36.2859847 32.5435905,36.3897342 C31.9818383,36.4973957 31.3545058,36.587426 30.6626253,36.6676763 C29.9677836,36.7479266 29.2729419,36.8144578 28.5712542,36.8712361 C27.8734514,36.9279873 27.2001529,36.9710464 26.5581503,37.0042984 C25.912263,37.0346436 25.3543956,37.0512696 24.8836789,37.0512696 C24.410979,37.0512696 23.8590339,37.0346436 23.2346354,37.0042984 C22.606352,36.9710193 21.9575035,36.9279601 21.2905348,36.8712361 C20.6255317,36.8147191 19.9611512,36.7511002 19.2975071,36.6803903 C18.6379006,36.6070132 18.0414022,36.5306477 17.5011932,36.4503974 C16.9644071,36.3701742 16.5083604,36.2899239 16.133053,36.2135584 C15.7606795,36.1333353 15.5223736,36.053085 15.4240031,35.9728346 C15.2625245,35.8417012 15.136281,35.4512076 15.0482067,34.7964911 C14.9571984,34.1388405 14.9958565,33.2893391 15.1573352,32.2510293 C15.2380745,31.6599099 15.4802924,31.205792 15.876654,30.8955759 C16.2764386,30.5804427 16.7398203,30.3338237 17.2697604,30.1498511 C17.7997004,29.9658785 18.3502056,29.8024167 18.9188039,29.6585692 C19.4903361,29.5156726 19.996288,29.3042888 20.4347307,29.0341978 C20.7782531,28.8266989 21.0380751,28.6270782 21.2171577,28.4332985 C21.3962675,28.2424798 21.525934,28.0487 21.6066733,27.8578542 C21.6908356,27.6640745 21.7294937,27.4673607 21.7294937,27.2569549 C21.7294937,27.0494831 21.7226477,26.8194901 21.7050166,26.5621132 C21.6736934,26.1941408 21.5435379,25.9005235 21.3155282,25.6872109 C21.0874912,25.4699319 20.8345153,25.2497462 20.5575783,25.0256212 C20.4273957,24.9120917 20.3119374,24.7584643 20.2169899,24.5578385 C20.1186194,24.3581907 20.0276111,24.1536529 19.9468718,23.9471591 C19.8661325,23.7064082 19.7853932,23.4490312 19.7012309,23.1779351 C19.5886794,23.1446559 19.4731939,23.0879048 19.3606696,23.0076545 C19.2627881,22.9274042 19.1575988,22.8177867 19.0416243,22.6739392 C18.9295619,22.5300646 18.8307295,22.3196588 18.7504792,22.0495679 C18.6521087,21.7784717 18.6134778,21.5279408 18.6379277,21.3047938 C18.6628667,21.0806689 18.7083981,20.8898503 18.7749292,20.7293496 C18.8385535,20.553201 18.9432538,20.3858272 19.0905515,20.2253538 C19.0768595,19.6176084 19.1081555,19.008885 19.1888948,18.4021177 C19.2554531,17.8873366 19.3714276,17.3353916 19.5431752,16.7442993 C19.7154118,16.15318 19.971349,15.6256849 20.3114212,15.1608362 C20.6241095,14.7135915 20.9680937,14.349531 21.3507633,14.0686549 C21.7363397,13.7887568 22.1258553,13.567593 22.5261289,13.4070652 C22.9224905,13.2465646 23.3222751,13.1408863 23.7220325,13.08313 C24.122306,13.0274112 24.5088876,13 24.883706,13 C25.3544228,13 25.8241887,13.0528392 26.2880594,13.1565886 Z" id="Shape" fill="#FFFFFF" fill-rule="nonzero"></path>
            </g>
        </g>
    </g>
</svg>