<?xml version="1.0" encoding="UTF-8"?>
<svg width="23px" height="18px" viewBox="0 0 23 18" version="1.1" xmlns="http://www.w3.org/2000/svg" xmlns:xlink="http://www.w3.org/1999/xlink">
    <!-- Generator: Sketch 46.2 (44496) - http://www.bohemiancoding.com/sketch -->
    <title>Group 7</title>
    <desc>Created with Sketch.</desc>
    <defs>
        <linearGradient x1="50%" y1="0%" x2="50%" y2="100%" id="linearGradient-1">
            <stop stop-color="#9578E4" offset="0%"></stop>
            <stop stop-color="#5E5180" offset="100%"></stop>
        </linearGradient>
    </defs>
    <g id="Page-1" stroke="none" stroke-width="1" fill="none" fill-rule="evenodd">
        <g id="Artboard" transform="translate(-157.000000, -113.000000)" fill-rule="nonzero" fill="url(#linearGradient-1)">
            <g id="Group-7" transform="translate(157.000000, 113.000000)">
                <path d="M8.1169348,11.2254392 C8.05292112,10.7389352 8.0734055,10.7645407 7.72517107,10.4726383 C7.36669445,10.1704937 7.1848956,9.18468301 7.1848956,9.18468301 C7.1848956,9.18468301 6.82897953,9.10530604 6.58828809,8.34738405 C6.35015719,7.58946207 6.82385844,7.06711043 6.82385844,7.06711043 C6.82385844,7.06711043 6.77520804,4.94441675 7.69188396,3.63341656 C8.04523948,3.1264282 8.60343878,2.54518397 9.03617126,2.31217417 C8.90302281,1.85895731 8.89278062,1.54401 8.59063604,1.16248845 C8.13997973,0.596607511 7.1362452,0.00256054726 5.98143839,0.00256054726 C5.09036794,0.00256054726 3.98933262,0.245812537 3.21604735,1.3545295 C2.39923278,2.52469959 2.48373084,4.50656317 2.48373084,4.50656317 C2.48373084,4.50656317 2.06124054,4.97514332 2.27376596,5.65112779 C2.48629139,6.32711227 2.84732855,6.35527829 2.84732855,6.35527829 C2.84732855,6.35527829 3.05217233,7.23610654 3.37224074,7.50496401 C3.69230914,7.77382147 4.02005919,7.99146798 4.0584674,8.46004813 C4.10967835,9.08738221 4.11992053,9.4663432 3.28774268,10.0014976 C2.23279721,10.6800426 0.314947312,10.513607 0.0973007957,11.9987244 C-0.0921797012,13.2866797 0.0691347759,14.1649474 0.268857462,14.3211408 C0.55051766,14.5439084 2.58871328,14.8383713 4.40670183,14.953596 C4.4271862,14.9151878 4.44767058,14.8767796 4.47071551,14.8383713 C4.48607879,14.5976799 4.51168426,14.3569885 4.54753193,14.1188576 C4.79334446,12.4545019 6.60621192,12.4980312 7.78918475,11.7375486 C8.03499729,11.5839158 8.07852659,11.4789333 8.1169348,11.2254392 L8.1169348,11.2254392 Z M22.8400815,12.001285 C22.6198745,10.5161676 20.7045851,10.6826032 19.6496396,10.0040581 C18.8174618,9.46890375 18.8251434,9.08738221 18.8789149,8.46260868 C18.9173231,7.99402853 19.2450732,7.77638202 19.5651416,7.50752455 C19.88521,7.23866709 20.0900538,6.35783884 20.0900538,6.35783884 C20.0900538,6.35783884 20.4510909,6.32967282 20.6636164,5.65368834 C20.8761418,4.97770386 20.4536515,4.50912372 20.4536515,4.50912372 C20.4536515,4.50912372 20.5381495,2.52726014 19.721335,1.35709005 C18.9506102,0.250933631 17.8470144,0.00512109451 16.9559439,0.00512109451 C15.8036977,0.00512109451 14.7974026,0.599168058 14.3467463,1.165049 C14.0446017,1.54913109 14.0343595,1.86151785 13.9012111,2.31473472 C14.3365041,2.54518397 14.8921428,3.12898875 15.2454984,3.6359771 C16.1596137,4.94441675 16.1135239,7.06967097 16.1135239,7.06967097 C16.1135239,7.06967097 16.5872251,7.59458316 16.3490942,8.3499446 C16.1109633,9.10786659 15.7524867,9.18724355 15.7524867,9.18724355 C15.7524867,9.18724355 15.5706879,10.1730542 15.2122112,10.4751988 C14.8639768,10.7645407 14.8844612,10.7389352 14.8204475,11.2279997 C14.8614163,11.4840544 14.902385,11.5864763 15.145637,11.7452303 C16.3260493,12.5057128 18.1414773,12.4621835 18.3872898,14.1265392 C18.4231375,14.3646701 18.448743,14.6053615 18.4641063,14.846053 C18.4871512,14.8844612 18.5076356,14.9203089 18.5281199,14.9612776 C20.3461085,14.846053 22.3843041,14.5541506 22.6659643,14.3288224 C22.8682475,14.167508 23.0321226,13.2892403 22.8400815,12.001285 L22.8400815,12.001285 Z" id="Shape"></path>
                <path d="M14.5336662,12.8795527 C14.4312443,12.8385839 14.3390646,12.7950546 14.2545666,12.7489648 C13.4351915,12.216371 13.4428731,11.83741 13.494084,11.215197 C13.5324922,10.7466168 13.8602423,10.5289703 14.1803107,10.2601129 C14.5003791,9.99125539 14.7052229,9.11042714 14.7052229,9.11042714 C14.7052229,9.11042714 15.0662601,9.08226112 15.281346,8.40627664 C15.3709652,8.12461644 15.3479203,7.87880391 15.2915882,7.68676286 C15.2506195,7.49984291 15.1712425,7.37949719 15.1123499,7.31548351 C15.0867444,7.27963585 15.0713811,7.26171202 15.0713811,7.26171202 C15.0713811,7.26171202 15.1558792,5.27984844 14.3390646,4.10967835 C13.7706231,3.29542432 13.0255039,2.94975044 12.3162323,2.82172308 C12.0704198,2.76539104 11.8118045,2.73466447 11.5455076,2.73466447 C10.6544371,2.73466447 9.55084126,2.97791646 8.78011654,4.08407287 C7.96330196,5.25424297 8.04780002,7.23610654 8.04780002,7.23610654 C8.04780002,7.23610654 7.62274918,7.70468669 7.83783515,8.38067117 C7.97098361,8.80572201 8.16302465,8.97471813 8.28849147,9.04129236 C8.34482351,9.07457947 8.39091336,9.0925033 8.41651883,9.10274549 C8.4472454,9.22565176 8.64440753,9.98869484 8.93887047,10.2345074 C9.25893888,10.5033648 9.58668892,10.7210114 9.62509713,11.1895915 C9.67886863,11.8169256 9.68655027,12.1958866 8.85437241,12.731041 C7.79942694,13.409586 5.88157705,13.2405899 5.66393053,14.7282678 C5.47188949,16.0162231 5.63576451,16.8944908 5.8354872,17.0506842 C5.97631729,17.1633483 6.62925684,17.2913756 7.47167689,17.4066002 C8.77755599,17.6165651 10.536652,17.7599558 11.5736736,17.7573952 C13.3071641,17.7497136 16.9303385,17.3579498 17.2862545,17.0737291 C17.4834167,16.9175357 17.6472917,16.039268 17.4578112,14.7513127 C17.2580885,13.4121465 15.6833519,13.4147071 14.6002405,12.9333242 C14.5823166,12.894916 14.5567111,12.8897949 14.5336662,12.8795527 Z" id="Shape"></path>
            </g>
        </g>
    </g>
</svg>