<?xml version="1.0" encoding="UTF-8"?>
<svg width="26px" height="22px" viewBox="0 0 26 22" version="1.1" xmlns="http://www.w3.org/2000/svg" xmlns:xlink="http://www.w3.org/1999/xlink">
    <!-- Generator: Sketch 46.2 (44496) - http://www.bohemiancoding.com/sketch -->
    <title>聊天-2</title>
    <desc>Created with Sketch.</desc>
    <defs>
        <linearGradient x1="50%" y1="0%" x2="50%" y2="100%" id="linearGradient-1">
            <stop stop-color="#16F6FF" offset="0%"></stop>
            <stop stop-color="#7B67FF" offset="100%"></stop>
        </linearGradient>
    </defs>
    <g id="Page-1" stroke="none" stroke-width="1" fill="none" fill-rule="evenodd">
        <g id="（代理）我的上级-最近联系下级" transform="translate(-1619.000000, -368.000000)" fill-rule="nonzero" fill="url(#linearGradient-1)">
            <g id="Group-15" transform="translate(1595.000000, 339.000000)">
                <g id="Group-14" transform="translate(7.000000, 11.000000)">
                    <g id="聊天-2" transform="translate(17.000000, 18.000000)">
                        <path d="M23.7811644,20.4199711 C25.1459272,19.3382447 26,17.7928056 26,16.076916 C26,12.8056846 22.8958577,10.1538319 19.0666777,10.1538319 C15.2374978,10.1538319 12.1333555,12.8056846 12.1333555,16.076916 C12.1333555,19.3481474 15.2374978,22 19.0666777,22 C20.2124245,22 21.2932389,21.7625908 22.2454448,21.3421906 L24.2666872,22 L23.781188,20.4199711 L23.7811644,20.4199711 Z M24.2583455,9.97859192 C24.0202289,4.43315076 18.6827715,0 12.1333318,0 C5.43227273,0 0,4.64075948 0,10.3653971 C0,13.318656 1.44571492,15.983396 3.76550368,17.8713791 L3.76550368,17.8713791 L3.03333294,20.730771 L6.29833668,19.4556652 C8.02965885,20.2684465 10.018293,20.730771 12.1333318,20.730771 C12.157551,20.730771 12.1817466,20.7307016 12.2058948,20.7306091 C11.0736795,19.4436802 10.3999716,17.8294316 10.3999716,16.0769391 C10.3999716,11.8710867 14.2801494,8.46154202 19.0666303,8.46154202 C21.013959,8.46154202 22.8113035,9.02587774 24.2583455,9.97859192 L24.2583455,9.97859192 Z" id="Shape"></path>
                    </g>
                </g>
            </g>
        </g>
    </g>
</svg>