<?xml version="1.0" encoding="UTF-8"?>
<svg width="21px" height="21px" viewBox="0 0 21 21" version="1.1" xmlns="http://www.w3.org/2000/svg" xmlns:xlink="http://www.w3.org/1999/xlink">
    <!-- Generator: Sketch 46.2 (44496) - http://www.bohemiancoding.com/sketch -->
    <title>magnifier</title>
    <desc>Created with Sketch.</desc>
    <defs></defs>
    <g id="Page-1" stroke="none" stroke-width="1" fill="none" fill-rule="evenodd">
        <g id="Artboard" transform="translate(-188.000000, -169.000000)" fill-rule="nonzero" fill="#574368">
            <g id="magnifier" transform="translate(188.000000, 169.000000)">
                <path d="M20.0623249,17.327937 L15.329706,12.5949354 C14.624543,13.6916242 13.6913266,14.6243729 12.5946378,15.3295784 L17.3276394,20.06258 C18.0832259,20.8179964 19.3083116,20.8179964 20.0622824,20.06258 C20.8179114,19.3083966 20.8179114,18.0833109 20.0623249,17.327937 Z" id="Shape"></path>
                <path d="M15.471793,7.73591773 C15.471793,3.46386978 12.0080932,0 7.73596025,0 C3.46391229,0 4.25155546e-05,3.46386978 4.25155546e-05,7.73591773 C4.25155546e-05,12.0079657 3.46391229,15.4716654 7.73596025,15.4716654 C12.0080932,15.4716654 15.471793,12.0079657 15.471793,7.73591773 Z M7.73596025,13.5376328 C4.53657974,13.5376328 1.93407509,10.9353408 1.93407509,7.73596025 C1.93407509,4.53657974 4.53657974,1.93407509 7.73596025,1.93407509 C10.9352557,1.93407509 13.537973,4.53657974 13.537973,7.73596025 C13.537973,10.9353408 10.9352557,13.5376328 7.73596025,13.5376328 Z" id="Shape"></path>
                <path d="M3.2234018,7.73591773 L4.51255845,7.73591773 C4.51255845,5.95864001 5.95868252,4.51264348 7.73591773,4.51264348 L7.73591773,3.22335929 C5.24803503,3.22335929 3.2234018,5.24799251 3.2234018,7.73591773 Z" id="Shape"></path>
            </g>
        </g>
    </g>
</svg>