<?xml version="1.0" encoding="UTF-8"?>
<svg width="192px" height="192px" viewBox="0 0 192 192" version="1.1" xmlns="http://www.w3.org/2000/svg" xmlns:xlink="http://www.w3.org/1999/xlink">
    <!-- Generator: Sketch 46.2 (44496) - http://www.bohemiancoding.com/sketch -->
    <title>Group 16</title>
    <desc>Created with Sketch.</desc>
    <defs>
        <path d="M95.6355837,191.214937 C42.8302385,191.214937 0.0178397947,148.421322 0.0178397947,95.6159772 C0.0178397947,42.8183163 42.8302385,0.0170170732 95.6355837,0.0170170732 C148.438367,0.0170170732 191.234544,42.8183163 191.234544,95.6159772 C191.234544,148.421322 148.438367,191.214937 95.6355837,191.214937" id="path-1"></path>
    </defs>
    <g id="Page-1" stroke="none" stroke-width="1" fill="none" fill-rule="evenodd">
        <g id="Artboard" transform="translate(-209.000000, -557.000000)">
            <g id="Group-16" transform="translate(209.000000, 557.000000)">
                <g id="Group-15">
                    <g id="Page-1" transform="translate(0.354308, 0.354308)">
                        <mask id="mask-2" fill="white">
                            <use xlink:href="#path-1"></use>
                        </mask>
                        <use id="Mask" fill="#A79DBF" xlink:href="#path-1"></use>
                    </g>
                    <g id="Group-14" transform="translate(9.000000, 9.000000)">
                        <path d="M173.263059,87.4523463 C173.263059,135.241518 134.519312,173.979773 86.7328862,173.979773 C38.9464605,173.979773 0.202713727,135.241518 0.202713727,87.4523463 C0.202713727,39.6631745 38.9464605,0.922173764 86.7328862,0.922173764 C134.519312,0.922173764 173.263059,39.6631745 173.263059,87.4523463" id="Fill-6" fill="#463A67"></path>
                        <path d="M64.2126887,166.656109 C57.6743897,166.656109 52.3525822,161.337048 52.3525822,154.801495 C52.3525822,148.263196 57.6743897,142.944134 64.2126887,142.944134 C70.7509877,142.944134 76.0645571,148.263196 76.0645571,154.801495 C76.0645571,161.337048 70.7509877,166.656109 64.2126887,166.656109 Z M152.4454,131.210345 C150.119512,135.403534 145.648974,138.251168 140.527627,138.251168 C137.24612,138.251168 134.230979,137.084105 131.874884,135.142661 C130.131155,135.249756 128.370949,135.312915 126.59976,135.312915 C119.83354,135.312915 113.259543,134.50009 106.962894,132.976043 C105.419625,134.115646 103.519372,134.799407 101.454357,134.799407 C97.2062472,134.799407 93.6254232,131.929805 92.5187729,128.030442 C81.8092533,123.213904 72.3079871,116.189557 64.5834028,107.547799 C62.1641498,108.846671 59.401643,109.585354 56.4716282,109.585354 C46.9895843,109.585354 39.2787302,101.869007 39.2787302,92.3897094 C39.2787302,86.2083944 42.5547448,80.7794918 47.4619016,77.7478739 C46.4101719,74.4965736 45.5589023,71.1601463 44.9108391,67.7440841 C44.5346329,71.3523685 41.4755547,74.175288 37.7711594,74.175288 C33.8086371,74.175288 30.5902891,70.954194 30.5902891,66.9944178 C30.5902891,63.0346415 33.8086371,59.8135476 37.7711594,59.8135476 C40.6627297,59.8135476 43.1506334,61.5353088 44.2874901,64.0039904 C43.735538,60.1348332 43.4444587,56.180549 43.4444587,52.1603601 C43.4444587,37.1038739 47.4454254,22.9810382 54.4450576,10.7996461 C24.5545137,23.4039269 3.58033145,52.9786772 3.58033145,87.4523463 C3.58033145,133.376963 40.8055233,170.604901 86.7328862,170.604901 C117.598271,170.604901 144.539578,153.785463 158.884842,128.810314 C156.784129,129.697282 154.633987,130.496377 152.4454,131.210345 L152.4454,131.210345 Z" id="Fill-7" fill="#2E2153"></path>
                        <path d="M85.8541564,74.9277004 C81.0321266,74.9277004 77.1245249,78.8380481 77.1245249,83.6573319 C77.1245249,88.4793618 81.0321266,92.3897094 85.8541564,92.3897094 C90.6761863,92.3897094 94.5837879,88.4793618 94.5837879,83.6573319 C94.5837879,78.8380481 90.6761863,74.9277004 85.8541564,74.9277004 Z M64.2126887,144.844387 C58.7123893,144.844387 54.2528355,149.301195 54.2528355,154.801495 C54.2528355,160.299048 58.7123893,164.755856 64.2126887,164.755856 C69.7102421,164.755856 74.1670499,160.299048 74.1670499,154.801495 C74.1670499,149.301195 69.7102421,144.844387 64.2126887,144.844387 Z M56.4716282,77.0915726 C48.0248379,77.0915726 41.1762374,83.9401731 41.1762374,92.3897094 C41.1762374,100.8365 48.0248379,107.6851 56.4716282,107.6851 C64.9211646,107.6851 71.7697651,100.8365 71.7697651,92.3897094 C71.7697651,83.9401731 64.9211646,77.0915726 56.4716282,77.0915726 Z M37.7711594,61.7138008 C34.8521288,61.7138008 32.4877963,64.0753872 32.4877963,66.9944178 C32.4877963,69.9107023 34.8521288,72.2750348 37.7711594,72.2750348 C40.6846979,72.2750348 43.0490303,69.9107023 43.0490303,66.9944178 C43.0490303,64.0753872 40.6846979,61.7138008 37.7711594,61.7138008 Z M110.84029,11.0001063 C107.924005,11.0001063 105.556927,13.3671848 105.556927,16.2834693 C105.556927,19.1997539 107.924005,21.5668324 110.84029,21.5668324 C113.75932,21.5668324 116.120907,19.1997539 116.120907,16.2834693 C116.120907,13.3671848 113.75932,11.0001063 110.84029,11.0001063 Z M101.454357,118.117271 C97.3737551,118.117271 94.0647881,121.428984 94.0647881,125.509585 C94.0647881,129.592933 97.3737551,132.9019 101.454357,132.9019 C105.537704,132.9019 108.846671,129.592933 108.846671,125.509585 C108.846671,121.428984 105.537704,118.117271 101.454357,118.117271 Z M140.527627,112.919035 C134.055233,112.919035 128.807568,118.163953 128.807568,124.636348 C128.807568,131.105996 134.055233,136.350914 140.527627,136.350914 C146.997275,136.350914 152.24494,131.105996 152.24494,124.636348 C152.24494,118.163953 146.997275,112.919035 140.527627,112.919035 Z M85.8541564,53.7750261 C85.8541564,63.795292 77.7313977,71.9207968 67.7083857,71.9207968 C57.6853738,71.9207968 49.5653611,63.795292 49.5653611,53.7750261 C49.5653611,43.7547602 57.6853738,35.6292554 67.7083857,35.6292554 C77.7313977,35.6292554 85.8541564,43.7547602 85.8541564,53.7750261 L85.8541564,53.7750261 Z" id="Fill-8" fill="#2E2153"></path>
                    </g>
                </g>
                <g id="Group-6" transform="translate(94.388782, 64.805140)" fill="#A79DBF">
                    <path d="M44.9601727,66.5955593 C30.052959,66.5955593 17.6347049,56.0026782 14.8701018,41.9645926 C14.4930486,40.0514219 14.2902293,38.0763165 14.2902293,36.0535689 C14.2902293,28.4975316 17.0514294,21.5880656 21.6155428,16.2562338 C27.2407138,9.68434617 35.6087087,5.51157864 44.9601727,5.51157864 C51.1053232,5.51157864 56.8237367,7.31789491 61.6219769,10.4173539 C52.0615683,1.37011879 38.072486,-1.92535346 25.25608,2.38353436 C23.6410127,2.92665432 22.0436411,3.58343472 20.4775772,4.37089061 C2.59000971,13.3718449 -4.62981052,35.1980529 4.35072568,53.1244146 C5.84600708,56.1102132 7.70336845,58.791783 9.8329704,61.1595954 C20.4850638,73.0027414 38.0901816,76.7868854 52.9960341,69.2852962 C58.3067672,66.6132549 62.6680614,62.8052897 65.9533246,58.3085559 C60.4656351,63.4436939 53.0845123,66.5955593 44.9601727,66.5955593" id="Fill-4"></path>
                    <circle id="Oval-7" cx="44.5338086" cy="36.7512013" r="25.5096574"></circle>
                    <circle id="Oval-8" cx="62.6932257" cy="78.2584404" r="10.8091768"></circle>
                </g>
                <path d="M101.312574,53.5635963 L64.7111887,116.240184 L59.2942817,53.5635963 L30.3932215,53.5635963 L29.7262321,55.7905242 L37.9526618,55.7905242 L22.2375742,114.320208 C20.6252294,120.416355 18.6644166,124.94916 16.3558165,127.920666 C14.0478969,130.891492 11.1131435,132.605927 7.7176228,132.884293 L7.05063338,134.889345 L32.1723137,134.889345 L32.8331777,132.902669 C32.2832517,132.99387 24.838833,133.080306 24.838833,130.384444 C24.838833,127.487804 24.946368,128.268454 25.1627993,127.000493 C25.3765082,125.733213 25.761048,123.992915 26.3123352,121.774155 L40.4225645,69.2215133 L43.9555667,134.889345 L60.8508172,134.889345 L97.9510831,70.5051277 L79.0814078,132.884293 L72.8559463,132.884293 L72.1889569,134.889345 L108.871333,134.889345 L109.538323,132.884293 L102.646553,132.884293 L104.597837,125.447361 L109.634968,106.252358 C109.257915,104.339187 109.055776,102.364082 109.055776,100.341334 C109.055776,92.7859775 111.816977,85.8765115 116.38109,80.5446797 L120.020947,66.6719803 L122.87675,55.7905242 L129.991077,55.7905242 L130.658067,53.5635963 L101.312574,53.5635963 Z" id="Fill-9" fill="#A79DBF"></path>
            </g>
        </g>
    </g>
</svg>