<?xml version="1.0" encoding="UTF-8"?>
<svg width="20px" height="20px" viewBox="0 0 20 20" version="1.1" xmlns="http://www.w3.org/2000/svg" xmlns:xlink="http://www.w3.org/1999/xlink">
    <!-- Generator: Sketch 46.2 (44496) - http://www.bohemiancoding.com/sketch -->
    <title>关闭</title>
    <desc>Created with Sketch.</desc>
    <defs></defs>
    <g id="Page-1" stroke="none" stroke-width="1" fill="none" fill-rule="evenodd">
        <g id="Artboard" transform="translate(-243.000000, -113.000000)" fill-rule="nonzero" fill="#FFFFFF">
            <g id="关闭" transform="translate(243.000000, 113.000000)">
                <path d="M18.9639426,1.87383007 C19.3854867,1.45293656 19.3934865,0.750513506 18.96448,0.322198771 C18.5325182,-0.109096374 17.8397555,-0.105877531 17.4104505,0.322735245 L9.6435865,8.0776431 L1.87672255,0.322735245 C1.4551785,-0.0981582691 0.75169964,-0.106115964 0.322693053,0.322198771 C-0.1092687,0.753493916 -0.106044882,1.4452173 0.323260206,1.87383007 L8.09012416,9.62870813 L0.323230356,17.383616 C-0.0983136888,17.8045095 -0.106313533,18.5069326 0.322663203,18.9352473 C0.754624956,19.3665424 1.44741746,19.3633236 1.8766927,18.9347108 L9.64355665,11.1798328 L17.4104206,18.9347108 C17.8319647,19.3556043 18.5355032,19.363562 18.9644501,18.9352473 C19.3964417,18.5039521 19.393188,17.8122288 18.9639128,17.383616 L11.1970787,9.62870813 L18.9639426,1.87383007 Z" id="Shape"></path>
            </g>
        </g>
    </g>
</svg>