<?xml version="1.0" encoding="UTF-8"?>
<svg width="21px" height="21px" viewBox="0 0 21 21" version="1.1" xmlns="http://www.w3.org/2000/svg" xmlns:xlink="http://www.w3.org/1999/xlink">
    <!-- Generator: Sketch 46.2 (44496) - http://www.bohemiancoding.com/sketch -->
    <title>设置-实</title>
    <desc>Created with Sketch.</desc>
    <defs></defs>
    <g id="Page-1" stroke="none" stroke-width="1" fill="none" fill-rule="evenodd">
        <g id="Artboard" transform="translate(-241.000000, -490.000000)" fill-rule="nonzero" fill="#FFFFFF">
            <g id="设置-实" transform="translate(241.000000, 490.000000)">
                <path d="M20.6810216,7.79436425 C19.5696077,7.77192989 18.4964688,7.16386177 17.9001231,6.09211714 C17.3042334,5.02121909 17.3327897,3.75401419 17.8685433,2.74446825 C16.6178997,1.47004252 15.0610803,0.51803907 13.3231087,0.0181588298 C12.7486722,1.00571861 11.7045694,1.66605057 10.5118302,1.66605057 C9.31909091,1.66605057 8.27498815,1.00571863 7.70055164,0.0181588298 C5.96258007,0.518063986 4.40578466,1.47006743 3.15514104,2.74446825 C3.69089462,3.75401421 3.71945088,5.0211942 3.12356119,6.09211714 C2.52721557,7.16386179 1.45407659,7.77192989 0.342662676,7.79436425 C0.126715069,8.66494668 0.0118421609,9.577634 0.0118421609,10.5181588 C0.0118421609,11.4586837 0.126691056,12.371371 0.342662676,13.2419534 C1.45407662,13.2643878 2.52721557,13.8724559 3.12356119,14.9442005 C3.71942687,16.0150986 3.69089462,17.2823035 3.15514104,18.2918494 C4.40578466,19.5662502 5.96258007,20.5182537 7.70055164,21.0181588 C8.27498815,20.0305991 9.31909091,19.3702671 10.5118302,19.3702671 C11.7045694,19.3702671 12.7486722,20.030599 13.3231087,21.0181588 C15.0610803,20.5182537 16.6178757,19.5662502 17.8685193,18.2918494 C17.3327657,17.2823035 17.3042095,16.0151235 17.9000991,14.9442005 C18.4964688,13.8724559 19.5695837,13.2644127 20.6810216,13.2419534 C20.8969693,12.371371 21.0118422,11.4586837 21.0118422,10.5181588 C21.0118422,9.577634 20.8969933,8.66494668 20.6810216,7.79436425 Z M10.5118302,13.3133898 C9.02402571,13.3133898 7.81792022,12.0619213 7.81792022,10.5181588 C7.81792022,8.97439637 9.02402571,7.7229279 10.5118302,7.7229279 C11.9996346,7.7229279 13.2057401,8.97439637 13.2057401,10.5181588 C13.2057401,12.0619213 11.9996346,13.3133898 10.5118302,13.3133898 Z" id="Shape"></path>
            </g>
        </g>
    </g>
</svg>