<?xml version="1.0" encoding="UTF-8"?>
<svg width="24px" height="24px" viewBox="0 0 24 24" version="1.1" xmlns="http://www.w3.org/2000/svg" xmlns:xlink="http://www.w3.org/1999/xlink">
    <!-- Generator: Sketch 46.2 (44496) - http://www.bohemiancoding.com/sketch -->
    <title>Group 6</title>
    <desc>Created with Sketch.</desc>
    <defs>
        <linearGradient x1="50%" y1="0%" x2="50%" y2="100%" id="linearGradient-1">
            <stop stop-color="#9578E4" offset="0%"></stop>
            <stop stop-color="#5E5180" offset="100%"></stop>
        </linearGradient>
    </defs>
    <g id="Page-1" stroke="none" stroke-width="1" fill="none" fill-rule="evenodd">
        <g id="Artboard" transform="translate(-197.000000, -110.000000)">
            <g id="Group-6" transform="translate(197.000000, 110.000000)">
                <circle id="Oval-4" fill="url(#linearGradient-1)" cx="12" cy="12" r="12"></circle>
                <g id="管理员的副本" transform="translate(7.000000, 6.000000)" fill-rule="nonzero" fill="#FFFFFF">
                    <path d="M5.6664369,0.0911133641 C5.89805129,0.143135675 6.11838669,0.213792843 6.32252556,0.300646536 C6.52617404,0.389475415 6.7077413,0.490060055 6.86770412,0.602441324 C7.02620938,0.714318579 7.15134082,0.826699847 7.24064647,0.939067493 C7.453626,1.19669985 7.60869852,1.47788459 7.70684483,1.78801603 C7.80401036,2.0961859 7.87417713,2.39110159 7.91489321,2.67228633 C7.95513251,2.99420077 7.97623295,3.31905756 7.97623295,3.64734708 C8.0326824,3.68758639 8.07830238,3.73959508 8.11167622,3.80289638 C8.14357887,3.8598226 8.17007361,3.93195094 8.19068365,4.02077982 C8.21029929,4.1096087 8.21374565,4.21707244 8.19607795,4.34563661 C8.18037182,4.5134593 8.14503642,4.64890257 8.09252372,4.74948721 C8.03952063,4.84812391 7.97966569,4.92713134 7.91487959,4.98405756 C7.84078968,5.04735887 7.76325342,5.0915213 7.68228442,5.11605447 C7.64204511,5.25198813 7.59984424,5.38104269 7.55911455,5.50176061 C7.51887524,5.60530121 7.47128007,5.70786104 7.41827698,5.80796891 C7.3657779,5.90856718 7.30590933,5.98561305 7.24063284,6.04252565 C7.08606433,6.16324356 6.9594481,6.26529938 6.86082502,6.34922434 C6.76267872,6.43462049 6.69692546,6.57692923 6.66551319,6.77616419 C6.64098002,6.89686848 6.63215298,7.01905757 6.64098002,7.14320822 C6.64980706,7.26884367 6.68318089,7.39250393 6.74501102,7.51664096 C6.80635076,7.64030122 6.89959315,7.75954796 7.02619576,7.87192923 C7.15279837,7.98380649 7.3304425,8.08440475 7.55911455,8.17322 C7.76325342,8.25369861 7.98653116,8.32535019 8.22796699,8.38914188 C8.46891243,8.45440475 8.70297877,8.52850828 8.93166444,8.61192923 C9.16033648,8.69584058 9.36251379,8.80134275 9.53868675,8.92500301 C9.71485971,9.04914004 9.83948713,9.2199187 9.9116291,9.43633097 C9.95384359,9.56489514 9.98377106,9.72387718 10.0048715,9.91183315 C10.0240104,10.1007563 10.034799,10.2921314 10.034799,10.4830297 C10.034799,10.6758759 10.020564,10.8564624 9.9925981,11.0257699 C9.96267062,11.1931022 9.92045613,11.3226472 9.86254913,11.410972 C9.82181943,11.4659367 9.70601905,11.5228629 9.51364956,11.5783043 C9.32227448,11.6352305 9.0847754,11.6887104 8.80310027,11.7407327 C8.52142513,11.7947166 8.20686655,11.8398598 7.85994217,11.8800991 C7.511533,11.9203384 7.16312382,11.9536986 6.81128191,11.9821685 C6.46138794,12.0106248 6.12378099,12.0322157 5.80186655,12.048889 C5.47800417,12.0641047 5.19827697,12.0724414 4.96224907,12.0724414 C4.72522675,12.0724414 4.44846915,12.0641047 4.13538175,12.048889 C3.8203464,12.032202 3.49499923,12.0106112 3.1605662,11.9821685 C2.82711872,11.9538297 2.49398348,11.9219297 2.16121747,11.8864742 C1.83047599,11.8496812 1.53137836,11.8113899 1.26050544,11.7711506 C0.991348901,11.7309249 0.762676859,11.6906856 0.574489317,11.6523942 C0.387772948,11.6121685 0.26828101,11.5719292 0.21895585,11.5316899 C0.137986849,11.4659367 0.0746855455,11.2701345 0.0305231125,10.9418449 C-0.0151104934,10.6120842 0.00427357267,10.1861252 0.0852425737,9.66549341 C0.125727074,9.36909292 0.247180576,9.14138804 0.445925146,8.98583874 C0.646386084,8.82782386 0.878736059,8.7041636 1.14445987,8.61191561 C1.41018367,8.51966762 1.68621931,8.43770421 1.97132718,8.36557587 C2.25790623,8.2939243 2.51160183,8.18793173 2.73144684,8.05250209 C2.90369667,7.94845747 3.03397721,7.84836322 3.12377325,7.75119769 C3.21358291,7.65551696 3.27860058,7.55835144 3.31908508,7.46265708 C3.36128595,7.36549156 3.38067002,7.26685486 3.38067002,7.16135269 C3.38067002,7.05732169 3.37723728,6.94199807 3.36839662,6.81294351 C3.35269049,6.6284339 3.28742762,6.48120763 3.17309841,6.37424791 C3.05875558,6.26529938 2.93190778,6.15489329 2.79304539,6.04251202 C2.7277689,5.9855858 2.66987552,5.90855355 2.62226673,5.80795529 C2.57294157,5.70784742 2.52730797,5.60528759 2.48682347,5.50174698 C2.44633896,5.38102907 2.40585446,5.25197451 2.3636536,5.11604085 C2.30721777,5.09935393 2.24931076,5.07089763 2.19288856,5.03065833 C2.14380859,4.99041902 2.09106432,4.93545437 2.03291212,4.86332603 C1.97672148,4.79118406 1.92716475,4.68568189 1.88692544,4.55025225 C1.83760028,4.41431859 1.81822984,4.28869676 1.83048961,4.17680589 C1.84299458,4.06442462 1.86582501,3.96874389 1.89918522,3.88826528 C1.93108788,3.79994041 1.98358696,3.71601544 2.05744529,3.63555045 C2.05057981,3.33081332 2.06627233,3.0255858 2.10675683,2.72133905 C2.14013066,2.46321631 2.19828286,2.18645871 2.28440096,1.89007184 C2.37076426,1.59367135 2.49909686,1.32917352 2.66961671,1.09608796 C2.8264056,0.87182944 2.99888701,0.689281395 3.19076611,0.548443827 C3.38410275,0.40809665 3.57941459,0.297200177 3.78012072,0.216707945 C3.97886529,0.136229335 4.17932623,0.0832398644 4.37977355,0.0542795521 C4.58047968,0.0263408877 4.77432034,0.0125963181 4.96226269,0.0125963181 C5.1982906,0.0125963181 5.43384173,0.0390910534 5.6664369,0.0911133641 Z" id="Shape"></path>
                </g>
            </g>
        </g>
    </g>
</svg>