<?xml version="1.0" encoding="iso-8859-1"?>
<!-- Generator: Adobe Illustrator 19.0.0, SVG Export Plug-In . SVG Version: 6.00 Build 0)  -->
<svg version="1.1" id="Layer_1" xmlns="http://www.w3.org/2000/svg" xmlns:xlink="http://www.w3.org/1999/xlink" x="0px" y="0px"
	 viewBox="0 0 512 512" style="enable-background:new 0 0 512 512;" xml:space="preserve">
<path style="fill:#7C54B8;" d="M443.916,512H68.084c-10.922,0-19.775-8.854-19.775-19.775V185.719h415.384v306.506
	C463.692,503.147,454.838,512,443.916,512z"/>
<path style="fill:#674799;" d="M411.666,185.719H48.309v41.91h246.28c64.66,0,117.078,52.418,117.078,117.078v147.518
	c0,10.922-8.854,19.775-19.776,19.775h52.026c10.922,0,19.775-8.853,19.775-19.775V227.628v-41.91L411.666,185.719L411.666,185.719z
	"/>
<rect x="217.507" y="185.721" style="fill:#FD4DD7;" width="76.999" height="326.279"/>
<rect x="217.507" y="185.721" style="fill:#E846AA;" width="76.999" height="41.91"/>
<path style="fill:#FD4DD7;" d="M474.513,131.215H37.487c-9.303,0-16.844,7.541-16.844,16.844v22.054
	c0,9.303,7.541,16.844,16.844,16.844h437.025c9.303,0,16.844-7.541,16.844-16.844v-22.054
	C491.357,138.756,483.815,131.215,474.513,131.215z"/>
<path style="fill:#E846AA;" d="M474.513,131.215h-52.025c9.303,0,16.844,7.541,16.844,16.844v22.054
	c0,9.303-7.541,16.844-16.844,16.844h52.025c9.303,0,16.844-7.541,16.844-16.844v-22.054
	C491.357,138.756,483.815,131.215,474.513,131.215z"/>
<g>
	<path style="fill:#FFDB6C;" d="M206.652,131.215H256v-22.068c0-48.251-39.115-87.364-87.364-87.364h-29.779
		c-10.808,0-19.569,8.761-19.569,19.569v2.498C119.287,92.1,158.403,131.215,206.652,131.215z"/>
	<path style="fill:#FFDB6C;" d="M315.171,131.215H256v-26.46C256,46.9,302.9,0,360.755,0h39.602
		c10.808,0,19.569,8.761,19.569,19.569v6.891C419.925,84.315,373.026,131.215,315.171,131.215z"/>
</g>
<g>
	<path style="fill:#FFB966;" d="M328.023,118.363h-59.171v-26.46c0-25.643,9.227-49.121,24.524-67.331
		c-22.841,19.216-37.368,47.997-37.368,80.182v26.46h59.171c32.212,0,61.014-14.551,80.229-37.424
		C377.191,109.116,353.692,118.363,328.023,118.363z"/>
	<path style="fill:#FFB966;" d="M206.652,106.75c-43.14,0-78.951-31.275-86.059-72.383c-0.831,2.171-1.306,4.52-1.306,6.984v2.5
		c0,48.251,39.115,87.364,87.364,87.364H256v-22.068c0-0.804-0.038-1.598-0.061-2.397H206.652z"/>
	<path style="fill:#FFB966;" d="M315.171,106.75H256v24.465h59.171c57.854,0,104.755-46.9,104.755-104.755v-6.891
		c0-1.833-0.271-3.6-0.742-5.282C413.094,66.346,368.863,106.75,315.171,106.75z"/>
</g>
<g>
	<circle style="fill:#FFDB6C;" cx="105.663" cy="270.908" r="19.407"/>
	<circle style="fill:#FFDB6C;" cx="168.231" cy="350.099" r="19.407"/>
	<circle style="fill:#FFDB6C;" cx="112.265" cy="436.488" r="19.407"/>
	<circle style="fill:#FFDB6C;" cx="334.838" cy="252.897" r="19.407"/>
	<circle style="fill:#FFDB6C;" cx="419.926" cy="331.184" r="19.407"/>
	<circle style="fill:#FFDB6C;" cx="331.358" cy="389.392" r="19.407"/>
	<circle style="fill:#FFDB6C;" cx="406.82" cy="455.898" r="19.407"/>
</g>
<g>
</g>
<g>
</g>
<g>
</g>
<g>
</g>
<g>
</g>
<g>
</g>
<g>
</g>
<g>
</g>
<g>
</g>
<g>
</g>
<g>
</g>
<g>
</g>
<g>
</g>
<g>
</g>
<g>
</g>
</svg>
