<?xml version="1.0" encoding="utf-8"?>
<!-- Generator: Adobe Illustrator 19.0.0, SVG Export Plug-In . SVG Version: 6.00 Build 0)  -->
<svg version="1.1" id="Capa_1" xmlns="http://www.w3.org/2000/svg" xmlns:xlink="http://www.w3.org/1999/xlink" x="0px" y="0px"
	 viewBox="-331 132 297 297" enable-background="new -331 132 297 297" xml:space="preserve">
<g>
	<g>
		<linearGradient id="SVGID_1_" gradientUnits="userSpaceOnUse" x1="-563.8636" y1="90.5203" x2="-133.3629" y2="319.6828">
			<stop  offset="0" style="stop-color:#FFFFFF"/>
			<stop  offset="3.417005e-002" style="stop-color:#F8FFFF"/>
			<stop  offset="8.282626e-002" style="stop-color:#E6FEFF"/>
			<stop  offset="0.1402" style="stop-color:#C7FDFF"/>
			<stop  offset="0.2042" style="stop-color:#9CFBFF"/>
			<stop  offset="0.2728" style="stop-color:#66F8FF"/>
			<stop  offset="0.3333" style="stop-color:#30F6FF"/>
			<stop  offset="0.4118" style="stop-color:#2FF1FD"/>
			<stop  offset="0.5107" style="stop-color:#2BE1F5"/>
			<stop  offset="0.6207" style="stop-color:#24C7EA"/>
			<stop  offset="0.7386" style="stop-color:#1BA3D9"/>
			<stop  offset="0.863" style="stop-color:#0F75C4"/>
			<stop  offset="0.9909" style="stop-color:#013DAB"/>
			<stop  offset="1" style="stop-color:#0039A9"/>
		</linearGradient>
		<path fill="url(#SVGID_1_)" d="M-34,317.1c-6.9-13.3-20-29.6-38-44.5c-33.3-27.6-83.9-50.4-144.7-41.2c-6.2,0.9-12,2-17.6,3.2
			c-78.9,16.8-96.6,56.1-96.6,56.1c4,5.2,8.6,9.8,13.5,14c1.4,1.2,2.8,2.3,4.3,3.4c24.1-16.9,81.1-57.4,167.5-47.7
			c0,0-85.6,19.2-131.1,65.7c13.2,4.1,27,6.4,40.2,7.2c15.6,9.1,43.6,21.5,74.1,16.7c0,0-13.6-11.3-17.8-22.4c0-0.1-0.1-0.2-0.2-0.3
			c37.9-11,54-30.3,85-31.2C-58.2,295.2-35.4,315.8-34,317.1z M-299.5,285.5c-2.8,0-5.1-2.3-5.1-5.1c0-2.8,2.3-5.1,5.1-5.1
			c2.8,0,5.1,2.3,5.1,5.1C-294.4,283.2-296.7,285.5-299.5,285.5z"/>
		<linearGradient id="SVGID_2_" gradientUnits="userSpaceOnUse" x1="-500.4937" y1="597.1776" x2="-73.9101" y2="170.5939">
			<stop  offset="0" style="stop-color:#FFFFFF"/>
			<stop  offset="3.417005e-002" style="stop-color:#F8FFFF"/>
			<stop  offset="8.282626e-002" style="stop-color:#E6FEFF"/>
			<stop  offset="0.1402" style="stop-color:#C7FDFF"/>
			<stop  offset="0.2042" style="stop-color:#9CFBFF"/>
			<stop  offset="0.2728" style="stop-color:#66F8FF"/>
			<stop  offset="0.3333" style="stop-color:#30F6FF"/>
			<stop  offset="0.4118" style="stop-color:#2FF1FD"/>
			<stop  offset="0.5107" style="stop-color:#2BE1F5"/>
			<stop  offset="0.6207" style="stop-color:#24C7EA"/>
			<stop  offset="0.7386" style="stop-color:#1BA3D9"/>
			<stop  offset="0.863" style="stop-color:#0F75C4"/>
			<stop  offset="0.9909" style="stop-color:#013DAB"/>
			<stop  offset="1" style="stop-color:#0039A9"/>
		</linearGradient>
		<path fill="url(#SVGID_2_)" d="M-97.1,254.7c-7.4-4.9-40.5-24.2-78-25.1c4.7-10.5,13.7-19.6,13.7-19.6
			c-27.4-2.2-51.8,9.9-67.2,20.3c-1.9,1.3-3.9,2.7-5.8,4.3c-22.4,18.1-36.5,53.9-83.1,70.1c1.4,1.2,2.8,2.3,4.3,3.4
			c24.1-16.9,84.8-52.4,164.2-47.7c0,0-73.8,13.5-120.5,58.3c10.5-3.8,23-9.7,37.9-18.7c57.7-34.6,86.6-28.6,115.4-24.7
			c30.3,4.1,39.1,2.3,45.9-1.3c32.6-21.8,33.7-52.5,33.7-52.5C-47.9,238.3-77,248.9-97.1,254.7z"/>
	</g>
</g>
</svg>
