<?xml version="1.0" encoding="utf-8"?>
<!-- Generator: Adobe Illustrator 19.0.0, SVG Export Plug-In . SVG Version: 6.00 Build 0)  -->
<svg version="1.1" id="图层_1" xmlns="http://www.w3.org/2000/svg" xmlns:xlink="http://www.w3.org/1999/xlink" x="0px" y="0px"
	 viewBox="-250 342 110 110" style="enable-background:new -250 342 110 110;" xml:space="preserve">
<style type="text/css">
	.st0{fill:#3E3E3F;}
	.st1{fill:#E2E4E5;}
	.st2{fill:#F0F1F1;}
	.st3{fill:#FFFFFF;}
	.st4{fill:#CFD3D4;}
	.st5{fill:#5B5C5F;}
	.st6{fill:#17B198;}
</style>
<g id="Artboard">
</g>
<g>
	<path class="st0" d="M-163,415.6c0,1.6-1.3,2.9-2.9,2.9h-58.2c-1.6,0-2.9-1.3-2.9-2.9v-40.7c0-1.6,1.3-2.9,2.9-2.9h58.2
		c1.6,0,2.9,1.3,2.9,2.9V415.6z"/>
	<rect x="-203.7" y="418.5" class="st1" width="17.5" height="7.5"/>
	<path class="st2" d="M-180.5,427.4c0,0.8-0.7,1.5-1.5,1.5h-26.2c-0.8,0-1.5-0.7-1.5-1.5c0-0.8,0.7-1.5,1.5-1.5h26.2
		C-181.1,425.9-180.5,426.6-180.5,427.4z"/>
	<path class="st3" d="M-163,415.6v-8.7h-64v8.7c0,1.6,1.3,2.9,2.9,2.9h58.2C-164.3,418.5-163,417.2-163,415.6z"/>
	<path class="st4" d="M-195,416.8c-2.2,0-3.9-1.8-3.9-3.9c0-2.2,1.8-3.9,3.9-3.9s3.9,1.8,3.9,3.9C-191.1,415-192.8,416.8-195,416.8z
		 M-195,410.9c-1.1,0-1.9,0.9-1.9,1.9c0,1.1,0.9,1.9,1.9,1.9s1.9-0.9,1.9-1.9C-193.1,411.8-193.9,410.9-195,410.9z"/>
	<path class="st5" d="M-227,374.8v32h19.7l34.9-34.9h-51.7C-225.7,371.9-227,373.2-227,374.8z"/>
	<circle class="st3" cx="-195" cy="380.8" r="16"/>
	<path class="st6" d="M-185.1,382.2c-0.2-0.5-0.7-0.8-1.2-0.8h-3.4v-9.2c0-0.7-0.6-1.3-1.3-1.3h-7.9c-0.7,0-1.3,0.6-1.3,1.3v9.2
		h-3.4c-0.5,0-1,0.3-1.2,0.8c-0.2,0.5-0.1,1.1,0.3,1.4l8.7,7.9c0.5,0.5,1.3,0.5,1.9,0l8.7-7.9C-185,383.2-184.9,382.6-185.1,382.2z"
		/>
</g>
</svg>
