<?xml version="1.0" encoding="utf-8"?>
<!-- Generator: Adobe Illustrator 22.0.0, SVG Export Plug-In . SVG Version: 6.00 Build 0)  -->
<svg version="1.1" id="组_2" xmlns="http://www.w3.org/2000/svg" xmlns:xlink="http://www.w3.org/1999/xlink" x="0px" y="0px"
	 viewBox="0 0 32 32" style="enable-background:new 0 0 32 32;" xml:space="preserve">
<style type="text/css">
	.st0{fill:#7B5DFF;}
	.st1{fill:#301A8F;}
</style>
<path id="color" class="st0" d="M5.5,7h21v17.5h-21V7z"/>
<path id="top" class="st1" d="M16,0C7.2,0,0,7.2,0,16s7.2,16,16,16s16-7.2,16-16S24.8,0,16,0z M23.7,19.4c-0.4,0.4-1.1,0.4-1.5,0
	L16,13.2l-6.2,6.2c-0.4,0.4-1.1,0.4-1.5,0s-0.4-1.1,0-1.5l6.9-6.9c0.4-0.4,1.1-0.4,1.5,0l6.9,6.9C24.1,18.3,24.1,19,23.7,19.4z"/>
</svg>
