<?xml version="1.0" encoding="iso-8859-1"?>
<!-- Generator: Adobe Illustrator 18.0.0, SVG Export Plug-In . SVG Version: 6.00 Build 0)  -->
<!DOCTYPE svg PUBLIC "-//W3C//DTD SVG 1.1//EN" "http://www.w3.org/Graphics/SVG/1.1/DTD/svg11.dtd">
<svg version="1.1" id="Capa_1" xmlns="http://www.w3.org/2000/svg" xmlns:xlink="http://www.w3.org/1999/xlink" x="0px" y="0px"
	 viewBox="0 0 297 297" style="enable-background:new 0 0 297 297;" xml:space="preserve">
<g>
	<g>
		<circle style="fill:#D95459;" cx="77.838" cy="110.583" r="77.838"/>
	</g>
	<g style="opacity:0.52;">
		<path style="fill:#D95459;" d="M147.687,76.226c0.527,3.656,0.813,7.389,0.813,11.19c0,42.989-34.849,77.838-77.838,77.838
			c-30.654,0-57.157-17.726-69.849-43.481c5.428,37.685,37.838,66.647,77.026,66.647c42.989,0,77.838-34.849,77.838-77.838
			C155.676,98.248,152.795,86.59,147.687,76.226z"/>
	</g>
	<g>
		<circle style="fill:#BDC3C7;" cx="219.162" cy="110.583" r="77.838"/>
	</g>
	<g style="opacity:0.76;">
		<path style="fill:#BDC3C7;" d="M242.304,36.243c20.258,14.053,33.535,37.464,33.535,63.987c0,42.989-34.849,77.838-77.838,77.838
			c-8.059,0-15.831-1.225-23.141-3.498c12.577,8.724,27.838,13.851,44.303,13.851c42.989,0,77.838-34.849,77.838-77.838
			C297,75.653,273.992,46.097,242.304,36.243z"/>
	</g>
	<g>
		<circle style="fill:#353231;" cx="148.5" cy="165.255" r="99"/>
	</g>
	<g style="opacity:0.47;">
		<path style="fill:#494949;" d="M222.251,99.218c5.535,12.35,8.617,26.039,8.617,40.448c0,54.676-44.324,99-99,99
			c-29.301,0-55.624-12.733-73.751-32.964c15.468,34.51,50.117,58.552,90.383,58.552c54.676,0,99-44.324,99-99
			C247.5,139.879,237.949,116.738,222.251,99.218z"/>
	</g>
	<g>
		<circle style="fill:#FFFFFF;" cx="148.5" cy="132.255" r="49.5"/>
	</g>
	<g>
		<path style="fill:#2B2B2B;" d="M148.5,127.629c-11.851,0-21.133-7.006-21.133-15.949S136.649,95.73,148.5,95.73
			s21.133,7.006,21.133,15.949S160.351,127.629,148.5,127.629z M148.5,104.73c-7.15,0-12.133,3.662-12.133,6.949
			s4.982,6.949,12.133,6.949s12.133-3.662,12.133-6.949S155.65,104.73,148.5,104.73z"/>
	</g>
	<g>
		<path style="fill:#2B2B2B;" d="M148.5,158.642c-13.233,0-24-8.513-24-18.976c0-10.464,10.767-18.977,24-18.977s24,8.513,24,18.977
			C172.5,150.13,161.733,158.642,148.5,158.642z M148.5,129.69c-8.131,0-15,4.568-15,9.977c0,5.407,6.869,9.976,15,9.976
			s15-4.568,15-9.976C163.5,134.259,156.631,129.69,148.5,129.69z"/>
	</g>
</g>
<g>
</g>
<g>
</g>
<g>
</g>
<g>
</g>
<g>
</g>
<g>
</g>
<g>
</g>
<g>
</g>
<g>
</g>
<g>
</g>
<g>
</g>
<g>
</g>
<g>
</g>
<g>
</g>
<g>
</g>
</svg>
