<?xml version="1.0" encoding="iso-8859-1"?>
<!-- Generator: Adobe Illustrator 19.0.0, SVG Export Plug-In . SVG Version: 6.00 Build 0)  -->
<svg version="1.1" id="Layer_1" xmlns="http://www.w3.org/2000/svg" xmlns:xlink="http://www.w3.org/1999/xlink" x="0px" y="0px"
	 viewBox="0 0 512 512" style="enable-background:new 0 0 512 512;" xml:space="preserve">
<path style="fill:#D7DEED;" d="M322.688,370.759H189.311c-7.047,0-12.759-5.713-12.759-12.76V154.001
	c0-7.047,5.713-12.759,12.759-12.759h133.377c7.047,0,12.759,5.713,12.759,12.759v203.998
	C335.448,365.046,329.736,370.759,322.688,370.759z"/>
<path style="fill:#EFF2FA;" d="M199.961,344.276h112.077c5.159,0,9.34-3.953,9.34-8.828V176.552c0-4.875-4.182-8.828-9.34-8.828
	H199.961c-5.159,0-9.34,3.953-9.34,8.828v158.897C190.622,340.323,194.803,344.276,199.961,344.276z"/>
<g>
	<path style="fill:#FF6464;" d="M231.695,241.062h29.878c-25.209,11.827-22.409,59.756-22.409,59.756h37.347
		c0-49.952,29.878-74.695,29.878-74.695l-7.469-14.938h-82.199c-4.106,0-7.434,3.328-7.434,7.434V256h14.904
		c4.145,0,7.505-3.36,7.505-7.505v-7.434H231.695z"/>
	<path style="fill:#FF6464;" d="M188.964,252.172l-12.413-12.414v32.482l12.413-12.413
		C191.079,257.714,191.079,254.286,188.964,252.172z"/>
	<path style="fill:#FF6464;" d="M323.036,259.828l12.413,12.413v-32.482l-12.413,12.413
		C320.921,254.286,320.921,257.714,323.036,259.828z"/>
</g>
<path style="fill:#D7DEED;" d="M499.24,370.759H365.863c-7.047,0-12.759-5.713-12.759-12.76V154.001
	c0-7.047,5.713-12.759,12.759-12.759H499.24c7.047,0,12.759,5.713,12.759,12.759v203.998
	C512,365.046,506.287,370.759,499.24,370.759z"/>
<path style="fill:#EFF2FA;" d="M376.513,344.276H488.59c5.159,0,9.34-3.953,9.34-8.828V176.552c0-4.875-4.182-8.828-9.34-8.828
	H376.513c-5.159,0-9.34,3.953-9.34,8.828v158.897C367.174,340.323,371.354,344.276,376.513,344.276z"/>
<g>
	<path style="fill:#FF6464;" d="M408.247,241.062h29.878c-25.209,11.827-22.409,59.756-22.409,59.756h37.347
		c0-49.952,29.878-74.695,29.878-74.695l-7.469-14.938h-82.199c-4.106,0-7.434,3.328-7.434,7.434V256h14.904
		c4.145,0,7.505-3.36,7.505-7.505v-7.434H408.247z"/>
	<path style="fill:#FF6464;" d="M365.516,252.172l-12.413-12.414v32.482l12.413-12.413
		C367.63,257.714,367.63,254.286,365.516,252.172z"/>
	<path style="fill:#FF6464;" d="M499.587,259.828L512,272.241v-32.482l-12.413,12.413
		C497.473,254.286,497.473,257.714,499.587,259.828z"/>
</g>
<path style="fill:#D7DEED;" d="M146.136,370.759H12.759C5.713,370.759,0,365.046,0,357.998V154.001
	c0-7.047,5.713-12.759,12.759-12.759h133.377c7.047,0,12.759,5.713,12.759,12.759v203.998
	C158.897,365.046,153.184,370.759,146.136,370.759z"/>
<path style="fill:#EFF2FA;" d="M23.41,344.276h112.077c5.159,0,9.34-3.953,9.34-8.828V176.552c0-4.875-4.182-8.828-9.34-8.828H23.41
	c-5.159,0-9.34,3.953-9.34,8.828v158.897C14.07,340.323,18.251,344.276,23.41,344.276z"/>
<g>
	<path style="fill:#FF6464;" d="M55.144,241.062h29.878c-25.209,11.827-22.409,59.756-22.409,59.756h37.348
		c0-49.952,29.878-74.695,29.878-74.695l-7.469-14.938h-82.2c-4.106,0-7.434,3.328-7.434,7.434V256H47.64
		c4.145,0,7.505-3.36,7.505-7.505v-7.434H55.144z"/>
	<path style="fill:#FF6464;" d="M12.413,252.172L0,239.758v32.482l12.413-12.413C14.527,257.714,14.527,254.286,12.413,252.172z"/>
	<path style="fill:#FF6464;" d="M146.484,259.828l12.413,12.413v-32.482l-12.413,12.413
		C144.37,254.286,144.37,257.714,146.484,259.828z"/>
</g>
<g>
</g>
<g>
</g>
<g>
</g>
<g>
</g>
<g>
</g>
<g>
</g>
<g>
</g>
<g>
</g>
<g>
</g>
<g>
</g>
<g>
</g>
<g>
</g>
<g>
</g>
<g>
</g>
<g>
</g>
</svg>
